{"glyphs":{"0":{"ha":674,"x_min":31,"x_max":804,"o":"m 226 90 q 190 153 235 153 q 138 90 146 153 q 174 26 129 26 q 226 90 218 26 m 149 224 q 111 286 156 286 q 60 224 67 286 q 96 160 53 160 q 149 224 142 160 m 322 90 q 286 153 331 153 q 233 90 242 153 q 269 26 225 26 q 322 90 314 26 m 243 224 q 206 286 250 286 q 154 224 161 286 q 190 160 147 160 q 243 224 236 160 m 165 357 q 128 419 172 419 q 76 357 83 419 q 113 293 69 293 q 165 357 158 293 m 417 90 q 381 153 425 153 q 328 90 336 153 q 364 26 319 26 q 417 90 408 26 m 339 224 q 301 286 346 286 q 250 224 257 286 q 286 160 243 160 q 339 224 332 160 m 260 357 q 222 419 267 419 q 171 357 178 419 q 207 293 164 293 q 260 357 253 293 m 513 90 q 476 153 521 153 q 424 90 432 153 q 460 26 415 26 q 513 90 504 26 m 181 489 q 144 553 189 553 q 92 489 100 553 q 129 426 85 426 q 181 489 174 426 m 433 224 q 396 286 440 286 q 344 224 351 286 q 381 160 338 160 q 433 224 426 160 m 356 357 q 318 419 363 419 q 267 357 274 419 q 303 293 260 293 q 356 357 349 293 m 275 489 q 239 553 283 553 q 186 489 194 553 q 224 426 179 426 q 275 489 268 426 m 529 224 q 492 286 536 286 q 440 224 447 286 q 476 160 433 160 q 529 224 522 160 m 197 622 q 161 686 206 686 q 108 622 117 686 q 144 560 100 560 q 197 622 189 560 m 371 489 q 335 553 379 553 q 282 489 290 553 q 319 426 275 426 q 371 489 364 426 m 624 224 q 586 286 631 286 q 535 224 542 286 q 571 160 528 160 q 624 224 617 160 m 292 622 q 256 686 300 686 q 203 622 211 686 q 239 560 194 560 q 292 622 283 560 m 546 357 q 508 419 553 419 q 457 357 464 419 q 493 293 450 293 q 546 357 539 293 m 214 756 q 176 819 222 819 q 125 756 133 819 q 161 693 117 693 q 214 756 206 693 m 640 357 q 603 419 647 419 q 551 357 558 419 q 588 293 544 293 q 640 357 633 293 m 308 756 q 271 819 317 819 q 219 756 228 819 q 256 693 211 693 q 308 756 300 693 m 561 489 q 525 553 569 553 q 472 489 481 553 q 510 426 465 426 q 561 489 554 426 m 231 889 q 193 953 238 953 q 142 889 149 953 q 178 825 135 825 q 231 889 224 825 m 482 622 q 446 686 490 686 q 393 622 401 686 q 429 560 385 560 q 482 622 474 560 m 656 489 q 619 553 664 553 q 567 489 575 553 q 604 426 560 426 q 656 489 649 426 m 325 889 q 288 953 332 953 q 236 889 243 953 q 272 825 229 825 q 325 889 318 825 m 578 622 q 542 686 586 686 q 489 622 497 686 q 525 560 481 560 q 578 622 569 560 m 499 756 q 461 819 507 819 q 410 756 418 819 q 446 693 401 693 q 499 756 490 693 m 421 889 q 383 953 428 953 q 332 889 339 953 q 368 825 325 825 q 421 889 414 825 m 672 622 q 636 686 681 686 q 583 622 592 686 q 619 560 575 560 q 672 622 664 560 m 340 1022 q 304 1086 347 1086 q 251 1022 258 1086 q 289 958 244 958 q 340 1022 333 958 m 594 756 q 557 819 603 819 q 506 756 514 819 q 542 693 497 693 q 594 756 586 693 m 515 889 q 478 953 522 953 q 426 889 433 953 q 463 825 419 825 q 515 889 508 825 m 436 1022 q 400 1086 443 1086 q 347 1022 354 1086 q 385 958 340 958 q 436 1022 429 958 m 689 756 q 651 819 697 819 q 600 756 608 819 q 636 693 592 693 q 689 756 681 693 m 611 889 q 574 953 618 953 q 522 889 529 953 q 558 825 515 825 q 611 889 604 825 m 531 1022 q 494 1086 538 1086 q 442 1022 449 1086 q 479 958 435 958 q 531 1022 524 958 m 706 889 q 668 953 713 953 q 617 889 624 953 q 653 825 610 825 q 706 889 699 825 m 626 1022 q 590 1086 633 1086 q 538 1022 544 1086 q 575 958 531 958 q 626 1022 619 958 m 610 15 l 610 17 q 529 -71 599 -71 q 482 -54 499 -71 q 433 -71 463 -71 q 386 -54 403 -71 q 339 -71 367 -71 q 292 -54 308 -71 q 243 -71 272 -71 q 178 -1 181 -71 l 174 -1 q 108 72 108 -1 l 108 92 q 100 132 100 106 l 96 132 q 31 206 31 132 l 31 218 q 32 229 31 224 l 32 226 q 57 292 36 271 q 47 339 47 310 l 47 351 q 49 363 47 357 l 49 360 q 74 425 53 404 q 63 474 63 444 q 64 483 63 478 l 64 493 q 89 558 68 538 q 79 604 79 576 l 79 617 q 81 628 79 622 l 81 626 q 106 692 85 671 q 96 738 96 710 l 96 750 q 97 761 96 756 l 97 760 q 122 825 101 804 q 113 871 113 843 l 113 883 q 114 894 113 889 l 114 892 q 193 981 122 981 q 225 974 211 981 q 222 989 222 981 l 222 1007 q 224 1017 222 1011 l 224 1026 q 304 1114 233 1114 q 350 1097 333 1114 q 400 1114 368 1114 q 446 1097 429 1114 q 494 1114 464 1114 q 540 1097 524 1114 q 590 1114 558 1114 q 656 1044 653 1114 l 660 1044 q 725 971 725 1044 q 724 953 725 958 q 735 911 732 939 l 738 911 q 804 835 804 911 l 804 828 q 803 819 803 822 l 803 815 q 776 750 796 769 q 788 703 788 731 l 788 692 q 785 679 788 688 l 786 682 q 760 617 781 639 q 771 571 771 599 l 771 558 q 769 547 771 553 l 769 549 q 743 483 764 506 q 754 438 754 465 l 754 425 q 753 414 754 419 l 753 417 q 728 350 749 372 q 739 303 739 332 l 739 296 q 738 288 738 290 l 738 283 q 711 217 731 239 q 722 169 722 199 l 722 163 q 721 154 721 157 l 721 150 q 640 63 710 63 q 607 69 617 63 q 611 39 611 54 l 611 26 q 610 15 611 21 m 429 532 q 396 539 406 532 l 399 525 q 400 511 400 518 l 404 511 q 438 504 421 511 q 433 532 433 517 l 429 532 z "},"1":{"ha":472,"x_min":14,"x_max":535,"o":"m 132 90 q 96 153 140 153 q 43 90 51 153 q 79 26 35 26 q 132 90 124 26 m 226 90 q 190 153 235 153 q 138 90 146 153 q 174 26 129 26 q 226 90 218 26 m 149 224 q 111 286 156 286 q 60 224 67 286 q 96 160 53 160 q 149 224 142 160 m 322 90 q 286 153 331 153 q 233 90 242 153 q 269 26 225 26 q 322 90 314 26 m 243 224 q 206 286 250 286 q 154 224 161 286 q 190 160 147 160 q 243 224 236 160 m 417 90 q 381 153 425 153 q 328 90 336 153 q 364 26 319 26 q 417 90 408 26 m 339 224 q 301 286 346 286 q 250 224 257 286 q 286 160 243 160 q 339 224 332 160 m 260 357 q 222 419 267 419 q 171 357 178 419 q 207 293 164 293 q 260 357 253 293 m 433 224 q 396 286 440 286 q 344 224 351 286 q 381 160 338 160 q 433 224 426 160 m 356 357 q 318 419 363 419 q 267 357 274 419 q 303 293 260 293 q 356 357 349 293 m 275 489 q 239 553 283 553 q 186 489 194 553 q 224 426 179 426 q 275 489 268 426 m 371 489 q 335 553 379 553 q 282 489 290 553 q 319 426 275 426 q 371 489 364 426 m 292 622 q 256 686 300 686 q 203 622 211 686 q 239 560 194 560 q 292 622 283 560 m 214 756 q 176 819 222 819 q 125 756 133 819 q 161 693 117 693 q 214 756 206 693 m 388 622 q 351 686 396 686 q 299 622 307 686 q 335 560 290 560 q 388 622 379 560 m 308 756 q 271 819 317 819 q 219 756 228 819 q 256 693 211 693 q 308 756 300 693 m 231 889 q 193 953 238 953 q 142 889 149 953 q 178 825 135 825 q 231 889 224 825 m 404 756 q 367 819 413 819 q 315 756 324 819 q 351 693 307 693 q 404 756 396 693 m 325 889 q 288 953 332 953 q 236 889 243 953 q 272 825 229 825 q 325 889 318 825 m 421 889 q 383 953 428 953 q 332 889 339 953 q 368 825 325 825 q 421 889 414 825 m 340 1022 q 304 1086 347 1086 q 251 1022 258 1086 q 289 958 244 958 q 340 1022 333 958 m 436 1022 q 400 1086 443 1086 q 347 1022 354 1086 q 385 958 340 958 q 436 1022 429 958 m 514 15 l 514 17 q 433 -71 503 -71 q 386 -54 403 -71 q 339 -71 367 -71 q 292 -54 308 -71 q 243 -71 272 -71 q 196 -54 213 -71 q 149 -71 176 -71 q 83 -1 86 -71 l 79 -1 q 14 72 14 -1 l 14 85 q 15 96 14 90 l 15 94 q 40 158 19 138 q 31 206 31 176 l 31 218 q 32 229 31 224 l 32 226 q 111 314 40 314 q 146 307 129 314 q 142 339 142 319 l 142 351 q 143 363 142 357 l 143 360 q 168 425 147 404 q 157 474 157 444 q 158 483 157 478 l 158 493 q 183 558 163 538 q 174 604 174 576 l 174 624 q 165 665 165 640 l 161 665 q 96 738 96 665 l 96 750 q 97 761 96 756 l 97 760 q 122 825 101 804 q 113 871 113 843 l 113 883 q 114 894 113 889 l 114 892 q 193 981 122 981 q 225 974 211 981 q 222 989 222 981 l 222 1007 q 224 1017 222 1011 l 224 1026 q 304 1114 233 1114 q 350 1097 333 1114 q 400 1114 368 1114 q 465 1044 463 1114 l 469 1044 q 535 971 535 1044 l 535 958 q 533 947 535 953 l 533 950 q 508 883 529 906 q 519 835 519 865 l 519 828 q 518 819 518 822 l 518 815 q 492 750 511 769 q 503 703 503 731 l 503 692 q 500 679 503 688 l 501 682 q 475 617 496 639 q 486 571 486 599 l 486 558 q 485 547 486 553 l 485 549 q 458 483 479 506 q 469 438 469 465 l 469 425 q 468 414 469 419 l 468 417 q 443 350 464 372 q 454 303 454 332 l 454 296 q 453 288 453 290 l 453 285 q 463 244 460 272 l 465 244 q 532 169 532 244 l 532 163 q 531 154 531 157 l 531 150 q 504 85 524 104 q 515 39 515 65 l 515 26 q 514 15 515 21 z "},"2":{"ha":663,"x_min":14,"x_max":804,"o":"m 132 90 q 96 153 140 153 q 43 90 51 153 q 79 26 35 26 q 132 90 124 26 m 226 90 q 190 153 235 153 q 138 90 146 153 q 174 26 129 26 q 226 90 218 26 m 149 224 q 111 286 156 286 q 60 224 67 286 q 96 160 53 160 q 149 224 142 160 m 322 90 q 286 153 331 153 q 233 90 242 153 q 269 26 225 26 q 322 90 314 26 m 243 224 q 206 286 250 286 q 154 224 161 286 q 190 160 147 160 q 243 224 236 160 m 417 90 q 381 153 425 153 q 328 90 336 153 q 364 26 319 26 q 417 90 408 26 m 339 224 q 301 286 346 286 q 250 224 257 286 q 286 160 243 160 q 339 224 332 160 m 260 357 q 222 419 267 419 q 171 357 178 419 q 207 293 164 293 q 260 357 253 293 m 513 90 q 476 153 521 153 q 424 90 432 153 q 460 26 415 26 q 513 90 504 26 m 433 224 q 396 286 440 286 q 344 224 351 286 q 381 160 338 160 q 433 224 426 160 m 356 357 q 318 419 363 419 q 267 357 274 419 q 303 293 260 293 q 356 357 349 293 m 607 90 q 571 153 615 153 q 518 90 526 153 q 554 26 510 26 q 607 90 599 26 m 529 224 q 492 286 536 286 q 440 224 447 286 q 476 160 433 160 q 529 224 522 160 m 371 489 q 335 553 379 553 q 282 489 290 553 q 319 426 275 426 q 371 489 364 426 m 624 224 q 586 286 631 286 q 535 224 542 286 q 571 160 528 160 q 624 224 617 160 m 465 489 q 429 553 474 553 q 376 489 385 553 q 414 426 369 426 q 465 489 458 426 m 231 889 q 193 953 238 953 q 142 889 149 953 q 178 825 135 825 q 231 889 224 825 m 482 622 q 446 686 490 686 q 393 622 401 686 q 429 560 385 560 q 482 622 474 560 m 325 889 q 288 953 332 953 q 236 889 243 953 q 272 825 229 825 q 325 889 318 825 m 578 622 q 542 686 586 686 q 489 622 497 686 q 525 560 481 560 q 578 622 569 560 m 421 889 q 383 953 428 953 q 332 889 339 953 q 368 825 325 825 q 421 889 414 825 m 340 1022 q 304 1086 347 1086 q 251 1022 258 1086 q 289 958 244 958 q 340 1022 333 958 m 594 756 q 557 819 603 819 q 506 756 514 819 q 542 693 497 693 q 594 756 586 693 m 515 889 q 478 953 522 953 q 426 889 433 953 q 463 825 419 825 q 515 889 508 825 m 436 1022 q 400 1086 443 1086 q 347 1022 354 1086 q 385 958 340 958 q 436 1022 429 958 m 689 756 q 651 819 697 819 q 600 756 608 819 q 636 693 592 693 q 689 756 681 693 m 611 889 q 574 953 618 953 q 522 889 529 953 q 558 825 515 825 q 611 889 604 825 m 531 1022 q 494 1086 538 1086 q 442 1022 449 1086 q 479 958 435 958 q 531 1022 524 958 m 706 889 q 668 953 713 953 q 617 889 624 953 q 653 825 610 825 q 706 889 699 825 m 626 1022 q 590 1086 633 1086 q 538 1022 544 1086 q 575 958 531 958 q 626 1022 619 958 m 704 15 l 704 17 q 624 -71 693 -71 q 576 -54 593 -71 q 529 -71 557 -71 q 482 -54 499 -71 q 433 -71 463 -71 q 386 -54 403 -71 q 339 -71 367 -71 q 292 -54 308 -71 q 243 -71 272 -71 q 196 -54 213 -71 q 149 -71 176 -71 q 83 -1 86 -71 l 79 -1 q 14 72 14 -1 l 14 85 q 15 96 14 90 l 15 94 q 40 158 19 138 q 31 206 31 176 l 31 218 q 32 229 31 224 l 32 226 q 111 314 40 314 q 146 307 129 314 q 142 339 142 319 l 142 351 q 143 363 142 357 l 143 360 q 222 447 151 447 q 257 440 240 447 q 253 474 253 454 q 254 483 253 478 l 254 493 q 335 581 264 581 q 368 574 351 581 q 364 604 364 586 l 364 617 q 365 628 364 622 l 365 626 q 446 714 375 714 q 481 706 465 714 q 476 736 476 719 q 438 728 460 728 q 390 743 408 728 q 342 728 374 728 q 294 743 313 728 q 247 728 275 728 q 182 797 185 728 l 178 797 q 113 871 113 797 l 113 883 q 114 894 113 889 l 114 892 q 193 981 122 981 q 225 974 211 981 q 222 989 222 981 l 222 1007 q 224 1017 222 1011 l 224 1026 q 304 1114 233 1114 q 350 1097 333 1114 q 400 1114 368 1114 q 446 1097 429 1114 q 494 1114 464 1114 q 540 1097 524 1114 q 590 1114 558 1114 q 656 1044 653 1114 l 660 1044 q 725 971 725 1044 q 724 953 725 958 q 735 911 732 939 l 738 911 q 804 835 804 911 l 804 828 q 803 819 803 822 l 803 815 q 776 750 796 769 q 788 703 788 731 l 788 692 q 785 679 788 688 l 786 682 q 706 596 775 596 q 672 603 682 596 q 676 571 676 588 l 676 558 q 675 547 676 553 l 675 549 q 594 463 664 463 q 560 469 576 463 q 564 438 564 457 l 564 425 q 563 414 564 419 l 563 417 q 483 329 554 329 q 450 335 461 329 q 454 304 454 322 q 492 314 469 314 q 539 297 522 314 q 586 314 557 314 q 653 244 651 314 l 656 244 q 722 169 722 244 l 722 163 q 721 154 721 157 l 721 150 q 694 85 714 104 q 706 39 706 65 l 706 26 q 704 15 706 21 z "},"3":{"ha":668,"x_min":31,"x_max":804,"o":"m 226 90 q 190 153 235 153 q 138 90 146 153 q 174 26 129 26 q 226 90 218 26 m 149 224 q 111 286 156 286 q 60 224 67 286 q 96 160 53 160 q 149 224 142 160 m 322 90 q 286 153 331 153 q 233 90 242 153 q 269 26 225 26 q 322 90 314 26 m 243 224 q 206 286 250 286 q 154 224 161 286 q 190 160 147 160 q 243 224 236 160 m 417 90 q 381 153 425 153 q 328 90 336 153 q 364 26 319 26 q 417 90 408 26 m 339 224 q 301 286 346 286 q 250 224 257 286 q 286 160 243 160 q 339 224 332 160 m 513 90 q 476 153 521 153 q 424 90 432 153 q 460 26 415 26 q 513 90 504 26 m 433 224 q 396 286 440 286 q 344 224 351 286 q 381 160 338 160 q 433 224 426 160 m 529 224 q 492 286 536 286 q 440 224 447 286 q 476 160 433 160 q 529 224 522 160 m 371 489 q 335 553 379 553 q 282 489 290 553 q 319 426 275 426 q 371 489 364 426 m 624 224 q 586 286 631 286 q 535 224 542 286 q 571 160 528 160 q 624 224 617 160 m 546 357 q 508 419 553 419 q 457 357 464 419 q 493 293 450 293 q 546 357 539 293 m 465 489 q 429 553 474 553 q 376 489 385 553 q 414 426 369 426 q 465 489 458 426 m 388 622 q 351 686 396 686 q 299 622 307 686 q 335 560 290 560 q 388 622 379 560 m 640 357 q 603 419 647 419 q 551 357 558 419 q 588 293 544 293 q 640 357 633 293 m 561 489 q 525 553 569 553 q 472 489 481 553 q 510 426 465 426 q 561 489 554 426 m 231 889 q 193 953 238 953 q 142 889 149 953 q 178 825 135 825 q 231 889 224 825 m 482 622 q 446 686 490 686 q 393 622 401 686 q 429 560 385 560 q 482 622 474 560 m 325 889 q 288 953 332 953 q 236 889 243 953 q 272 825 229 825 q 325 889 318 825 m 578 622 q 542 686 586 686 q 489 622 497 686 q 525 560 481 560 q 578 622 569 560 m 421 889 q 383 953 428 953 q 332 889 339 953 q 368 825 325 825 q 421 889 414 825 m 340 1022 q 304 1086 347 1086 q 251 1022 258 1086 q 289 958 244 958 q 340 1022 333 958 m 594 756 q 557 819 603 819 q 506 756 514 819 q 542 693 497 693 q 594 756 586 693 m 515 889 q 478 953 522 953 q 426 889 433 953 q 463 825 419 825 q 515 889 508 825 m 436 1022 q 400 1086 443 1086 q 347 1022 354 1086 q 385 958 340 958 q 436 1022 429 958 m 689 756 q 651 819 697 819 q 600 756 608 819 q 636 693 592 693 q 689 756 681 693 m 611 889 q 574 953 618 953 q 522 889 529 953 q 558 825 515 825 q 611 889 604 825 m 531 1022 q 494 1086 538 1086 q 442 1022 449 1086 q 479 958 435 958 q 531 1022 524 958 m 706 889 q 668 953 713 953 q 617 889 624 953 q 653 825 610 825 q 706 889 699 825 m 626 1022 q 590 1086 633 1086 q 538 1022 544 1086 q 575 958 531 958 q 626 1022 619 958 m 610 15 l 610 17 q 529 -71 599 -71 q 482 -54 499 -71 q 433 -71 463 -71 q 386 -54 403 -71 q 339 -71 367 -71 q 292 -54 308 -71 q 243 -71 272 -71 q 178 -1 181 -71 l 174 -1 q 108 72 108 -1 l 108 92 q 100 132 100 106 l 96 132 q 31 206 31 132 l 31 218 q 32 229 31 224 l 32 226 q 111 314 40 314 q 158 297 142 314 q 206 314 176 314 q 253 297 236 314 q 301 314 271 314 q 349 297 332 314 q 396 314 367 314 q 432 306 417 314 q 428 338 428 319 q 389 329 411 329 q 322 399 324 329 l 319 399 q 253 474 253 399 q 254 483 253 478 l 254 493 q 279 558 258 538 q 269 604 269 576 l 269 617 q 271 628 269 622 l 271 626 q 351 714 281 714 q 397 697 381 714 q 446 714 415 714 q 481 706 465 714 q 476 736 476 719 q 438 728 460 728 q 390 743 408 728 q 342 728 374 728 q 294 743 313 728 q 247 728 275 728 q 182 797 185 728 l 178 797 q 113 871 113 797 l 113 883 q 114 894 113 889 l 114 892 q 193 981 122 981 q 225 974 211 981 q 222 989 222 981 l 222 1007 q 224 1017 222 1011 l 224 1026 q 304 1114 233 1114 q 350 1097 333 1114 q 400 1114 368 1114 q 446 1097 429 1114 q 494 1114 464 1114 q 540 1097 524 1114 q 590 1114 558 1114 q 656 1044 653 1114 l 660 1044 q 725 971 725 1044 q 724 953 725 958 q 735 911 732 939 l 738 911 q 804 835 804 911 l 804 828 q 803 819 803 822 l 803 815 q 776 750 796 769 q 788 703 788 731 l 788 692 q 785 679 788 688 l 786 682 q 706 596 775 596 q 672 603 682 596 q 676 571 676 588 l 676 558 q 675 547 676 553 l 675 549 q 649 483 669 506 q 660 438 660 465 q 658 419 660 425 q 669 378 667 406 l 672 378 q 739 303 739 378 l 739 296 q 738 288 738 290 l 738 283 q 711 217 731 239 q 722 169 722 199 l 722 163 q 721 154 721 157 l 721 150 q 640 63 710 63 q 607 69 617 63 q 611 39 611 54 l 611 26 q 610 15 611 21 z "},"4":{"ha":772,"x_min":79,"x_max":867,"o":"m 513 90 q 476 153 521 153 q 424 90 432 153 q 460 26 415 26 q 513 90 504 26 m 607 90 q 571 153 615 153 q 518 90 526 153 q 554 26 510 26 q 607 90 599 26 m 275 489 q 239 553 283 553 q 186 489 194 553 q 224 426 179 426 q 275 489 268 426 m 529 224 q 492 286 536 286 q 440 224 447 286 q 476 160 433 160 q 529 224 522 160 m 197 622 q 161 686 206 686 q 108 622 117 686 q 144 560 100 560 q 197 622 189 560 m 371 489 q 335 553 379 553 q 282 489 290 553 q 319 426 275 426 q 371 489 364 426 m 624 224 q 586 286 631 286 q 535 224 542 286 q 571 160 528 160 q 624 224 617 160 m 292 622 q 256 686 300 686 q 203 622 211 686 q 239 560 194 560 q 292 622 283 560 m 546 357 q 508 419 553 419 q 457 357 464 419 q 493 293 450 293 q 546 357 539 293 m 214 756 q 176 819 222 819 q 125 756 133 819 q 161 693 117 693 q 214 756 206 693 m 465 489 q 429 553 474 553 q 376 489 385 553 q 414 426 369 426 q 465 489 458 426 m 388 622 q 351 686 396 686 q 299 622 307 686 q 335 560 290 560 q 388 622 379 560 m 640 357 q 603 419 647 419 q 551 357 558 419 q 588 293 544 293 q 640 357 633 293 m 308 756 q 271 819 317 819 q 219 756 228 819 q 256 693 211 693 q 308 756 300 693 m 561 489 q 525 553 569 553 q 472 489 481 553 q 510 426 465 426 q 561 489 554 426 m 231 889 q 193 953 238 953 q 142 889 149 953 q 178 825 135 825 q 231 889 224 825 m 482 622 q 446 686 490 686 q 393 622 401 686 q 429 560 385 560 q 482 622 474 560 m 656 489 q 619 553 664 553 q 567 489 575 553 q 604 426 560 426 q 656 489 649 426 m 325 889 q 288 953 332 953 q 236 889 243 953 q 272 825 229 825 q 325 889 318 825 m 578 622 q 542 686 586 686 q 489 622 497 686 q 525 560 481 560 q 578 622 569 560 m 751 489 q 715 553 760 553 q 663 489 671 553 q 700 426 656 426 q 751 489 744 426 m 672 622 q 636 686 681 686 q 583 622 592 686 q 619 560 575 560 q 672 622 664 560 m 340 1022 q 304 1086 347 1086 q 251 1022 258 1086 q 289 958 244 958 q 340 1022 333 958 m 594 756 q 557 819 603 819 q 506 756 514 819 q 542 693 497 693 q 594 756 586 693 m 768 622 q 732 686 776 686 q 679 622 688 686 q 715 560 671 560 q 768 622 760 560 m 689 756 q 651 819 697 819 q 600 756 608 819 q 636 693 592 693 q 689 756 681 693 m 611 889 q 574 953 618 953 q 522 889 529 953 q 558 825 515 825 q 611 889 604 825 m 706 889 q 668 953 713 953 q 617 889 624 953 q 653 825 610 825 q 706 889 699 825 m 626 1022 q 590 1086 633 1086 q 538 1022 544 1086 q 575 958 531 958 q 626 1022 619 958 m 721 1022 q 685 1086 728 1086 q 632 1022 639 1086 q 669 958 625 958 q 721 1022 714 958 m 422 819 l 422 815 q 396 750 415 769 q 407 704 407 732 q 446 714 422 714 q 481 706 465 714 q 476 738 476 719 l 476 750 q 478 761 476 756 l 478 760 q 503 825 482 804 q 493 871 493 843 l 493 883 q 494 894 493 889 l 494 892 q 518 957 499 935 q 508 1007 508 975 q 510 1017 508 1011 l 510 1026 q 590 1114 519 1114 q 636 1097 619 1114 q 685 1114 654 1114 q 750 1044 747 1114 l 754 1044 q 819 971 819 1044 l 819 958 q 818 947 819 953 l 818 950 q 793 883 814 906 q 804 835 804 865 l 804 828 q 803 819 803 822 l 803 815 q 776 750 796 769 q 788 703 788 731 q 786 688 788 693 q 797 644 793 676 l 801 644 q 867 571 867 644 l 867 558 q 865 547 867 553 l 865 549 q 839 483 860 506 q 850 438 850 465 l 850 425 q 849 414 850 419 l 849 417 q 769 329 840 329 q 735 336 747 329 q 739 303 739 321 l 739 296 q 738 288 738 290 l 738 283 q 711 217 731 239 q 722 169 722 199 l 722 163 q 721 154 721 157 l 721 150 q 694 85 714 104 q 706 39 706 65 l 706 26 q 704 15 706 21 l 704 17 q 624 -71 693 -71 q 576 -54 593 -71 q 529 -71 557 -71 q 464 -1 467 -71 l 460 -1 q 394 72 394 -1 l 394 85 q 396 96 394 90 l 396 94 q 421 158 400 138 q 411 206 411 176 l 411 218 q 413 229 411 224 l 413 226 q 438 292 417 271 q 428 338 428 310 q 389 329 411 329 q 342 344 357 329 q 293 329 322 329 q 226 399 228 329 l 224 399 q 157 474 157 399 q 158 481 157 476 l 158 489 q 149 532 149 504 l 144 532 q 79 604 79 532 l 79 617 q 81 628 79 622 l 81 626 q 106 692 85 671 q 96 738 96 710 l 96 750 q 97 761 96 756 l 97 760 q 122 825 101 804 q 113 871 113 843 l 113 883 q 114 894 113 889 l 114 892 q 193 981 122 981 q 225 974 211 981 q 222 989 222 981 l 222 1007 q 224 1017 222 1011 l 224 1026 q 304 1114 233 1114 q 369 1044 367 1114 l 374 1044 q 439 971 439 1044 l 439 958 q 438 947 439 953 l 438 950 q 413 883 433 906 q 424 835 424 865 l 424 828 q 422 819 422 822 z "},"5":{"ha":656,"x_min":31,"x_max":754,"o":"m 226 90 q 190 153 235 153 q 138 90 146 153 q 174 26 129 26 q 226 90 218 26 m 149 224 q 111 286 156 286 q 60 224 67 286 q 96 160 53 160 q 149 224 142 160 m 322 90 q 286 153 331 153 q 233 90 242 153 q 269 26 225 26 q 322 90 314 26 m 243 224 q 206 286 250 286 q 154 224 161 286 q 190 160 147 160 q 243 224 236 160 m 417 90 q 381 153 425 153 q 328 90 336 153 q 364 26 319 26 q 417 90 408 26 m 339 224 q 301 286 346 286 q 250 224 257 286 q 286 160 243 160 q 339 224 332 160 m 513 90 q 476 153 521 153 q 424 90 432 153 q 460 26 415 26 q 513 90 504 26 m 181 489 q 144 553 189 553 q 92 489 100 553 q 129 426 85 426 q 181 489 174 426 m 433 224 q 396 286 440 286 q 344 224 351 286 q 381 160 338 160 q 433 224 426 160 m 275 489 q 239 553 283 553 q 186 489 194 553 q 224 426 179 426 q 275 489 268 426 m 529 224 q 492 286 536 286 q 440 224 447 286 q 476 160 433 160 q 529 224 522 160 m 197 622 q 161 686 206 686 q 108 622 117 686 q 144 560 100 560 q 197 622 189 560 m 371 489 q 335 553 379 553 q 282 489 290 553 q 319 426 275 426 q 371 489 364 426 m 624 224 q 586 286 631 286 q 535 224 542 286 q 571 160 528 160 q 624 224 617 160 m 292 622 q 256 686 300 686 q 203 622 211 686 q 239 560 194 560 q 292 622 283 560 m 546 357 q 508 419 553 419 q 457 357 464 419 q 493 293 450 293 q 546 357 539 293 m 214 756 q 176 819 222 819 q 125 756 133 819 q 161 693 117 693 q 214 756 206 693 m 465 489 q 429 553 474 553 q 376 489 385 553 q 414 426 369 426 q 465 489 458 426 m 388 622 q 351 686 396 686 q 299 622 307 686 q 335 560 290 560 q 388 622 379 560 m 640 357 q 603 419 647 419 q 551 357 558 419 q 588 293 544 293 q 640 357 633 293 m 308 756 q 271 819 317 819 q 219 756 228 819 q 256 693 211 693 q 308 756 300 693 m 561 489 q 525 553 569 553 q 472 489 481 553 q 510 426 465 426 q 561 489 554 426 m 231 889 q 193 953 238 953 q 142 889 149 953 q 178 825 135 825 q 231 889 224 825 m 482 622 q 446 686 490 686 q 393 622 401 686 q 429 560 385 560 q 482 622 474 560 m 656 489 q 619 553 664 553 q 567 489 575 553 q 604 426 560 426 q 656 489 649 426 m 325 889 q 288 953 332 953 q 236 889 243 953 q 272 825 229 825 q 325 889 318 825 m 578 622 q 542 686 586 686 q 489 622 497 686 q 525 560 481 560 q 578 622 569 560 m 246 1022 q 210 1086 253 1086 q 157 1022 164 1086 q 194 958 150 958 q 246 1022 239 958 m 421 889 q 383 953 428 953 q 332 889 339 953 q 368 825 325 825 q 421 889 414 825 m 340 1022 q 304 1086 347 1086 q 251 1022 258 1086 q 289 958 244 958 q 340 1022 333 958 m 515 889 q 478 953 522 953 q 426 889 433 953 q 463 825 419 825 q 515 889 508 825 m 436 1022 q 400 1086 443 1086 q 347 1022 354 1086 q 385 958 340 958 q 436 1022 429 958 m 611 889 q 574 953 618 953 q 522 889 529 953 q 558 825 515 825 q 611 889 604 825 m 531 1022 q 494 1086 538 1086 q 442 1022 449 1086 q 479 958 435 958 q 531 1022 524 958 m 626 1022 q 590 1086 633 1086 q 538 1022 544 1086 q 575 958 531 958 q 626 1022 619 958 m 610 15 l 610 17 q 529 -71 599 -71 q 482 -54 499 -71 q 433 -71 463 -71 q 386 -54 403 -71 q 339 -71 367 -71 q 292 -54 308 -71 q 243 -71 272 -71 q 178 -1 181 -71 l 174 -1 q 108 72 108 -1 l 108 92 q 100 132 100 106 l 96 132 q 31 206 31 132 l 31 218 q 32 229 31 224 l 32 226 q 111 314 40 314 q 158 297 142 314 q 206 314 176 314 q 253 297 236 314 q 301 314 271 314 q 349 297 332 314 q 396 314 367 314 q 432 306 417 314 q 428 338 428 319 q 389 329 411 329 q 342 344 357 329 q 293 329 322 329 q 246 344 261 329 q 199 329 229 329 q 132 399 133 329 l 129 399 q 63 474 63 399 q 64 483 63 478 l 64 493 q 89 558 68 538 q 79 604 79 576 l 79 617 q 81 628 79 622 l 81 626 q 106 692 85 671 q 96 738 96 710 l 96 750 q 97 761 96 756 l 97 760 q 122 825 101 804 q 113 871 113 843 l 113 883 q 114 894 113 889 l 114 892 q 138 957 118 935 q 128 1007 128 975 q 129 1017 128 1011 l 129 1026 q 210 1114 139 1114 q 256 1097 239 1114 q 304 1114 274 1114 q 350 1097 333 1114 q 400 1114 368 1114 q 446 1097 429 1114 q 494 1114 464 1114 q 540 1097 524 1114 q 590 1114 558 1114 q 656 1044 653 1114 l 660 1044 q 725 971 725 1044 l 725 958 q 724 947 725 953 l 724 950 q 699 883 719 906 q 710 835 710 865 l 710 828 q 708 819 708 822 l 708 815 q 628 728 697 728 q 581 743 599 728 q 532 728 564 728 q 485 743 503 728 q 438 728 465 728 q 403 735 415 728 q 407 704 407 722 q 446 714 422 714 q 492 697 475 714 q 542 714 510 714 q 607 644 604 714 l 611 644 q 676 571 676 644 q 675 551 676 557 q 685 511 682 536 l 689 511 q 754 438 754 511 l 754 425 q 753 414 754 419 l 753 417 q 728 350 749 372 q 739 303 739 332 l 739 296 q 738 288 738 290 l 738 283 q 711 217 731 239 q 722 169 722 199 l 722 163 q 721 154 721 157 l 721 150 q 640 63 710 63 q 607 69 617 63 q 611 39 611 54 l 611 26 q 610 15 611 21 z "},"6":{"ha":650,"x_min":31,"x_max":754,"o":"m 226 90 q 190 153 235 153 q 138 90 146 153 q 174 26 129 26 q 226 90 218 26 m 149 224 q 111 286 156 286 q 60 224 67 286 q 96 160 53 160 q 149 224 142 160 m 322 90 q 286 153 331 153 q 233 90 242 153 q 269 26 225 26 q 322 90 314 26 m 243 224 q 206 286 250 286 q 154 224 161 286 q 190 160 147 160 q 243 224 236 160 m 165 357 q 128 419 172 419 q 76 357 83 419 q 113 293 69 293 q 165 357 158 293 m 417 90 q 381 153 425 153 q 328 90 336 153 q 364 26 319 26 q 417 90 408 26 m 339 224 q 301 286 346 286 q 250 224 257 286 q 286 160 243 160 q 339 224 332 160 m 260 357 q 222 419 267 419 q 171 357 178 419 q 207 293 164 293 q 260 357 253 293 m 513 90 q 476 153 521 153 q 424 90 432 153 q 460 26 415 26 q 513 90 504 26 m 181 489 q 144 553 189 553 q 92 489 100 553 q 129 426 85 426 q 181 489 174 426 m 433 224 q 396 286 440 286 q 344 224 351 286 q 381 160 338 160 q 433 224 426 160 m 275 489 q 239 553 283 553 q 186 489 194 553 q 224 426 179 426 q 275 489 268 426 m 529 224 q 492 286 536 286 q 440 224 447 286 q 476 160 433 160 q 529 224 522 160 m 197 622 q 161 686 206 686 q 108 622 117 686 q 144 560 100 560 q 197 622 189 560 m 371 489 q 335 553 379 553 q 282 489 290 553 q 319 426 275 426 q 371 489 364 426 m 624 224 q 586 286 631 286 q 535 224 542 286 q 571 160 528 160 q 624 224 617 160 m 292 622 q 256 686 300 686 q 203 622 211 686 q 239 560 194 560 q 292 622 283 560 m 546 357 q 508 419 553 419 q 457 357 464 419 q 493 293 450 293 q 546 357 539 293 m 214 756 q 176 819 222 819 q 125 756 133 819 q 161 693 117 693 q 214 756 206 693 m 465 489 q 429 553 474 553 q 376 489 385 553 q 414 426 369 426 q 465 489 458 426 m 388 622 q 351 686 396 686 q 299 622 307 686 q 335 560 290 560 q 388 622 379 560 m 640 357 q 603 419 647 419 q 551 357 558 419 q 588 293 544 293 q 640 357 633 293 m 308 756 q 271 819 317 819 q 219 756 228 819 q 256 693 211 693 q 308 756 300 693 m 561 489 q 525 553 569 553 q 472 489 481 553 q 510 426 465 426 q 561 489 554 426 m 482 622 q 446 686 490 686 q 393 622 401 686 q 429 560 385 560 q 482 622 474 560 m 656 489 q 619 553 664 553 q 567 489 575 553 q 604 426 560 426 q 656 489 649 426 m 325 889 q 288 953 332 953 q 236 889 243 953 q 272 825 229 825 q 325 889 318 825 m 578 622 q 542 686 586 686 q 489 622 497 686 q 525 560 481 560 q 578 622 569 560 m 421 889 q 383 953 428 953 q 332 889 339 953 q 368 825 325 825 q 421 889 414 825 m 515 889 q 478 953 522 953 q 426 889 433 953 q 463 825 419 825 q 515 889 508 825 m 436 1022 q 400 1086 443 1086 q 347 1022 354 1086 q 385 958 340 958 q 436 1022 429 958 m 531 1022 q 494 1086 538 1086 q 442 1022 449 1086 q 479 958 435 958 q 531 1022 524 958 m 610 15 l 610 17 q 529 -71 599 -71 q 482 -54 499 -71 q 433 -71 463 -71 q 386 -54 403 -71 q 339 -71 367 -71 q 292 -54 308 -71 q 243 -71 272 -71 q 178 -1 181 -71 l 174 -1 q 108 72 108 -1 l 108 92 q 100 132 100 106 l 96 132 q 31 206 31 132 l 31 218 q 32 229 31 224 l 32 226 q 57 292 36 271 q 47 339 47 310 l 47 351 q 49 363 47 357 l 49 360 q 74 425 53 404 q 63 474 63 444 q 64 483 63 478 l 64 493 q 89 558 68 538 q 79 604 79 576 l 79 617 q 81 628 79 622 l 81 626 q 106 692 85 671 q 96 738 96 710 l 96 750 q 97 761 96 756 l 97 760 q 176 847 107 847 q 210 840 193 847 q 207 854 207 847 l 207 883 q 208 894 207 889 l 208 892 q 288 981 217 981 q 322 974 306 981 q 318 1007 318 988 q 319 1017 318 1011 l 319 1026 q 400 1114 329 1114 q 446 1097 429 1114 q 494 1114 464 1114 q 560 1044 557 1114 l 564 1044 q 629 971 629 1044 l 629 958 q 628 947 629 953 l 628 950 q 603 883 624 906 q 614 835 614 865 l 614 828 q 613 819 613 822 l 613 815 q 532 728 601 728 q 485 743 503 728 q 438 728 465 728 q 403 735 415 728 q 407 704 407 722 q 446 714 422 714 q 492 697 475 714 q 542 714 510 714 q 607 644 604 714 l 611 644 q 676 571 676 644 q 675 551 676 557 q 685 511 682 536 l 689 511 q 754 438 754 511 l 754 425 q 753 414 754 419 l 753 417 q 728 350 749 372 q 739 303 739 332 l 739 296 q 738 288 738 290 l 738 283 q 711 217 731 239 q 722 169 722 199 l 722 163 q 721 154 721 157 l 721 150 q 640 63 710 63 q 607 69 617 63 q 611 39 611 54 l 611 26 q 610 15 611 21 m 432 306 q 428 338 428 319 q 389 329 411 329 q 354 336 367 329 q 358 304 358 321 q 396 314 374 314 q 432 306 417 314 z "},"7":{"ha":669,"x_min":113,"x_max":819,"o":"m 322 90 q 286 153 331 153 q 233 90 242 153 q 269 26 225 26 q 322 90 314 26 m 417 90 q 381 153 425 153 q 328 90 336 153 q 364 26 319 26 q 417 90 408 26 m 339 224 q 301 286 346 286 q 250 224 257 286 q 286 160 243 160 q 339 224 332 160 m 433 224 q 396 286 440 286 q 344 224 351 286 q 381 160 338 160 q 433 224 426 160 m 356 357 q 318 419 363 419 q 267 357 274 419 q 303 293 260 293 q 356 357 349 293 m 450 357 q 413 419 457 419 q 361 357 368 419 q 397 293 354 293 q 450 357 443 293 m 371 489 q 335 553 379 553 q 282 489 290 553 q 319 426 275 426 q 371 489 364 426 m 465 489 q 429 553 474 553 q 376 489 385 553 q 414 426 369 426 q 465 489 458 426 m 231 889 q 193 953 238 953 q 142 889 149 953 q 178 825 135 825 q 231 889 224 825 m 482 622 q 446 686 490 686 q 393 622 401 686 q 429 560 385 560 q 482 622 474 560 m 325 889 q 288 953 332 953 q 236 889 243 953 q 272 825 229 825 q 325 889 318 825 m 578 622 q 542 686 586 686 q 489 622 497 686 q 525 560 481 560 q 578 622 569 560 m 246 1022 q 210 1086 253 1086 q 157 1022 164 1086 q 194 958 150 958 q 246 1022 239 958 m 421 889 q 383 953 428 953 q 332 889 339 953 q 368 825 325 825 q 421 889 414 825 m 340 1022 q 304 1086 347 1086 q 251 1022 258 1086 q 289 958 244 958 q 340 1022 333 958 m 594 756 q 557 819 603 819 q 506 756 514 819 q 542 693 497 693 q 594 756 586 693 m 515 889 q 478 953 522 953 q 426 889 433 953 q 463 825 419 825 q 515 889 508 825 m 436 1022 q 400 1086 443 1086 q 347 1022 354 1086 q 385 958 340 958 q 436 1022 429 958 m 689 756 q 651 819 697 819 q 600 756 608 819 q 636 693 592 693 q 689 756 681 693 m 611 889 q 574 953 618 953 q 522 889 529 953 q 558 825 515 825 q 611 889 604 825 m 531 1022 q 494 1086 538 1086 q 442 1022 449 1086 q 479 958 435 958 q 531 1022 524 958 m 706 889 q 668 953 713 953 q 617 889 624 953 q 653 825 610 825 q 706 889 699 825 m 626 1022 q 590 1086 633 1086 q 538 1022 544 1086 q 575 958 531 958 q 626 1022 619 958 m 721 1022 q 685 1086 728 1086 q 632 1022 639 1086 q 669 958 625 958 q 721 1022 714 958 m 514 15 l 514 17 q 433 -71 503 -71 q 386 -54 403 -71 q 339 -71 367 -71 q 274 -1 276 -71 l 269 -1 q 204 72 204 -1 l 204 85 q 206 96 204 90 l 206 94 q 231 158 210 138 q 221 206 221 176 l 221 218 q 222 229 221 224 l 222 226 q 247 292 226 271 q 238 339 238 310 l 238 351 q 239 363 238 357 l 239 360 q 264 425 243 404 q 253 474 253 444 q 254 483 253 478 l 254 493 q 335 581 264 581 q 368 574 351 581 q 364 604 364 586 l 364 617 q 365 628 364 622 l 365 626 q 446 714 375 714 q 481 706 465 714 q 476 736 476 719 q 438 728 460 728 q 390 743 408 728 q 342 728 374 728 q 294 743 313 728 q 247 728 275 728 q 182 797 185 728 l 178 797 q 113 871 113 797 l 113 883 q 114 894 113 889 l 114 892 q 138 957 118 935 q 128 1007 128 975 q 129 1017 128 1011 l 129 1026 q 210 1114 139 1114 q 256 1097 239 1114 q 304 1114 274 1114 q 350 1097 333 1114 q 400 1114 368 1114 q 446 1097 429 1114 q 494 1114 464 1114 q 540 1097 524 1114 q 590 1114 558 1114 q 636 1097 619 1114 q 685 1114 654 1114 q 750 1044 747 1114 l 754 1044 q 819 971 819 1044 l 819 958 q 818 947 819 953 l 818 950 q 793 883 814 906 q 804 835 804 865 l 804 828 q 803 819 803 822 l 803 815 q 776 750 796 769 q 788 703 788 731 l 788 692 q 785 679 788 688 l 786 682 q 706 596 775 596 q 672 603 682 596 q 676 571 676 588 l 676 558 q 675 547 676 553 l 675 549 q 594 463 664 463 q 560 469 576 463 q 564 438 564 457 l 564 425 q 563 414 564 419 l 563 417 q 538 350 558 372 q 549 303 549 332 l 549 296 q 547 288 547 290 l 547 283 q 521 217 540 239 q 532 169 532 199 l 532 163 q 531 154 531 157 l 531 150 q 504 85 524 104 q 515 39 515 65 l 515 26 q 514 15 515 21 z "},"8":{"ha":668,"x_min":31,"x_max":804,"o":"m 226 90 q 190 153 235 153 q 138 90 146 153 q 174 26 129 26 q 226 90 218 26 m 149 224 q 111 286 156 286 q 60 224 67 286 q 96 160 53 160 q 149 224 142 160 m 322 90 q 286 153 331 153 q 233 90 242 153 q 269 26 225 26 q 322 90 314 26 m 243 224 q 206 286 250 286 q 154 224 161 286 q 190 160 147 160 q 243 224 236 160 m 165 357 q 128 419 172 419 q 76 357 83 419 q 113 293 69 293 q 165 357 158 293 m 417 90 q 381 153 425 153 q 328 90 336 153 q 364 26 319 26 q 417 90 408 26 m 339 224 q 301 286 346 286 q 250 224 257 286 q 286 160 243 160 q 339 224 332 160 m 260 357 q 222 419 267 419 q 171 357 178 419 q 207 293 164 293 q 260 357 253 293 m 513 90 q 476 153 521 153 q 424 90 432 153 q 460 26 415 26 q 513 90 504 26 m 433 224 q 396 286 440 286 q 344 224 351 286 q 381 160 338 160 q 433 224 426 160 m 275 489 q 239 553 283 553 q 186 489 194 553 q 224 426 179 426 q 275 489 268 426 m 529 224 q 492 286 536 286 q 440 224 447 286 q 476 160 433 160 q 529 224 522 160 m 371 489 q 335 553 379 553 q 282 489 290 553 q 319 426 275 426 q 371 489 364 426 m 624 224 q 586 286 631 286 q 535 224 542 286 q 571 160 528 160 q 624 224 617 160 m 292 622 q 256 686 300 686 q 203 622 211 686 q 239 560 194 560 q 292 622 283 560 m 546 357 q 508 419 553 419 q 457 357 464 419 q 493 293 450 293 q 546 357 539 293 m 214 756 q 176 819 222 819 q 125 756 133 819 q 161 693 117 693 q 214 756 206 693 m 465 489 q 429 553 474 553 q 376 489 385 553 q 414 426 369 426 q 465 489 458 426 m 388 622 q 351 686 396 686 q 299 622 307 686 q 335 560 290 560 q 388 622 379 560 m 640 357 q 603 419 647 419 q 551 357 558 419 q 588 293 544 293 q 640 357 633 293 m 308 756 q 271 819 317 819 q 219 756 228 819 q 256 693 211 693 q 308 756 300 693 m 561 489 q 525 553 569 553 q 472 489 481 553 q 510 426 465 426 q 561 489 554 426 m 231 889 q 193 953 238 953 q 142 889 149 953 q 178 825 135 825 q 231 889 224 825 m 482 622 q 446 686 490 686 q 393 622 401 686 q 429 560 385 560 q 482 622 474 560 m 325 889 q 288 953 332 953 q 236 889 243 953 q 272 825 229 825 q 325 889 318 825 m 578 622 q 542 686 586 686 q 489 622 497 686 q 525 560 481 560 q 578 622 569 560 m 421 889 q 383 953 428 953 q 332 889 339 953 q 368 825 325 825 q 421 889 414 825 m 340 1022 q 304 1086 347 1086 q 251 1022 258 1086 q 289 958 244 958 q 340 1022 333 958 m 594 756 q 557 819 603 819 q 506 756 514 819 q 542 693 497 693 q 594 756 586 693 m 515 889 q 478 953 522 953 q 426 889 433 953 q 463 825 419 825 q 515 889 508 825 m 436 1022 q 400 1086 443 1086 q 347 1022 354 1086 q 385 958 340 958 q 436 1022 429 958 m 689 756 q 651 819 697 819 q 600 756 608 819 q 636 693 592 693 q 689 756 681 693 m 611 889 q 574 953 618 953 q 522 889 529 953 q 558 825 515 825 q 611 889 604 825 m 531 1022 q 494 1086 538 1086 q 442 1022 449 1086 q 479 958 435 958 q 531 1022 524 958 m 706 889 q 668 953 713 953 q 617 889 624 953 q 653 825 610 825 q 706 889 699 825 m 626 1022 q 590 1086 633 1086 q 538 1022 544 1086 q 575 958 531 958 q 626 1022 619 958 m 610 15 l 610 17 q 529 -71 599 -71 q 482 -54 499 -71 q 433 -71 463 -71 q 386 -54 403 -71 q 339 -71 367 -71 q 292 -54 308 -71 q 243 -71 272 -71 q 178 -1 181 -71 l 174 -1 q 108 72 108 -1 l 108 92 q 100 132 100 106 l 96 132 q 31 206 31 132 l 31 218 q 32 229 31 224 l 32 226 q 57 292 36 271 q 47 339 47 310 l 47 351 q 49 363 47 357 l 49 360 q 128 447 57 447 q 161 440 144 447 q 157 474 157 454 q 158 483 157 478 l 158 493 q 183 558 163 538 q 174 604 174 576 l 174 624 q 165 665 165 640 l 161 665 q 96 738 96 665 l 96 750 q 97 761 96 756 l 97 760 q 122 825 101 804 q 113 871 113 843 l 113 883 q 114 894 113 889 l 114 892 q 193 981 122 981 q 225 974 211 981 q 222 989 222 981 l 222 1007 q 224 1017 222 1011 l 224 1026 q 304 1114 233 1114 q 350 1097 333 1114 q 400 1114 368 1114 q 446 1097 429 1114 q 494 1114 464 1114 q 540 1097 524 1114 q 590 1114 558 1114 q 656 1044 653 1114 l 660 1044 q 725 971 725 1044 q 724 953 725 958 q 735 911 732 939 l 738 911 q 804 835 804 911 l 804 828 q 803 819 803 822 l 803 815 q 776 750 796 769 q 788 703 788 731 l 788 692 q 785 679 788 688 l 786 682 q 706 596 775 596 q 672 603 682 596 q 676 571 676 588 l 676 558 q 675 547 676 553 l 675 549 q 649 483 669 506 q 660 438 660 465 q 658 419 660 425 q 669 378 667 406 l 672 378 q 739 303 739 378 l 739 296 q 738 288 738 290 l 738 283 q 711 217 731 239 q 722 169 722 199 l 722 163 q 721 154 721 157 l 721 150 q 640 63 710 63 q 607 69 617 63 q 611 39 611 54 l 611 26 q 610 15 611 21 m 432 306 q 428 338 428 319 q 389 329 411 329 q 354 336 367 329 q 358 304 358 321 q 396 314 374 314 q 432 306 417 314 m 481 706 q 476 736 476 719 q 438 728 460 728 q 403 735 415 728 q 407 704 407 722 q 446 714 422 714 q 481 706 465 714 z "},"9":{"ha":667,"x_min":79,"x_max":804,"o":"m 322 90 q 286 153 331 153 q 233 90 242 153 q 269 26 225 26 q 322 90 314 26 m 417 90 q 381 153 425 153 q 328 90 336 153 q 364 26 319 26 q 417 90 408 26 m 339 224 q 301 286 346 286 q 250 224 257 286 q 286 160 243 160 q 339 224 332 160 m 433 224 q 396 286 440 286 q 344 224 351 286 q 381 160 338 160 q 433 224 426 160 m 275 489 q 239 553 283 553 q 186 489 194 553 q 224 426 179 426 q 275 489 268 426 m 529 224 q 492 286 536 286 q 440 224 447 286 q 476 160 433 160 q 529 224 522 160 m 197 622 q 161 686 206 686 q 108 622 117 686 q 144 560 100 560 q 197 622 189 560 m 371 489 q 335 553 379 553 q 282 489 290 553 q 319 426 275 426 q 371 489 364 426 m 292 622 q 256 686 300 686 q 203 622 211 686 q 239 560 194 560 q 292 622 283 560 m 546 357 q 508 419 553 419 q 457 357 464 419 q 493 293 450 293 q 546 357 539 293 m 214 756 q 176 819 222 819 q 125 756 133 819 q 161 693 117 693 q 214 756 206 693 m 465 489 q 429 553 474 553 q 376 489 385 553 q 414 426 369 426 q 465 489 458 426 m 388 622 q 351 686 396 686 q 299 622 307 686 q 335 560 290 560 q 388 622 379 560 m 640 357 q 603 419 647 419 q 551 357 558 419 q 588 293 544 293 q 640 357 633 293 m 308 756 q 271 819 317 819 q 219 756 228 819 q 256 693 211 693 q 308 756 300 693 m 561 489 q 525 553 569 553 q 472 489 481 553 q 510 426 465 426 q 561 489 554 426 m 231 889 q 193 953 238 953 q 142 889 149 953 q 178 825 135 825 q 231 889 224 825 m 482 622 q 446 686 490 686 q 393 622 401 686 q 429 560 385 560 q 482 622 474 560 m 656 489 q 619 553 664 553 q 567 489 575 553 q 604 426 560 426 q 656 489 649 426 m 325 889 q 288 953 332 953 q 236 889 243 953 q 272 825 229 825 q 325 889 318 825 m 578 622 q 542 686 586 686 q 489 622 497 686 q 525 560 481 560 q 578 622 569 560 m 421 889 q 383 953 428 953 q 332 889 339 953 q 368 825 325 825 q 421 889 414 825 m 672 622 q 636 686 681 686 q 583 622 592 686 q 619 560 575 560 q 672 622 664 560 m 340 1022 q 304 1086 347 1086 q 251 1022 258 1086 q 289 958 244 958 q 340 1022 333 958 m 594 756 q 557 819 603 819 q 506 756 514 819 q 542 693 497 693 q 594 756 586 693 m 515 889 q 478 953 522 953 q 426 889 433 953 q 463 825 419 825 q 515 889 508 825 m 436 1022 q 400 1086 443 1086 q 347 1022 354 1086 q 385 958 340 958 q 436 1022 429 958 m 689 756 q 651 819 697 819 q 600 756 608 819 q 636 693 592 693 q 689 756 681 693 m 611 889 q 574 953 618 953 q 522 889 529 953 q 558 825 515 825 q 611 889 604 825 m 531 1022 q 494 1086 538 1086 q 442 1022 449 1086 q 479 958 435 958 q 531 1022 524 958 m 706 889 q 668 953 713 953 q 617 889 624 953 q 653 825 610 825 q 706 889 699 825 m 626 1022 q 590 1086 633 1086 q 538 1022 544 1086 q 575 958 531 958 q 626 1022 619 958 m 514 15 l 514 17 q 433 -71 503 -71 q 386 -54 403 -71 q 339 -71 367 -71 q 274 -1 276 -71 l 269 -1 q 204 72 204 -1 l 204 85 q 206 96 204 90 l 206 94 q 231 158 210 138 q 221 206 221 176 l 221 218 q 222 229 221 224 l 222 226 q 301 314 231 314 q 349 297 332 314 q 396 314 367 314 q 432 306 417 314 q 428 338 428 319 q 389 329 411 329 q 342 344 357 329 q 293 329 322 329 q 226 399 228 329 l 224 399 q 157 474 157 399 q 158 481 157 476 l 158 489 q 149 532 149 504 l 144 532 q 79 604 79 532 l 79 617 q 81 628 79 622 l 81 626 q 106 692 85 671 q 96 738 96 710 l 96 750 q 97 761 96 756 l 97 760 q 122 825 101 804 q 113 871 113 843 l 113 883 q 114 894 113 889 l 114 892 q 193 981 122 981 q 225 974 211 981 q 222 989 222 981 l 222 1007 q 224 1017 222 1011 l 224 1026 q 304 1114 233 1114 q 350 1097 333 1114 q 400 1114 368 1114 q 446 1097 429 1114 q 494 1114 464 1114 q 540 1097 524 1114 q 590 1114 558 1114 q 656 1044 653 1114 l 660 1044 q 725 971 725 1044 q 724 953 725 958 q 735 911 732 939 l 738 911 q 804 835 804 911 l 804 828 q 803 819 803 822 l 803 815 q 776 750 796 769 q 788 703 788 731 l 788 692 q 785 679 788 688 l 786 682 q 760 617 781 639 q 771 571 771 599 l 771 558 q 769 547 771 553 l 769 549 q 743 483 764 506 q 754 438 754 465 l 754 425 q 753 414 754 419 l 753 417 q 728 350 749 372 q 739 303 739 332 l 739 296 q 738 288 738 290 l 738 283 q 657 196 726 196 q 624 203 633 196 q 628 169 628 188 l 628 163 q 626 154 626 157 l 626 150 q 546 63 615 63 q 511 69 528 63 q 515 39 515 57 l 515 26 q 514 15 515 21 m 481 706 q 476 736 476 719 q 438 728 460 728 q 403 735 415 728 q 407 704 407 722 q 446 714 422 714 q 481 706 465 714 z "}," ":{"ha":694,"x_min":0,"x_max":0,"o":""},"!":{"ha":294,"x_min":14,"x_max":439,"o":"m 132 90 q 96 153 140 153 q 43 90 51 153 q 79 26 35 26 q 132 90 124 26 m 226 90 q 190 153 235 153 q 138 90 146 153 q 174 26 129 26 q 226 90 218 26 m 149 224 q 111 286 156 286 q 60 224 67 286 q 96 160 53 160 q 149 224 142 160 m 243 224 q 206 286 250 286 q 154 224 161 286 q 190 160 147 160 q 243 224 236 160 m 324 15 l 324 17 q 243 -71 313 -71 q 196 -54 213 -71 q 149 -71 176 -71 q 83 -1 86 -71 l 79 -1 q 14 72 14 -1 l 14 85 q 15 96 14 90 l 15 94 q 40 158 19 138 q 31 206 31 176 l 31 218 q 32 229 31 224 l 32 226 q 111 314 40 314 q 158 297 142 314 q 206 314 176 314 q 272 244 271 314 l 275 244 q 342 169 342 244 l 342 163 q 340 154 340 157 l 340 150 q 314 85 333 104 q 325 39 325 65 l 325 26 q 324 15 325 21 m 181 489 q 144 553 189 553 q 92 489 100 553 q 129 426 85 426 q 181 489 174 426 m 275 489 q 239 553 283 553 q 186 489 194 553 q 224 426 179 426 q 275 489 268 426 m 197 622 q 161 686 206 686 q 108 622 117 686 q 144 560 100 560 q 197 622 189 560 m 292 622 q 256 686 300 686 q 203 622 211 686 q 239 560 194 560 q 292 622 283 560 m 214 756 q 176 819 222 819 q 125 756 133 819 q 161 693 117 693 q 214 756 206 693 m 308 756 q 271 819 317 819 q 219 756 228 819 q 256 693 211 693 q 308 756 300 693 m 231 889 q 193 953 238 953 q 142 889 149 953 q 178 825 135 825 q 231 889 224 825 m 325 889 q 288 953 332 953 q 236 889 243 953 q 272 825 229 825 q 325 889 318 825 m 246 1022 q 210 1086 253 1086 q 157 1022 164 1086 q 194 958 150 958 q 246 1022 239 958 m 340 1022 q 304 1086 347 1086 q 251 1022 258 1086 q 289 958 244 958 q 340 1022 333 958 m 372 414 l 372 417 q 293 329 364 329 q 246 344 261 329 q 199 329 229 329 q 132 399 133 329 l 129 399 q 63 474 63 399 q 64 483 63 478 l 64 493 q 89 558 68 538 q 79 604 79 576 l 79 617 q 81 628 79 622 l 81 626 q 106 692 85 671 q 96 738 96 710 l 96 750 q 97 761 96 756 l 97 760 q 122 825 101 804 q 113 871 113 843 l 113 883 q 114 894 113 889 l 114 892 q 138 957 118 935 q 128 1007 128 975 q 129 1017 128 1011 l 129 1026 q 210 1114 139 1114 q 256 1097 239 1114 q 304 1114 274 1114 q 369 1044 367 1114 l 374 1044 q 439 971 439 1044 l 439 958 q 438 947 439 953 l 438 950 q 413 883 433 906 q 424 835 424 865 l 424 828 q 422 819 422 822 l 422 815 q 396 750 415 769 q 407 703 407 731 l 407 692 q 404 679 407 688 l 406 682 q 379 617 400 639 q 390 571 390 599 l 390 558 q 389 547 390 553 l 389 549 q 363 483 383 506 q 374 438 374 465 l 374 425 q 372 414 374 419 z "},"\"":{"ha":588,"x_min":113,"x_max":725,"o":"m 308 756 q 271 819 317 819 q 219 756 228 819 q 256 693 211 693 q 308 756 300 693 m 231 889 q 193 953 238 953 q 142 889 149 953 q 178 825 135 825 q 231 889 224 825 m 325 889 q 288 953 332 953 q 236 889 243 953 q 272 825 229 825 q 325 889 318 825 m 246 1022 q 210 1086 253 1086 q 157 1022 164 1086 q 194 958 150 958 q 246 1022 239 958 m 340 1022 q 304 1086 347 1086 q 251 1022 258 1086 q 289 958 244 958 q 340 1022 333 958 m 594 756 q 557 819 603 819 q 506 756 514 819 q 542 693 497 693 q 594 756 586 693 m 515 889 q 478 953 522 953 q 426 889 433 953 q 463 825 419 825 q 515 889 508 825 m 611 889 q 574 953 618 953 q 522 889 529 953 q 558 825 515 825 q 611 889 604 825 m 531 1022 q 494 1086 538 1086 q 442 1022 449 1086 q 479 958 435 958 q 531 1022 524 958 m 626 1022 q 590 1086 633 1086 q 538 1022 544 1086 q 575 958 531 958 q 626 1022 619 958 m 404 679 l 406 682 q 325 596 394 596 q 260 665 260 596 l 256 665 q 190 738 190 665 l 190 757 q 182 797 182 771 l 178 797 q 113 871 113 797 l 113 883 q 114 894 113 889 l 114 892 q 138 957 118 935 q 128 1007 128 975 q 129 1017 128 1011 l 129 1026 q 210 1114 139 1114 q 256 1097 239 1114 q 304 1114 274 1114 q 369 1044 367 1114 l 374 1044 q 415 1032 399 1044 q 494 1114 428 1114 q 540 1097 524 1114 q 590 1114 558 1114 q 656 1044 653 1114 l 660 1044 q 725 971 725 1044 l 725 958 q 724 947 725 953 l 724 950 q 699 883 719 906 q 710 835 710 865 l 710 828 q 708 819 708 822 l 708 815 q 682 750 701 769 q 693 703 693 731 l 693 692 q 690 679 693 688 l 692 682 q 611 596 681 596 q 546 665 546 596 l 542 665 q 488 689 501 665 q 476 746 483 696 q 476 754 475 750 q 467 797 467 769 l 463 797 q 421 808 436 797 q 396 750 414 768 q 407 703 407 731 l 407 692 q 404 679 407 688 z "},"#":{"ha":579,"x_min":63,"x_max":693,"o":"m 260 357 q 222 419 267 419 q 171 357 178 419 q 207 293 164 293 q 260 357 253 293 m 181 489 q 144 553 189 553 q 92 489 100 553 q 129 426 85 426 q 181 489 174 426 m 275 489 q 239 553 283 553 q 186 489 194 553 q 224 426 179 426 q 275 489 268 426 m 450 357 q 413 419 457 419 q 361 357 368 419 q 397 293 354 293 q 450 357 443 293 m 371 489 q 335 553 379 553 q 282 489 290 553 q 319 426 275 426 q 371 489 364 426 m 292 622 q 256 686 300 686 q 203 622 211 686 q 239 560 194 560 q 292 622 283 560 m 214 756 q 176 819 222 819 q 125 756 133 819 q 161 693 117 693 q 214 756 206 693 m 465 489 q 429 553 474 553 q 376 489 385 553 q 414 426 369 426 q 465 489 458 426 m 308 756 q 271 819 317 819 q 219 756 228 819 q 256 693 211 693 q 308 756 300 693 m 561 489 q 525 553 569 553 q 472 489 481 553 q 510 426 465 426 q 561 489 554 426 m 482 622 q 446 686 490 686 q 393 622 401 686 q 429 560 385 560 q 482 622 474 560 m 404 756 q 367 819 413 819 q 315 756 324 819 q 351 693 307 693 q 404 756 396 693 m 325 889 q 288 953 332 953 q 236 889 243 953 q 272 825 229 825 q 325 889 318 825 m 499 756 q 461 819 507 819 q 410 756 418 819 q 446 693 401 693 q 499 756 490 693 m 594 756 q 557 819 603 819 q 506 756 514 819 q 542 693 497 693 q 594 756 586 693 m 515 889 q 478 953 522 953 q 426 889 433 953 q 463 825 419 825 q 515 889 508 825 m 547 288 l 547 283 q 467 196 536 196 q 401 265 404 196 l 397 265 q 356 276 371 265 q 276 196 343 196 q 211 265 214 196 l 207 265 q 142 339 142 265 l 142 357 q 132 399 132 374 l 129 399 q 63 474 63 399 q 64 483 63 478 l 64 493 q 144 581 74 581 q 178 574 161 581 q 174 604 174 586 l 174 624 q 165 665 165 640 l 161 665 q 96 738 96 665 l 96 750 q 97 761 96 756 l 97 760 q 176 847 107 847 q 210 840 193 847 q 207 854 207 847 l 207 883 q 208 894 207 889 l 208 892 q 288 981 217 981 q 354 911 350 981 l 357 911 q 399 899 383 911 q 478 981 410 981 q 544 911 540 981 l 547 911 q 614 835 614 911 l 614 828 q 613 821 613 824 q 624 778 621 807 l 626 778 q 693 703 693 778 l 693 692 q 690 679 693 688 l 692 682 q 611 596 681 596 q 576 603 593 596 q 581 571 581 590 l 581 553 q 590 511 588 538 l 594 511 q 660 438 660 511 l 660 425 q 658 414 660 419 l 658 417 q 579 329 650 329 q 544 336 557 329 q 549 303 549 321 l 549 296 q 547 288 547 290 z "},"'":{"ha":303,"x_min":113,"x_max":439,"o":"m 308 756 q 271 819 317 819 q 219 756 228 819 q 256 693 211 693 q 308 756 300 693 m 231 889 q 193 953 238 953 q 142 889 149 953 q 178 825 135 825 q 231 889 224 825 m 325 889 q 288 953 332 953 q 236 889 243 953 q 272 825 229 825 q 325 889 318 825 m 246 1022 q 210 1086 253 1086 q 157 1022 164 1086 q 194 958 150 958 q 246 1022 239 958 m 340 1022 q 304 1086 347 1086 q 251 1022 258 1086 q 289 958 244 958 q 340 1022 333 958 m 404 679 l 406 682 q 325 596 394 596 q 260 665 260 596 l 256 665 q 190 738 190 665 l 190 757 q 182 797 182 771 l 178 797 q 113 871 113 797 l 113 883 q 114 894 113 889 l 114 892 q 138 957 118 935 q 128 1007 128 975 q 129 1017 128 1011 l 129 1026 q 210 1114 139 1114 q 256 1097 239 1114 q 304 1114 274 1114 q 369 1044 367 1114 l 374 1044 q 439 971 439 1044 l 439 958 q 438 947 439 953 l 438 950 q 413 883 433 906 q 424 835 424 865 l 424 828 q 422 819 422 822 l 422 815 q 396 750 415 769 q 407 703 407 731 l 407 692 q 404 679 407 688 z "},"(":{"ha":463,"x_min":47,"x_max":629,"o":"m 322 90 q 286 153 331 153 q 233 90 242 153 q 269 26 225 26 q 322 90 314 26 m 243 224 q 206 286 250 286 q 154 224 161 286 q 190 160 147 160 q 243 224 236 160 m 165 357 q 128 419 172 419 q 76 357 83 419 q 113 293 69 293 q 165 357 158 293 m 417 90 q 381 153 425 153 q 328 90 336 153 q 364 26 319 26 q 417 90 408 26 m 339 224 q 301 286 346 286 q 250 224 257 286 q 286 160 243 160 q 339 224 332 160 m 260 357 q 222 419 267 419 q 171 357 178 419 q 207 293 164 293 q 260 357 253 293 m 181 489 q 144 553 189 553 q 92 489 100 553 q 129 426 85 426 q 181 489 174 426 m 275 489 q 239 553 283 553 q 186 489 194 553 q 224 426 179 426 q 275 489 268 426 m 197 622 q 161 686 206 686 q 108 622 117 686 q 144 560 100 560 q 197 622 189 560 m 292 622 q 256 686 300 686 q 203 622 211 686 q 239 560 194 560 q 292 622 283 560 m 214 756 q 176 819 222 819 q 125 756 133 819 q 161 693 117 693 q 214 756 206 693 m 308 756 q 271 819 317 819 q 219 756 228 819 q 256 693 211 693 q 308 756 300 693 m 325 889 q 288 953 332 953 q 236 889 243 953 q 272 825 229 825 q 325 889 318 825 m 421 889 q 383 953 428 953 q 332 889 339 953 q 368 825 325 825 q 421 889 414 825 m 436 1022 q 400 1086 443 1086 q 347 1022 354 1086 q 385 958 340 958 q 436 1022 429 958 m 531 1022 q 494 1086 538 1086 q 442 1022 449 1086 q 479 958 435 958 q 531 1022 524 958 m 514 15 l 514 17 q 433 -71 503 -71 q 386 -54 403 -71 q 339 -71 367 -71 q 274 -1 276 -71 l 269 -1 q 215 24 229 -1 q 204 81 211 31 q 204 89 203 85 q 194 132 194 104 l 190 132 q 125 206 125 132 l 125 225 q 117 265 117 239 l 113 265 q 47 339 47 265 l 47 351 q 49 363 47 357 l 49 360 q 74 425 53 404 q 63 474 63 444 q 64 483 63 478 l 64 493 q 89 558 68 538 q 79 604 79 576 l 79 617 q 81 628 79 622 l 81 626 q 106 692 85 671 q 96 738 96 710 l 96 750 q 97 761 96 756 l 97 760 q 176 847 107 847 q 210 840 193 847 q 207 854 207 847 l 207 883 q 208 894 207 889 l 208 892 q 288 981 217 981 q 322 974 306 981 q 318 1007 318 988 q 319 1017 318 1011 l 319 1026 q 400 1114 329 1114 q 446 1097 429 1114 q 494 1114 464 1114 q 560 1044 557 1114 l 564 1044 q 629 971 629 1044 l 629 958 q 628 947 629 953 l 628 950 q 549 861 619 861 q 515 867 528 861 q 519 835 519 854 l 519 828 q 518 819 518 822 l 518 815 q 438 728 507 728 q 403 735 415 728 q 407 703 407 719 l 407 692 q 404 679 407 688 l 406 682 q 379 617 400 639 q 390 571 390 599 l 390 558 q 389 547 390 553 l 389 549 q 363 483 383 506 q 374 438 374 465 l 374 425 q 372 414 374 419 l 372 417 q 347 350 368 372 q 358 303 358 332 l 358 296 q 357 288 357 290 q 368 244 365 274 l 371 244 q 438 169 438 244 l 438 163 q 436 154 436 157 l 436 153 q 446 111 446 133 l 450 111 q 515 39 515 111 l 515 26 q 514 15 515 21 z "},")":{"ha":471,"x_min":14,"x_max":597,"o":"m 132 90 q 96 153 140 153 q 43 90 51 153 q 79 26 35 26 q 132 90 124 26 m 226 90 q 190 153 235 153 q 138 90 146 153 q 174 26 129 26 q 226 90 218 26 m 243 224 q 206 286 250 286 q 154 224 161 286 q 190 160 147 160 q 243 224 236 160 m 339 224 q 301 286 346 286 q 250 224 257 286 q 286 160 243 160 q 339 224 332 160 m 356 357 q 318 419 363 419 q 267 357 274 419 q 303 293 260 293 q 356 357 349 293 m 450 357 q 413 419 457 419 q 361 357 368 419 q 397 293 354 293 q 450 357 443 293 m 371 489 q 335 553 379 553 q 282 489 290 553 q 319 426 275 426 q 371 489 364 426 m 465 489 q 429 553 474 553 q 376 489 385 553 q 414 426 369 426 q 465 489 458 426 m 388 622 q 351 686 396 686 q 299 622 307 686 q 335 560 290 560 q 388 622 379 560 m 482 622 q 446 686 490 686 q 393 622 401 686 q 429 560 385 560 q 482 622 474 560 m 404 756 q 367 819 413 819 q 315 756 324 819 q 351 693 307 693 q 404 756 396 693 m 325 889 q 288 953 332 953 q 236 889 243 953 q 272 825 229 825 q 325 889 318 825 m 246 1022 q 210 1086 253 1086 q 157 1022 164 1086 q 194 958 150 958 q 246 1022 239 958 m 499 756 q 461 819 507 819 q 410 756 418 819 q 446 693 401 693 q 499 756 490 693 m 421 889 q 383 953 428 953 q 332 889 339 953 q 368 825 325 825 q 421 889 414 825 m 340 1022 q 304 1086 347 1086 q 251 1022 258 1086 q 289 958 244 958 q 340 1022 333 958 m 324 15 l 324 17 q 243 -71 313 -71 q 196 -54 213 -71 q 149 -71 176 -71 q 83 -1 86 -71 l 79 -1 q 14 72 14 -1 l 14 85 q 15 96 14 90 l 15 94 q 96 181 26 181 q 129 174 113 181 q 125 206 125 186 l 125 218 q 126 229 125 224 l 126 226 q 206 314 135 314 q 242 306 226 314 q 238 339 238 319 l 238 351 q 239 363 238 357 l 239 360 q 264 425 243 404 q 253 474 253 444 q 254 483 253 478 l 254 493 q 279 558 258 538 q 269 604 269 576 l 269 617 q 271 628 269 622 l 271 626 q 296 692 275 671 q 286 746 294 696 q 286 754 285 750 q 276 797 276 769 l 272 797 q 207 871 207 797 l 207 889 q 197 931 197 906 l 194 931 q 128 1007 128 931 q 129 1017 128 1011 l 129 1026 q 210 1114 139 1114 q 256 1097 239 1114 q 304 1114 274 1114 q 369 1044 367 1114 l 374 1044 q 439 971 439 1044 l 439 954 q 450 911 449 936 l 453 911 q 519 835 519 911 l 519 828 q 518 819 518 822 l 518 818 q 528 778 525 806 l 531 778 q 597 703 597 778 l 597 692 q 594 679 597 688 l 596 682 q 569 617 590 639 q 581 571 581 599 l 581 558 q 579 547 581 553 l 579 549 q 553 483 574 506 q 564 438 564 465 l 564 425 q 563 414 564 419 l 563 417 q 538 350 558 372 q 549 303 549 332 l 549 296 q 547 288 547 290 l 547 283 q 467 196 536 196 q 433 203 443 196 q 438 169 438 188 l 438 163 q 436 154 436 157 l 436 150 q 356 63 425 63 q 321 69 338 63 q 325 39 325 57 l 325 26 q 324 15 325 21 z "},"*":{"ha":571,"x_min":142,"x_max":693,"o":"m 260 357 q 222 419 267 419 q 171 357 178 419 q 207 293 164 293 q 260 357 253 293 m 371 489 q 335 553 379 553 q 282 489 290 553 q 319 426 275 426 q 371 489 364 426 m 546 357 q 508 419 553 419 q 457 357 464 419 q 493 293 450 293 q 546 357 539 293 m 465 489 q 429 553 474 553 q 376 489 385 553 q 414 426 369 426 q 465 489 458 426 m 388 622 q 351 686 396 686 q 299 622 307 686 q 335 560 290 560 q 388 622 379 560 m 308 756 q 271 819 317 819 q 219 756 228 819 q 256 693 211 693 q 308 756 300 693 m 482 622 q 446 686 490 686 q 393 622 401 686 q 429 560 385 560 q 482 622 474 560 m 594 756 q 557 819 603 819 q 506 756 514 819 q 542 693 497 693 q 594 756 586 693 m 357 288 l 357 283 q 276 196 346 196 q 211 265 214 196 l 207 265 q 142 339 142 265 l 142 351 q 143 363 142 357 l 143 360 q 222 447 151 447 q 257 440 240 447 q 253 474 253 454 q 254 483 253 478 l 254 493 q 279 558 258 538 q 269 604 269 576 l 269 622 q 260 665 260 642 l 256 665 q 190 738 190 665 l 190 750 q 192 761 190 756 l 192 760 q 271 847 201 847 q 338 778 336 847 l 340 778 q 407 704 406 778 q 446 714 422 714 q 481 706 465 714 q 476 738 476 719 l 476 750 q 478 761 476 756 l 478 760 q 557 847 488 847 q 624 778 622 847 l 626 778 q 693 703 693 778 l 693 692 q 690 679 693 688 l 692 682 q 611 596 681 596 q 576 603 593 596 q 581 571 581 590 l 581 558 q 579 547 581 553 l 579 549 q 553 483 574 506 q 564 438 564 465 l 564 421 q 575 378 572 407 l 578 378 q 644 303 644 378 l 644 296 q 643 288 643 290 l 643 283 q 563 196 632 196 q 497 265 500 196 l 493 265 q 428 338 428 265 q 389 329 411 329 q 354 336 367 329 q 358 303 358 321 l 358 296 q 357 288 357 290 m 542 665 q 507 672 524 665 q 511 644 511 660 l 515 644 q 550 636 535 644 q 546 665 546 649 l 542 665 m 319 399 q 285 406 297 399 q 289 378 286 396 l 292 378 q 326 371 310 378 q 322 399 322 383 l 319 399 z "},"+":{"ha":656,"x_min":63,"x_max":771,"o":"m 339 224 q 301 286 346 286 q 250 224 257 286 q 286 160 243 160 q 339 224 332 160 m 181 489 q 144 553 189 553 q 92 489 100 553 q 129 426 85 426 q 181 489 174 426 m 433 224 q 396 286 440 286 q 344 224 351 286 q 381 160 338 160 q 433 224 426 160 m 356 357 q 318 419 363 419 q 267 357 274 419 q 303 293 260 293 q 356 357 349 293 m 275 489 q 239 553 283 553 q 186 489 194 553 q 224 426 179 426 q 275 489 268 426 m 197 622 q 161 686 206 686 q 108 622 117 686 q 144 560 100 560 q 197 622 189 560 m 450 357 q 413 419 457 419 q 361 357 368 419 q 397 293 354 293 q 450 357 443 293 m 371 489 q 335 553 379 553 q 282 489 290 553 q 319 426 275 426 q 371 489 364 426 m 292 622 q 256 686 300 686 q 203 622 211 686 q 239 560 194 560 q 292 622 283 560 m 465 489 q 429 553 474 553 q 376 489 385 553 q 414 426 369 426 q 465 489 458 426 m 388 622 q 351 686 396 686 q 299 622 307 686 q 335 560 290 560 q 388 622 379 560 m 561 489 q 525 553 569 553 q 472 489 481 553 q 510 426 465 426 q 561 489 554 426 m 482 622 q 446 686 490 686 q 393 622 401 686 q 429 560 385 560 q 482 622 474 560 m 404 756 q 367 819 413 819 q 315 756 324 819 q 351 693 307 693 q 404 756 396 693 m 656 489 q 619 553 664 553 q 567 489 575 553 q 604 426 560 426 q 656 489 649 426 m 578 622 q 542 686 586 686 q 489 622 497 686 q 525 560 481 560 q 578 622 569 560 m 499 756 q 461 819 507 819 q 410 756 418 819 q 446 693 401 693 q 499 756 490 693 m 421 889 q 383 953 428 953 q 332 889 339 953 q 368 825 325 825 q 421 889 414 825 m 672 622 q 636 686 681 686 q 583 622 592 686 q 619 560 575 560 q 672 622 664 560 m 515 889 q 478 953 522 953 q 426 889 433 953 q 463 825 419 825 q 515 889 508 825 m 531 154 l 531 150 q 450 63 519 63 q 403 78 421 63 q 356 63 383 63 q 290 132 293 63 l 286 132 q 221 206 221 132 l 221 218 q 222 229 221 224 l 222 226 q 247 292 226 271 q 238 338 238 310 q 199 329 221 329 q 132 399 133 329 l 129 399 q 63 474 63 399 q 64 483 63 478 l 64 493 q 89 558 68 538 q 79 604 79 576 l 79 617 q 81 628 79 622 l 81 626 q 161 714 90 714 q 207 697 190 714 q 256 714 225 714 q 290 706 275 714 q 286 738 286 719 l 286 750 q 288 761 286 756 l 288 760 q 313 825 292 804 q 303 871 303 843 l 303 883 q 304 894 303 889 l 304 892 q 383 981 313 981 q 429 964 413 981 q 478 981 447 981 q 544 911 540 981 l 547 911 q 614 835 614 911 l 614 828 q 613 819 613 822 l 613 815 q 586 750 606 769 q 597 704 597 732 q 636 714 613 714 q 701 644 699 714 l 706 644 q 771 571 771 644 l 771 558 q 769 547 771 553 l 769 549 q 743 483 764 506 q 754 438 754 465 l 754 425 q 753 414 754 419 l 753 417 q 674 329 744 329 q 626 344 642 329 q 579 329 610 329 q 544 336 557 329 q 549 303 549 321 l 549 296 q 547 288 547 290 l 547 283 q 521 217 540 239 q 532 169 532 199 l 532 163 q 531 154 531 157 z "},",":{"ha":317,"x_min":14,"x_max":342,"o":"m 210 -42 q 174 21 217 21 q 121 -42 128 21 q 158 -106 114 -106 q 210 -42 203 -106 m 132 90 q 96 153 140 153 q 43 90 51 153 q 79 26 35 26 q 132 90 124 26 m 226 90 q 190 153 235 153 q 138 90 146 153 q 174 26 129 26 q 226 90 218 26 m 149 224 q 111 286 156 286 q 60 224 67 286 q 96 160 53 160 q 149 224 142 160 m 243 224 q 206 286 250 286 q 154 224 161 286 q 190 160 147 160 q 243 224 236 160 m 307 -117 l 307 -114 q 228 -203 299 -203 q 161 -133 163 -203 l 158 -133 q 92 -57 92 -133 l 92 -50 q 93 -43 92 -46 q 83 -1 83 -28 l 79 -1 q 14 72 14 -1 l 14 85 q 15 96 14 90 l 15 94 q 40 158 19 138 q 31 206 31 176 l 31 218 q 32 229 31 224 l 32 226 q 111 314 40 314 q 158 297 142 314 q 206 314 176 314 q 272 244 271 314 l 275 244 q 342 169 342 244 l 342 163 q 340 154 340 157 l 340 150 q 314 85 333 104 q 325 39 325 65 l 325 26 q 324 15 325 21 l 324 17 q 299 -49 317 -26 q 308 -93 308 -68 l 308 -106 q 307 -117 308 -111 z "},".":{"ha":317,"x_min":14,"x_max":342,"o":"m 132 90 q 96 153 140 153 q 43 90 51 153 q 79 26 35 26 q 132 90 124 26 m 226 90 q 190 153 235 153 q 138 90 146 153 q 174 26 129 26 q 226 90 218 26 m 149 224 q 111 286 156 286 q 60 224 67 286 q 96 160 53 160 q 149 224 142 160 m 243 224 q 206 286 250 286 q 154 224 161 286 q 190 160 147 160 q 243 224 236 160 m 324 15 l 324 17 q 243 -71 313 -71 q 196 -54 213 -71 q 149 -71 176 -71 q 83 -1 86 -71 l 79 -1 q 14 72 14 -1 l 14 85 q 15 96 14 90 l 15 94 q 40 158 19 138 q 31 206 31 176 l 31 218 q 32 229 31 224 l 32 226 q 111 314 40 314 q 158 297 142 314 q 206 314 176 314 q 272 244 271 314 l 275 244 q 342 169 342 244 l 342 163 q 340 154 340 157 l 340 150 q 314 85 333 104 q 325 39 325 65 l 325 26 q 324 15 325 21 z "},"/":{"ha":568,"x_min":14,"x_max":725,"o":"m 132 90 q 96 153 140 153 q 43 90 51 153 q 79 26 35 26 q 132 90 124 26 m 226 90 q 190 153 235 153 q 138 90 146 153 q 174 26 129 26 q 226 90 218 26 m 149 224 q 111 286 156 286 q 60 224 67 286 q 96 160 53 160 q 149 224 142 160 m 243 224 q 206 286 250 286 q 154 224 161 286 q 190 160 147 160 q 243 224 236 160 m 260 357 q 222 419 267 419 q 171 357 178 419 q 207 293 164 293 q 260 357 253 293 m 356 357 q 318 419 363 419 q 267 357 274 419 q 303 293 260 293 q 356 357 349 293 m 275 489 q 239 553 283 553 q 186 489 194 553 q 224 426 179 426 q 275 489 268 426 m 371 489 q 335 553 379 553 q 282 489 290 553 q 319 426 275 426 q 371 489 364 426 m 388 622 q 351 686 396 686 q 299 622 307 686 q 335 560 290 560 q 388 622 379 560 m 482 622 q 446 686 490 686 q 393 622 401 686 q 429 560 385 560 q 482 622 474 560 m 404 756 q 367 819 413 819 q 315 756 324 819 q 351 693 307 693 q 404 756 396 693 m 499 756 q 461 819 507 819 q 410 756 418 819 q 446 693 401 693 q 499 756 490 693 m 515 889 q 478 953 522 953 q 426 889 433 953 q 463 825 419 825 q 515 889 508 825 m 611 889 q 574 953 618 953 q 522 889 529 953 q 558 825 515 825 q 611 889 604 825 m 531 1022 q 494 1086 538 1086 q 442 1022 449 1086 q 479 958 435 958 q 531 1022 524 958 m 626 1022 q 590 1086 633 1086 q 538 1022 544 1086 q 575 958 531 958 q 626 1022 619 958 m 324 15 l 324 17 q 243 -71 313 -71 q 196 -54 213 -71 q 149 -71 176 -71 q 83 -1 86 -71 l 79 -1 q 14 72 14 -1 l 14 85 q 15 96 14 90 l 15 94 q 40 158 19 138 q 31 206 31 176 l 31 218 q 32 229 31 224 l 32 226 q 111 314 40 314 q 146 307 129 314 q 142 339 142 319 l 142 351 q 143 363 142 357 l 143 360 q 168 425 147 404 q 157 474 157 444 q 158 483 157 478 l 158 493 q 239 581 168 581 q 274 572 258 581 q 269 604 269 586 l 269 617 q 271 628 269 622 l 271 626 q 296 692 275 671 q 286 738 286 710 l 286 750 q 288 761 286 756 l 288 760 q 367 847 297 847 q 400 840 383 847 q 397 854 397 847 l 397 883 q 399 894 397 889 l 399 892 q 422 957 403 935 q 413 1007 413 975 q 414 1017 413 1011 l 414 1026 q 494 1114 424 1114 q 540 1097 524 1114 q 590 1114 558 1114 q 656 1044 653 1114 l 660 1044 q 725 971 725 1044 l 725 958 q 724 947 725 953 l 724 950 q 699 883 719 906 q 710 835 710 865 l 710 828 q 708 819 708 822 l 708 815 q 628 728 697 728 q 593 735 606 728 q 597 703 597 719 l 597 692 q 594 679 597 688 l 596 682 q 569 617 590 639 q 581 571 581 599 l 581 558 q 579 547 581 553 l 579 549 q 499 463 568 463 q 465 469 475 463 q 469 438 469 454 l 469 425 q 468 414 469 419 l 468 417 q 443 350 464 372 q 454 303 454 332 l 454 296 q 453 288 453 290 l 453 283 q 372 196 442 196 q 338 203 354 196 q 342 169 342 188 l 342 163 q 340 154 340 157 l 340 150 q 314 85 333 104 q 325 39 325 65 l 325 26 q 324 15 325 21 z "},":":{"ha":485,"x_min":238,"x_max":614,"o":"m 356 357 q 318 419 363 419 q 267 357 274 419 q 303 293 260 293 q 356 357 349 293 m 450 357 q 413 419 457 419 q 361 357 368 419 q 397 293 354 293 q 450 357 443 293 m 371 489 q 335 553 379 553 q 282 489 290 553 q 319 426 275 426 q 371 489 364 426 m 465 489 q 429 553 474 553 q 376 489 385 553 q 414 426 369 426 q 465 489 458 426 m 547 288 l 547 283 q 467 196 536 196 q 419 211 438 196 q 372 196 400 196 q 307 265 310 196 l 303 265 q 238 339 238 265 l 238 351 q 239 363 238 357 l 239 360 q 264 425 243 404 q 253 474 253 444 q 254 483 253 478 l 254 493 q 335 581 264 581 q 381 564 364 581 q 429 581 399 581 q 494 511 492 581 l 499 511 q 564 438 564 511 l 564 425 q 563 414 564 419 l 563 417 q 538 350 558 372 q 549 303 549 332 l 549 296 q 547 288 547 290 m 404 756 q 367 819 413 819 q 315 756 324 819 q 351 693 307 693 q 404 756 396 693 m 499 756 q 461 819 507 819 q 410 756 418 819 q 446 693 401 693 q 499 756 490 693 m 421 889 q 383 953 428 953 q 332 889 339 953 q 368 825 325 825 q 421 889 414 825 m 515 889 q 478 953 522 953 q 426 889 433 953 q 463 825 419 825 q 515 889 508 825 m 594 679 l 596 682 q 515 596 585 596 q 469 611 485 596 q 421 596 453 596 q 356 665 356 596 l 351 665 q 286 738 286 665 l 286 750 q 288 761 286 756 l 288 760 q 313 825 292 804 q 303 871 303 843 l 303 883 q 304 894 303 889 l 304 892 q 383 981 313 981 q 429 964 413 981 q 478 981 447 981 q 544 911 540 981 l 547 911 q 614 835 614 911 l 614 828 q 613 819 613 822 l 613 815 q 586 750 606 769 q 597 703 597 731 l 597 692 q 594 679 597 688 z "},";":{"ha":483,"x_min":238,"x_max":614,"o":"m 433 224 q 396 286 440 286 q 344 224 351 286 q 381 160 338 160 q 433 224 426 160 m 356 357 q 318 419 363 419 q 267 357 274 419 q 303 293 260 293 q 356 357 349 293 m 450 357 q 413 419 457 419 q 361 357 368 419 q 397 293 354 293 q 450 357 443 293 m 371 489 q 335 553 379 553 q 282 489 290 553 q 319 426 275 426 q 371 489 364 426 m 465 489 q 429 553 474 553 q 376 489 385 553 q 414 426 369 426 q 465 489 458 426 m 531 154 l 531 150 q 450 63 519 63 q 385 132 388 63 l 381 132 q 315 206 315 132 l 315 225 q 307 265 307 239 l 303 265 q 238 339 238 265 l 238 351 q 239 363 238 357 l 239 360 q 264 425 243 404 q 253 474 253 444 q 254 483 253 478 l 254 493 q 335 581 264 581 q 381 564 364 581 q 429 581 399 581 q 494 511 492 581 l 499 511 q 564 438 564 511 l 564 425 q 563 414 564 419 l 563 417 q 538 350 558 372 q 549 303 549 332 l 549 296 q 547 288 547 290 l 547 283 q 521 217 540 239 q 532 169 532 199 l 532 163 q 531 154 531 157 m 404 756 q 367 819 413 819 q 315 756 324 819 q 351 693 307 693 q 404 756 396 693 m 499 756 q 461 819 507 819 q 410 756 418 819 q 446 693 401 693 q 499 756 490 693 m 421 889 q 383 953 428 953 q 332 889 339 953 q 368 825 325 825 q 421 889 414 825 m 515 889 q 478 953 522 953 q 426 889 433 953 q 463 825 419 825 q 515 889 508 825 m 594 679 l 596 682 q 515 596 585 596 q 469 611 485 596 q 421 596 453 596 q 356 665 356 596 l 351 665 q 286 738 286 665 l 286 750 q 288 761 286 756 l 288 760 q 313 825 292 804 q 303 871 303 843 l 303 883 q 304 894 303 889 l 304 892 q 383 981 313 981 q 429 964 413 981 q 478 981 447 981 q 544 911 540 981 l 547 911 q 614 835 614 911 l 614 828 q 613 819 613 822 l 613 815 q 586 750 606 769 q 597 703 597 731 l 597 692 q 594 679 597 688 z "},"<":{"ha":468,"x_min":63,"x_max":614,"o":"m 339 224 q 301 286 346 286 q 250 224 257 286 q 286 160 243 160 q 339 224 332 160 m 260 357 q 222 419 267 419 q 171 357 178 419 q 207 293 164 293 q 260 357 253 293 m 181 489 q 144 553 189 553 q 92 489 100 553 q 129 426 85 426 q 181 489 174 426 m 433 224 q 396 286 440 286 q 344 224 351 286 q 381 160 338 160 q 433 224 426 160 m 356 357 q 318 419 363 419 q 267 357 274 419 q 303 293 260 293 q 356 357 349 293 m 275 489 q 239 553 283 553 q 186 489 194 553 q 224 426 179 426 q 275 489 268 426 m 197 622 q 161 686 206 686 q 108 622 117 686 q 144 560 100 560 q 197 622 189 560 m 292 622 q 256 686 300 686 q 203 622 211 686 q 239 560 194 560 q 292 622 283 560 m 308 756 q 271 819 317 819 q 219 756 228 819 q 256 693 211 693 q 308 756 300 693 m 404 756 q 367 819 413 819 q 315 756 324 819 q 351 693 307 693 q 404 756 396 693 m 421 889 q 383 953 428 953 q 332 889 339 953 q 368 825 325 825 q 421 889 414 825 m 515 889 q 478 953 522 953 q 426 889 433 953 q 463 825 419 825 q 515 889 508 825 m 531 154 l 531 150 q 450 63 519 63 q 403 78 421 63 q 356 63 383 63 q 290 132 293 63 l 286 132 q 232 157 246 132 q 221 214 228 164 q 221 222 219 218 q 211 265 211 238 l 207 265 q 142 339 142 265 l 142 357 q 132 399 132 374 l 129 399 q 63 474 63 399 q 64 483 63 478 l 64 493 q 89 558 68 538 q 79 604 79 576 l 79 617 q 81 628 79 622 l 81 626 q 161 714 90 714 q 194 707 178 714 q 190 738 190 719 l 190 750 q 192 761 190 756 l 192 760 q 271 847 201 847 q 307 839 292 847 q 303 871 303 853 l 303 883 q 304 894 303 889 l 304 892 q 383 981 313 981 q 429 964 413 981 q 478 981 447 981 q 544 911 540 981 l 547 911 q 614 835 614 911 l 614 828 q 613 819 613 822 l 613 815 q 532 728 601 728 q 499 733 511 728 q 503 703 503 721 l 503 692 q 500 679 503 688 l 501 682 q 421 596 490 596 q 386 603 403 596 q 390 571 390 590 l 390 558 q 389 547 390 553 l 389 549 q 363 483 383 506 q 374 438 374 465 l 374 421 q 385 378 382 407 l 388 378 q 454 303 454 378 l 454 296 q 453 288 453 290 l 453 285 q 463 244 460 272 l 465 244 q 532 169 532 244 l 532 163 q 531 154 531 157 z "},"=":{"ha":569,"x_min":31,"x_max":693,"o":"m 149 224 q 111 286 156 286 q 60 224 67 286 q 96 160 53 160 q 149 224 142 160 m 243 224 q 206 286 250 286 q 154 224 161 286 q 190 160 147 160 q 243 224 236 160 m 165 357 q 128 419 172 419 q 76 357 83 419 q 113 293 69 293 q 165 357 158 293 m 339 224 q 301 286 346 286 q 250 224 257 286 q 286 160 243 160 q 339 224 332 160 m 260 357 q 222 419 267 419 q 171 357 178 419 q 207 293 164 293 q 260 357 253 293 m 433 224 q 396 286 440 286 q 344 224 351 286 q 381 160 338 160 q 433 224 426 160 m 356 357 q 318 419 363 419 q 267 357 274 419 q 303 293 260 293 q 356 357 349 293 m 529 224 q 492 286 536 286 q 440 224 447 286 q 476 160 433 160 q 529 224 522 160 m 450 357 q 413 419 457 419 q 361 357 368 419 q 397 293 354 293 q 450 357 443 293 m 546 357 q 508 419 553 419 q 457 357 464 419 q 493 293 450 293 q 546 357 539 293 m 626 154 l 626 150 q 546 63 615 63 q 499 78 517 63 q 450 63 482 63 q 403 78 421 63 q 356 63 383 63 q 308 78 326 63 q 260 63 292 63 q 213 78 231 63 q 165 63 193 63 q 100 132 103 63 l 96 132 q 31 206 31 132 l 31 218 q 32 229 31 224 l 32 226 q 57 292 36 271 q 47 339 47 310 l 47 351 q 49 363 47 357 l 49 360 q 128 447 57 447 q 175 431 158 447 q 222 447 193 447 q 269 431 253 447 q 318 447 288 447 q 365 431 349 447 q 413 447 383 447 q 460 431 443 447 q 508 447 478 447 q 575 378 574 447 l 578 378 q 644 303 644 378 l 644 296 q 643 288 643 290 l 643 283 q 617 217 636 239 q 628 169 628 199 l 628 163 q 626 154 626 157 m 197 622 q 161 686 206 686 q 108 622 117 686 q 144 560 100 560 q 197 622 189 560 m 292 622 q 256 686 300 686 q 203 622 211 686 q 239 560 194 560 q 292 622 283 560 m 214 756 q 176 819 222 819 q 125 756 133 819 q 161 693 117 693 q 214 756 206 693 m 388 622 q 351 686 396 686 q 299 622 307 686 q 335 560 290 560 q 388 622 379 560 m 308 756 q 271 819 317 819 q 219 756 228 819 q 256 693 211 693 q 308 756 300 693 m 482 622 q 446 686 490 686 q 393 622 401 686 q 429 560 385 560 q 482 622 474 560 m 404 756 q 367 819 413 819 q 315 756 324 819 q 351 693 307 693 q 404 756 396 693 m 578 622 q 542 686 586 686 q 489 622 497 686 q 525 560 481 560 q 578 622 569 560 m 499 756 q 461 819 507 819 q 410 756 418 819 q 446 693 401 693 q 499 756 490 693 m 594 756 q 557 819 603 819 q 506 756 514 819 q 542 693 497 693 q 594 756 586 693 m 675 547 l 675 549 q 594 463 664 463 q 547 478 565 463 q 499 463 531 463 q 453 478 468 463 q 404 463 436 463 q 357 478 375 463 q 308 463 340 463 q 263 478 278 463 q 214 463 246 463 q 149 532 149 463 l 144 532 q 79 604 79 532 l 79 617 q 81 628 79 622 l 81 626 q 106 692 85 671 q 96 738 96 710 l 96 750 q 97 761 96 756 l 97 760 q 176 847 107 847 q 222 832 204 847 q 271 847 242 847 q 318 831 301 847 q 367 847 336 847 q 413 832 394 847 q 461 847 432 847 q 508 831 492 847 q 557 847 526 847 q 624 778 622 847 l 626 778 q 693 703 693 778 l 693 692 q 690 679 693 688 l 692 682 q 665 617 686 639 q 676 571 676 599 l 676 558 q 675 547 676 553 z "},">":{"ha":486,"x_min":31,"x_max":581,"o":"m 149 224 q 111 286 156 286 q 60 224 67 286 q 96 160 53 160 q 149 224 142 160 m 243 224 q 206 286 250 286 q 154 224 161 286 q 190 160 147 160 q 243 224 236 160 m 260 357 q 222 419 267 419 q 171 357 178 419 q 207 293 164 293 q 260 357 253 293 m 356 357 q 318 419 363 419 q 267 357 274 419 q 303 293 260 293 q 356 357 349 293 m 371 489 q 335 553 379 553 q 282 489 290 553 q 319 426 275 426 q 371 489 364 426 m 465 489 q 429 553 474 553 q 376 489 385 553 q 414 426 369 426 q 465 489 458 426 m 388 622 q 351 686 396 686 q 299 622 307 686 q 335 560 290 560 q 388 622 379 560 m 308 756 q 271 819 317 819 q 219 756 228 819 q 256 693 211 693 q 308 756 300 693 m 231 889 q 193 953 238 953 q 142 889 149 953 q 178 825 135 825 q 231 889 224 825 m 482 622 q 446 686 490 686 q 393 622 401 686 q 429 560 385 560 q 482 622 474 560 m 404 756 q 367 819 413 819 q 315 756 324 819 q 351 693 307 693 q 404 756 396 693 m 325 889 q 288 953 332 953 q 236 889 243 953 q 272 825 229 825 q 325 889 318 825 m 340 154 l 340 150 q 260 63 329 63 q 213 78 231 63 q 165 63 193 63 q 100 132 103 63 l 96 132 q 31 206 31 132 l 31 218 q 32 229 31 224 l 32 226 q 111 314 40 314 q 146 307 129 314 q 142 339 142 319 l 142 351 q 143 363 142 357 l 143 360 q 222 447 151 447 q 257 440 240 447 q 253 474 253 454 q 254 483 253 478 l 254 493 q 279 558 258 538 q 269 604 269 576 l 269 622 q 260 665 260 642 l 256 665 q 190 738 190 665 l 190 757 q 182 797 182 771 l 178 797 q 113 871 113 797 l 113 883 q 114 894 113 889 l 114 892 q 193 981 122 981 q 239 964 222 981 q 288 981 257 981 q 354 911 350 981 l 357 911 q 424 835 424 911 l 424 828 q 422 821 422 824 q 433 778 431 807 l 436 778 q 503 703 503 778 q 501 685 503 692 q 511 644 508 672 l 515 644 q 581 571 581 644 l 581 558 q 579 547 581 553 l 579 549 q 553 483 574 506 q 564 438 564 465 l 564 425 q 563 414 564 419 l 563 417 q 483 329 554 329 q 450 335 461 329 q 454 303 454 322 l 454 296 q 453 288 453 290 l 453 283 q 372 196 442 196 q 338 203 354 196 q 342 169 342 188 l 342 163 q 340 154 340 157 z "},"?":{"ha":661,"x_min":96,"x_max":804,"o":"m 322 90 q 286 153 331 153 q 233 90 242 153 q 269 26 225 26 q 322 90 314 26 m 417 90 q 381 153 425 153 q 328 90 336 153 q 364 26 319 26 q 417 90 408 26 m 339 224 q 301 286 346 286 q 250 224 257 286 q 286 160 243 160 q 339 224 332 160 m 433 224 q 396 286 440 286 q 344 224 351 286 q 381 160 338 160 q 433 224 426 160 m 514 15 l 514 17 q 433 -71 503 -71 q 386 -54 403 -71 q 339 -71 367 -71 q 274 -1 276 -71 l 269 -1 q 204 72 204 -1 l 204 85 q 206 96 204 90 l 206 94 q 231 158 210 138 q 221 206 221 176 l 221 218 q 222 229 221 224 l 222 226 q 301 314 231 314 q 349 297 332 314 q 396 314 367 314 q 463 244 461 314 l 465 244 q 532 169 532 244 l 532 163 q 531 154 531 157 l 531 150 q 504 85 524 104 q 515 39 515 65 l 515 26 q 514 15 515 21 m 371 489 q 335 553 379 553 q 282 489 290 553 q 319 426 275 426 q 371 489 364 426 m 214 756 q 176 819 222 819 q 125 756 133 819 q 161 693 117 693 q 214 756 206 693 m 465 489 q 429 553 474 553 q 376 489 385 553 q 414 426 369 426 q 465 489 458 426 m 308 756 q 271 819 317 819 q 219 756 228 819 q 256 693 211 693 q 308 756 300 693 m 231 889 q 193 953 238 953 q 142 889 149 953 q 178 825 135 825 q 231 889 224 825 m 482 622 q 446 686 490 686 q 393 622 401 686 q 429 560 385 560 q 482 622 474 560 m 325 889 q 288 953 332 953 q 236 889 243 953 q 272 825 229 825 q 325 889 318 825 m 578 622 q 542 686 586 686 q 489 622 497 686 q 525 560 481 560 q 578 622 569 560 m 421 889 q 383 953 428 953 q 332 889 339 953 q 368 825 325 825 q 421 889 414 825 m 340 1022 q 304 1086 347 1086 q 251 1022 258 1086 q 289 958 244 958 q 340 1022 333 958 m 594 756 q 557 819 603 819 q 506 756 514 819 q 542 693 497 693 q 594 756 586 693 m 515 889 q 478 953 522 953 q 426 889 433 953 q 463 825 419 825 q 515 889 508 825 m 436 1022 q 400 1086 443 1086 q 347 1022 354 1086 q 385 958 340 958 q 436 1022 429 958 m 689 756 q 651 819 697 819 q 600 756 608 819 q 636 693 592 693 q 689 756 681 693 m 611 889 q 574 953 618 953 q 522 889 529 953 q 558 825 515 825 q 611 889 604 825 m 531 1022 q 494 1086 538 1086 q 442 1022 449 1086 q 479 958 435 958 q 531 1022 524 958 m 706 889 q 668 953 713 953 q 617 889 624 953 q 653 825 610 825 q 706 889 699 825 m 626 1022 q 590 1086 633 1086 q 538 1022 544 1086 q 575 958 531 958 q 626 1022 619 958 m 563 414 l 563 417 q 483 329 554 329 q 436 344 451 329 q 389 329 419 329 q 322 399 324 329 l 319 399 q 253 474 253 399 q 254 483 253 478 l 254 493 q 335 581 264 581 q 368 574 351 581 q 364 604 364 586 q 325 596 347 596 q 279 611 294 596 q 231 596 263 596 q 165 665 165 596 l 161 665 q 96 738 96 665 l 96 750 q 97 761 96 756 l 97 760 q 122 825 101 804 q 113 871 113 843 l 113 883 q 114 894 113 889 l 114 892 q 193 981 122 981 q 225 974 211 981 q 222 989 222 981 l 222 1007 q 224 1017 222 1011 l 224 1026 q 304 1114 233 1114 q 350 1097 333 1114 q 400 1114 368 1114 q 446 1097 429 1114 q 494 1114 464 1114 q 540 1097 524 1114 q 590 1114 558 1114 q 656 1044 653 1114 l 660 1044 q 725 971 725 1044 q 724 953 725 958 q 735 911 732 939 l 738 911 q 804 835 804 911 l 804 828 q 803 819 803 822 l 803 815 q 776 750 796 769 q 788 703 788 731 l 788 692 q 785 679 788 688 l 786 682 q 706 596 775 596 q 672 603 682 596 q 676 571 676 588 l 676 558 q 675 547 676 553 l 675 549 q 594 463 664 463 q 560 469 576 463 q 564 438 564 457 l 564 425 q 563 414 564 419 m 481 706 q 476 736 476 719 q 438 728 460 728 q 403 735 415 728 q 407 704 407 722 q 446 714 422 714 q 481 706 465 714 z "},"A":{"ha":675,"x_min":14,"x_max":804,"o":"m 132 90 q 96 153 140 153 q 43 90 51 153 q 79 26 35 26 q 132 90 124 26 m 226 90 q 190 153 235 153 q 138 90 146 153 q 174 26 129 26 q 226 90 218 26 m 149 224 q 111 286 156 286 q 60 224 67 286 q 96 160 53 160 q 149 224 142 160 m 243 224 q 206 286 250 286 q 154 224 161 286 q 190 160 147 160 q 243 224 236 160 m 165 357 q 128 419 172 419 q 76 357 83 419 q 113 293 69 293 q 165 357 158 293 m 260 357 q 222 419 267 419 q 171 357 178 419 q 207 293 164 293 q 260 357 253 293 m 513 90 q 476 153 521 153 q 424 90 432 153 q 460 26 415 26 q 513 90 504 26 m 181 489 q 144 553 189 553 q 92 489 100 553 q 129 426 85 426 q 181 489 174 426 m 607 90 q 571 153 615 153 q 518 90 526 153 q 554 26 510 26 q 607 90 599 26 m 275 489 q 239 553 283 553 q 186 489 194 553 q 224 426 179 426 q 275 489 268 426 m 529 224 q 492 286 536 286 q 440 224 447 286 q 476 160 433 160 q 529 224 522 160 m 197 622 q 161 686 206 686 q 108 622 117 686 q 144 560 100 560 q 197 622 189 560 m 371 489 q 335 553 379 553 q 282 489 290 553 q 319 426 275 426 q 371 489 364 426 m 624 224 q 586 286 631 286 q 535 224 542 286 q 571 160 528 160 q 624 224 617 160 m 292 622 q 256 686 300 686 q 203 622 211 686 q 239 560 194 560 q 292 622 283 560 m 546 357 q 508 419 553 419 q 457 357 464 419 q 493 293 450 293 q 546 357 539 293 m 214 756 q 176 819 222 819 q 125 756 133 819 q 161 693 117 693 q 214 756 206 693 m 465 489 q 429 553 474 553 q 376 489 385 553 q 414 426 369 426 q 465 489 458 426 m 388 622 q 351 686 396 686 q 299 622 307 686 q 335 560 290 560 q 388 622 379 560 m 640 357 q 603 419 647 419 q 551 357 558 419 q 588 293 544 293 q 640 357 633 293 m 308 756 q 271 819 317 819 q 219 756 228 819 q 256 693 211 693 q 308 756 300 693 m 561 489 q 525 553 569 553 q 472 489 481 553 q 510 426 465 426 q 561 489 554 426 m 231 889 q 193 953 238 953 q 142 889 149 953 q 178 825 135 825 q 231 889 224 825 m 482 622 q 446 686 490 686 q 393 622 401 686 q 429 560 385 560 q 482 622 474 560 m 656 489 q 619 553 664 553 q 567 489 575 553 q 604 426 560 426 q 656 489 649 426 m 325 889 q 288 953 332 953 q 236 889 243 953 q 272 825 229 825 q 325 889 318 825 m 578 622 q 542 686 586 686 q 489 622 497 686 q 525 560 481 560 q 578 622 569 560 m 421 889 q 383 953 428 953 q 332 889 339 953 q 368 825 325 825 q 421 889 414 825 m 672 622 q 636 686 681 686 q 583 622 592 686 q 619 560 575 560 q 672 622 664 560 m 340 1022 q 304 1086 347 1086 q 251 1022 258 1086 q 289 958 244 958 q 340 1022 333 958 m 594 756 q 557 819 603 819 q 506 756 514 819 q 542 693 497 693 q 594 756 586 693 m 515 889 q 478 953 522 953 q 426 889 433 953 q 463 825 419 825 q 515 889 508 825 m 436 1022 q 400 1086 443 1086 q 347 1022 354 1086 q 385 958 340 958 q 436 1022 429 958 m 689 756 q 651 819 697 819 q 600 756 608 819 q 636 693 592 693 q 689 756 681 693 m 611 889 q 574 953 618 953 q 522 889 529 953 q 558 825 515 825 q 611 889 604 825 m 531 1022 q 494 1086 538 1086 q 442 1022 449 1086 q 479 958 435 958 q 531 1022 524 958 m 706 889 q 668 953 713 953 q 617 889 624 953 q 653 825 610 825 q 706 889 699 825 m 626 1022 q 590 1086 633 1086 q 538 1022 544 1086 q 575 958 531 958 q 626 1022 619 958 m 324 15 l 324 17 q 243 -71 313 -71 q 196 -54 213 -71 q 149 -71 176 -71 q 83 -1 86 -71 l 79 -1 q 14 72 14 -1 l 14 85 q 15 96 14 90 l 15 94 q 40 158 19 138 q 31 206 31 176 l 31 218 q 32 229 31 224 l 32 226 q 57 292 36 271 q 47 339 47 310 l 47 351 q 49 363 47 357 l 49 360 q 74 425 53 404 q 63 474 63 444 q 64 483 63 478 l 64 493 q 89 558 68 538 q 79 604 79 576 l 79 617 q 81 628 79 622 l 81 626 q 106 692 85 671 q 96 738 96 710 l 96 750 q 97 761 96 756 l 97 760 q 122 825 101 804 q 113 871 113 843 l 113 883 q 114 894 113 889 l 114 892 q 193 981 122 981 q 225 974 211 981 q 222 989 222 981 l 222 1007 q 224 1017 222 1011 l 224 1026 q 304 1114 233 1114 q 350 1097 333 1114 q 400 1114 368 1114 q 446 1097 429 1114 q 494 1114 464 1114 q 540 1097 524 1114 q 590 1114 558 1114 q 656 1044 653 1114 l 660 1044 q 725 971 725 1044 q 724 953 725 958 q 735 911 732 939 l 738 911 q 804 835 804 911 l 804 828 q 803 819 803 822 l 803 815 q 776 750 796 769 q 788 703 788 731 l 788 692 q 785 679 788 688 l 786 682 q 760 617 781 639 q 771 571 771 599 l 771 558 q 769 547 771 553 l 769 549 q 743 483 764 506 q 754 438 754 465 l 754 425 q 753 414 754 419 l 753 417 q 728 350 749 372 q 739 303 739 332 l 739 296 q 738 288 738 290 l 738 283 q 711 217 731 239 q 722 169 722 199 l 722 163 q 721 154 721 157 l 721 150 q 694 85 714 104 q 706 39 706 65 l 706 26 q 704 15 706 21 l 704 17 q 624 -71 693 -71 q 576 -54 593 -71 q 529 -71 557 -71 q 464 -1 467 -71 l 460 -1 q 394 72 394 -1 l 394 85 q 396 96 394 90 l 396 94 q 421 158 400 138 q 411 206 411 176 l 411 218 q 413 229 411 224 l 413 226 q 438 292 417 271 q 428 338 428 310 q 389 329 411 329 q 354 336 367 329 q 358 303 358 321 l 358 296 q 357 288 357 290 l 357 283 q 331 217 350 239 q 342 169 342 199 l 342 163 q 340 154 340 157 l 340 150 q 314 85 333 104 q 325 39 325 65 l 325 26 q 324 15 325 21 m 481 706 q 476 736 476 719 q 438 728 460 728 q 403 735 415 728 q 407 704 407 722 q 446 714 422 714 q 481 706 465 714 z "},"B":{"ha":667,"x_min":14,"x_max":804,"o":"m 132 90 q 96 153 140 153 q 43 90 51 153 q 79 26 35 26 q 132 90 124 26 m 226 90 q 190 153 235 153 q 138 90 146 153 q 174 26 129 26 q 226 90 218 26 m 149 224 q 111 286 156 286 q 60 224 67 286 q 96 160 53 160 q 149 224 142 160 m 322 90 q 286 153 331 153 q 233 90 242 153 q 269 26 225 26 q 322 90 314 26 m 243 224 q 206 286 250 286 q 154 224 161 286 q 190 160 147 160 q 243 224 236 160 m 165 357 q 128 419 172 419 q 76 357 83 419 q 113 293 69 293 q 165 357 158 293 m 417 90 q 381 153 425 153 q 328 90 336 153 q 364 26 319 26 q 417 90 408 26 m 339 224 q 301 286 346 286 q 250 224 257 286 q 286 160 243 160 q 339 224 332 160 m 260 357 q 222 419 267 419 q 171 357 178 419 q 207 293 164 293 q 260 357 253 293 m 513 90 q 476 153 521 153 q 424 90 432 153 q 460 26 415 26 q 513 90 504 26 m 181 489 q 144 553 189 553 q 92 489 100 553 q 129 426 85 426 q 181 489 174 426 m 433 224 q 396 286 440 286 q 344 224 351 286 q 381 160 338 160 q 433 224 426 160 m 275 489 q 239 553 283 553 q 186 489 194 553 q 224 426 179 426 q 275 489 268 426 m 529 224 q 492 286 536 286 q 440 224 447 286 q 476 160 433 160 q 529 224 522 160 m 197 622 q 161 686 206 686 q 108 622 117 686 q 144 560 100 560 q 197 622 189 560 m 371 489 q 335 553 379 553 q 282 489 290 553 q 319 426 275 426 q 371 489 364 426 m 624 224 q 586 286 631 286 q 535 224 542 286 q 571 160 528 160 q 624 224 617 160 m 292 622 q 256 686 300 686 q 203 622 211 686 q 239 560 194 560 q 292 622 283 560 m 546 357 q 508 419 553 419 q 457 357 464 419 q 493 293 450 293 q 546 357 539 293 m 214 756 q 176 819 222 819 q 125 756 133 819 q 161 693 117 693 q 214 756 206 693 m 465 489 q 429 553 474 553 q 376 489 385 553 q 414 426 369 426 q 465 489 458 426 m 388 622 q 351 686 396 686 q 299 622 307 686 q 335 560 290 560 q 388 622 379 560 m 640 357 q 603 419 647 419 q 551 357 558 419 q 588 293 544 293 q 640 357 633 293 m 308 756 q 271 819 317 819 q 219 756 228 819 q 256 693 211 693 q 308 756 300 693 m 561 489 q 525 553 569 553 q 472 489 481 553 q 510 426 465 426 q 561 489 554 426 m 231 889 q 193 953 238 953 q 142 889 149 953 q 178 825 135 825 q 231 889 224 825 m 482 622 q 446 686 490 686 q 393 622 401 686 q 429 560 385 560 q 482 622 474 560 m 325 889 q 288 953 332 953 q 236 889 243 953 q 272 825 229 825 q 325 889 318 825 m 578 622 q 542 686 586 686 q 489 622 497 686 q 525 560 481 560 q 578 622 569 560 m 246 1022 q 210 1086 253 1086 q 157 1022 164 1086 q 194 958 150 958 q 246 1022 239 958 m 421 889 q 383 953 428 953 q 332 889 339 953 q 368 825 325 825 q 421 889 414 825 m 340 1022 q 304 1086 347 1086 q 251 1022 258 1086 q 289 958 244 958 q 340 1022 333 958 m 594 756 q 557 819 603 819 q 506 756 514 819 q 542 693 497 693 q 594 756 586 693 m 515 889 q 478 953 522 953 q 426 889 433 953 q 463 825 419 825 q 515 889 508 825 m 436 1022 q 400 1086 443 1086 q 347 1022 354 1086 q 385 958 340 958 q 436 1022 429 958 m 689 756 q 651 819 697 819 q 600 756 608 819 q 636 693 592 693 q 689 756 681 693 m 611 889 q 574 953 618 953 q 522 889 529 953 q 558 825 515 825 q 611 889 604 825 m 531 1022 q 494 1086 538 1086 q 442 1022 449 1086 q 479 958 435 958 q 531 1022 524 958 m 706 889 q 668 953 713 953 q 617 889 624 953 q 653 825 610 825 q 706 889 699 825 m 626 1022 q 590 1086 633 1086 q 538 1022 544 1086 q 575 958 531 958 q 626 1022 619 958 m 610 15 l 610 17 q 529 -71 599 -71 q 482 -54 499 -71 q 433 -71 463 -71 q 386 -54 403 -71 q 339 -71 367 -71 q 292 -54 308 -71 q 243 -71 272 -71 q 196 -54 213 -71 q 149 -71 176 -71 q 83 -1 86 -71 l 79 -1 q 14 72 14 -1 l 14 85 q 15 96 14 90 l 15 94 q 40 158 19 138 q 31 206 31 176 l 31 218 q 32 229 31 224 l 32 226 q 57 292 36 271 q 47 339 47 310 l 47 351 q 49 363 47 357 l 49 360 q 74 425 53 404 q 63 474 63 444 q 64 483 63 478 l 64 493 q 89 558 68 538 q 79 604 79 576 l 79 617 q 81 628 79 622 l 81 626 q 106 692 85 671 q 96 738 96 710 l 96 750 q 97 761 96 756 l 97 760 q 122 825 101 804 q 113 871 113 843 l 113 883 q 114 894 113 889 l 114 892 q 138 957 118 935 q 128 1007 128 975 q 129 1017 128 1011 l 129 1026 q 210 1114 139 1114 q 256 1097 239 1114 q 304 1114 274 1114 q 350 1097 333 1114 q 400 1114 368 1114 q 446 1097 429 1114 q 494 1114 464 1114 q 540 1097 524 1114 q 590 1114 558 1114 q 656 1044 653 1114 l 660 1044 q 725 971 725 1044 q 724 953 725 958 q 735 911 732 939 l 738 911 q 804 835 804 911 l 804 828 q 803 819 803 822 l 803 815 q 776 750 796 769 q 788 703 788 731 l 788 692 q 785 679 788 688 l 786 682 q 706 596 775 596 q 672 603 682 596 q 676 571 676 588 l 676 558 q 675 547 676 553 l 675 549 q 649 483 669 506 q 660 438 660 465 q 658 419 660 425 q 669 378 667 406 l 672 378 q 739 303 739 378 l 739 296 q 738 288 738 290 l 738 283 q 711 217 731 239 q 722 169 722 199 l 722 163 q 721 154 721 157 l 721 150 q 640 63 710 63 q 607 69 617 63 q 611 39 611 54 l 611 26 q 610 15 611 21 m 432 306 q 428 338 428 319 q 389 329 411 329 q 354 336 367 329 q 358 304 358 321 q 396 314 374 314 q 432 306 417 314 m 481 706 q 476 736 476 719 q 438 728 460 728 q 403 735 415 728 q 407 704 407 722 q 446 714 422 714 q 481 706 465 714 z "},"C":{"ha":668,"x_min":31,"x_max":804,"o":"m 226 90 q 190 153 235 153 q 138 90 146 153 q 174 26 129 26 q 226 90 218 26 m 149 224 q 111 286 156 286 q 60 224 67 286 q 96 160 53 160 q 149 224 142 160 m 322 90 q 286 153 331 153 q 233 90 242 153 q 269 26 225 26 q 322 90 314 26 m 243 224 q 206 286 250 286 q 154 224 161 286 q 190 160 147 160 q 243 224 236 160 m 165 357 q 128 419 172 419 q 76 357 83 419 q 113 293 69 293 q 165 357 158 293 m 417 90 q 381 153 425 153 q 328 90 336 153 q 364 26 319 26 q 417 90 408 26 m 339 224 q 301 286 346 286 q 250 224 257 286 q 286 160 243 160 q 339 224 332 160 m 260 357 q 222 419 267 419 q 171 357 178 419 q 207 293 164 293 q 260 357 253 293 m 513 90 q 476 153 521 153 q 424 90 432 153 q 460 26 415 26 q 513 90 504 26 m 181 489 q 144 553 189 553 q 92 489 100 553 q 129 426 85 426 q 181 489 174 426 m 433 224 q 396 286 440 286 q 344 224 351 286 q 381 160 338 160 q 433 224 426 160 m 275 489 q 239 553 283 553 q 186 489 194 553 q 224 426 179 426 q 275 489 268 426 m 529 224 q 492 286 536 286 q 440 224 447 286 q 476 160 433 160 q 529 224 522 160 m 197 622 q 161 686 206 686 q 108 622 117 686 q 144 560 100 560 q 197 622 189 560 m 624 224 q 586 286 631 286 q 535 224 542 286 q 571 160 528 160 q 624 224 617 160 m 292 622 q 256 686 300 686 q 203 622 211 686 q 239 560 194 560 q 292 622 283 560 m 546 357 q 508 419 553 419 q 457 357 464 419 q 493 293 450 293 q 546 357 539 293 m 214 756 q 176 819 222 819 q 125 756 133 819 q 161 693 117 693 q 214 756 206 693 m 640 357 q 603 419 647 419 q 551 357 558 419 q 588 293 544 293 q 640 357 633 293 m 308 756 q 271 819 317 819 q 219 756 228 819 q 256 693 211 693 q 308 756 300 693 m 231 889 q 193 953 238 953 q 142 889 149 953 q 178 825 135 825 q 231 889 224 825 m 325 889 q 288 953 332 953 q 236 889 243 953 q 272 825 229 825 q 325 889 318 825 m 421 889 q 383 953 428 953 q 332 889 339 953 q 368 825 325 825 q 421 889 414 825 m 340 1022 q 304 1086 347 1086 q 251 1022 258 1086 q 289 958 244 958 q 340 1022 333 958 m 594 756 q 557 819 603 819 q 506 756 514 819 q 542 693 497 693 q 594 756 586 693 m 515 889 q 478 953 522 953 q 426 889 433 953 q 463 825 419 825 q 515 889 508 825 m 436 1022 q 400 1086 443 1086 q 347 1022 354 1086 q 385 958 340 958 q 436 1022 429 958 m 689 756 q 651 819 697 819 q 600 756 608 819 q 636 693 592 693 q 689 756 681 693 m 611 889 q 574 953 618 953 q 522 889 529 953 q 558 825 515 825 q 611 889 604 825 m 531 1022 q 494 1086 538 1086 q 442 1022 449 1086 q 479 958 435 958 q 531 1022 524 958 m 706 889 q 668 953 713 953 q 617 889 624 953 q 653 825 610 825 q 706 889 699 825 m 626 1022 q 590 1086 633 1086 q 538 1022 544 1086 q 575 958 531 958 q 626 1022 619 958 m 610 15 l 610 17 q 529 -71 599 -71 q 482 -54 499 -71 q 433 -71 463 -71 q 386 -54 403 -71 q 339 -71 367 -71 q 292 -54 308 -71 q 243 -71 272 -71 q 178 -1 181 -71 l 174 -1 q 108 72 108 -1 l 108 92 q 100 132 100 106 l 96 132 q 31 206 31 132 l 31 218 q 32 229 31 224 l 32 226 q 57 292 36 271 q 47 339 47 310 l 47 351 q 49 363 47 357 l 49 360 q 74 425 53 404 q 63 474 63 444 q 64 483 63 478 l 64 493 q 89 558 68 538 q 79 604 79 576 l 79 617 q 81 628 79 622 l 81 626 q 106 692 85 671 q 96 738 96 710 l 96 750 q 97 761 96 756 l 97 760 q 122 825 101 804 q 113 871 113 843 l 113 883 q 114 894 113 889 l 114 892 q 193 981 122 981 q 225 974 211 981 q 222 989 222 981 l 222 1007 q 224 1017 222 1011 l 224 1026 q 304 1114 233 1114 q 350 1097 333 1114 q 400 1114 368 1114 q 446 1097 429 1114 q 494 1114 464 1114 q 540 1097 524 1114 q 590 1114 558 1114 q 656 1044 653 1114 l 660 1044 q 725 971 725 1044 q 724 953 725 958 q 735 911 732 939 l 738 911 q 804 835 804 911 l 804 828 q 803 819 803 822 l 803 815 q 776 750 796 769 q 788 703 788 731 l 788 692 q 785 679 788 688 l 786 682 q 706 596 775 596 q 660 611 675 596 q 611 596 643 596 q 546 665 546 596 l 542 665 q 476 736 476 665 q 438 728 460 728 q 403 735 415 728 q 407 703 407 719 l 407 692 q 404 679 407 688 l 406 682 q 379 617 400 639 q 390 571 390 599 l 390 558 q 389 547 390 553 l 389 549 q 363 483 383 506 q 374 438 374 465 l 374 425 q 372 414 374 419 l 372 417 q 347 350 368 372 q 358 304 358 332 q 396 314 374 314 q 432 306 417 314 q 428 339 428 319 l 428 351 q 429 363 428 357 l 429 360 q 508 447 438 447 q 556 431 539 447 q 603 447 574 447 q 669 378 668 447 l 672 378 q 739 303 739 378 l 739 296 q 738 288 738 290 l 738 283 q 711 217 731 239 q 722 169 722 199 l 722 163 q 721 154 721 157 l 721 150 q 640 63 710 63 q 607 69 617 63 q 611 39 611 54 l 611 26 q 610 15 611 21 z "},"D":{"ha":674,"x_min":14,"x_max":804,"o":"m 132 90 q 96 153 140 153 q 43 90 51 153 q 79 26 35 26 q 132 90 124 26 m 226 90 q 190 153 235 153 q 138 90 146 153 q 174 26 129 26 q 226 90 218 26 m 149 224 q 111 286 156 286 q 60 224 67 286 q 96 160 53 160 q 149 224 142 160 m 322 90 q 286 153 331 153 q 233 90 242 153 q 269 26 225 26 q 322 90 314 26 m 243 224 q 206 286 250 286 q 154 224 161 286 q 190 160 147 160 q 243 224 236 160 m 165 357 q 128 419 172 419 q 76 357 83 419 q 113 293 69 293 q 165 357 158 293 m 417 90 q 381 153 425 153 q 328 90 336 153 q 364 26 319 26 q 417 90 408 26 m 339 224 q 301 286 346 286 q 250 224 257 286 q 286 160 243 160 q 339 224 332 160 m 260 357 q 222 419 267 419 q 171 357 178 419 q 207 293 164 293 q 260 357 253 293 m 513 90 q 476 153 521 153 q 424 90 432 153 q 460 26 415 26 q 513 90 504 26 m 181 489 q 144 553 189 553 q 92 489 100 553 q 129 426 85 426 q 181 489 174 426 m 433 224 q 396 286 440 286 q 344 224 351 286 q 381 160 338 160 q 433 224 426 160 m 275 489 q 239 553 283 553 q 186 489 194 553 q 224 426 179 426 q 275 489 268 426 m 529 224 q 492 286 536 286 q 440 224 447 286 q 476 160 433 160 q 529 224 522 160 m 197 622 q 161 686 206 686 q 108 622 117 686 q 144 560 100 560 q 197 622 189 560 m 624 224 q 586 286 631 286 q 535 224 542 286 q 571 160 528 160 q 624 224 617 160 m 292 622 q 256 686 300 686 q 203 622 211 686 q 239 560 194 560 q 292 622 283 560 m 546 357 q 508 419 553 419 q 457 357 464 419 q 493 293 450 293 q 546 357 539 293 m 214 756 q 176 819 222 819 q 125 756 133 819 q 161 693 117 693 q 214 756 206 693 m 640 357 q 603 419 647 419 q 551 357 558 419 q 588 293 544 293 q 640 357 633 293 m 308 756 q 271 819 317 819 q 219 756 228 819 q 256 693 211 693 q 308 756 300 693 m 561 489 q 525 553 569 553 q 472 489 481 553 q 510 426 465 426 q 561 489 554 426 m 231 889 q 193 953 238 953 q 142 889 149 953 q 178 825 135 825 q 231 889 224 825 m 656 489 q 619 553 664 553 q 567 489 575 553 q 604 426 560 426 q 656 489 649 426 m 325 889 q 288 953 332 953 q 236 889 243 953 q 272 825 229 825 q 325 889 318 825 m 578 622 q 542 686 586 686 q 489 622 497 686 q 525 560 481 560 q 578 622 569 560 m 246 1022 q 210 1086 253 1086 q 157 1022 164 1086 q 194 958 150 958 q 246 1022 239 958 m 421 889 q 383 953 428 953 q 332 889 339 953 q 368 825 325 825 q 421 889 414 825 m 672 622 q 636 686 681 686 q 583 622 592 686 q 619 560 575 560 q 672 622 664 560 m 340 1022 q 304 1086 347 1086 q 251 1022 258 1086 q 289 958 244 958 q 340 1022 333 958 m 594 756 q 557 819 603 819 q 506 756 514 819 q 542 693 497 693 q 594 756 586 693 m 515 889 q 478 953 522 953 q 426 889 433 953 q 463 825 419 825 q 515 889 508 825 m 436 1022 q 400 1086 443 1086 q 347 1022 354 1086 q 385 958 340 958 q 436 1022 429 958 m 689 756 q 651 819 697 819 q 600 756 608 819 q 636 693 592 693 q 689 756 681 693 m 611 889 q 574 953 618 953 q 522 889 529 953 q 558 825 515 825 q 611 889 604 825 m 531 1022 q 494 1086 538 1086 q 442 1022 449 1086 q 479 958 435 958 q 531 1022 524 958 m 706 889 q 668 953 713 953 q 617 889 624 953 q 653 825 610 825 q 706 889 699 825 m 626 1022 q 590 1086 633 1086 q 538 1022 544 1086 q 575 958 531 958 q 626 1022 619 958 m 610 15 l 610 17 q 529 -71 599 -71 q 482 -54 499 -71 q 433 -71 463 -71 q 386 -54 403 -71 q 339 -71 367 -71 q 292 -54 308 -71 q 243 -71 272 -71 q 196 -54 213 -71 q 149 -71 176 -71 q 83 -1 86 -71 l 79 -1 q 14 72 14 -1 l 14 85 q 15 96 14 90 l 15 94 q 40 158 19 138 q 31 206 31 176 l 31 218 q 32 229 31 224 l 32 226 q 57 292 36 271 q 47 339 47 310 l 47 351 q 49 363 47 357 l 49 360 q 74 425 53 404 q 63 474 63 444 q 64 483 63 478 l 64 493 q 89 558 68 538 q 79 604 79 576 l 79 617 q 81 628 79 622 l 81 626 q 106 692 85 671 q 96 738 96 710 l 96 750 q 97 761 96 756 l 97 760 q 122 825 101 804 q 113 871 113 843 l 113 883 q 114 894 113 889 l 114 892 q 138 957 118 935 q 128 1007 128 975 q 129 1017 128 1011 l 129 1026 q 210 1114 139 1114 q 256 1097 239 1114 q 304 1114 274 1114 q 350 1097 333 1114 q 400 1114 368 1114 q 446 1097 429 1114 q 494 1114 464 1114 q 540 1097 524 1114 q 590 1114 558 1114 q 656 1044 653 1114 l 660 1044 q 725 971 725 1044 q 724 953 725 958 q 735 911 732 939 l 738 911 q 804 835 804 911 l 804 828 q 803 819 803 822 l 803 815 q 776 750 796 769 q 788 703 788 731 l 788 692 q 785 679 788 688 l 786 682 q 760 617 781 639 q 771 571 771 599 l 771 558 q 769 547 771 553 l 769 549 q 743 483 764 506 q 754 438 754 465 l 754 425 q 753 414 754 419 l 753 417 q 728 350 749 372 q 739 303 739 332 l 739 296 q 738 288 738 290 l 738 283 q 711 217 731 239 q 722 169 722 199 l 722 163 q 721 154 721 157 l 721 150 q 640 63 710 63 q 607 69 617 63 q 611 39 611 54 l 611 26 q 610 15 611 21 m 372 414 l 372 417 q 347 350 368 372 q 358 304 358 332 q 396 314 374 314 q 432 306 417 314 q 428 339 428 319 l 428 351 q 429 363 428 357 l 429 360 q 454 425 433 404 q 443 474 443 444 q 444 483 443 478 l 444 493 q 469 558 449 538 q 460 604 460 576 l 460 617 q 461 628 460 622 l 461 626 q 486 692 465 671 q 476 736 476 707 q 438 728 460 728 q 403 735 415 728 q 407 703 407 719 l 407 692 q 404 679 407 688 l 406 682 q 379 617 400 639 q 390 571 390 599 l 390 558 q 389 547 390 553 l 389 549 q 363 483 383 506 q 374 438 374 465 l 374 425 q 372 414 374 419 z "},"E":{"ha":675,"x_min":14,"x_max":819,"o":"m 132 90 q 96 153 140 153 q 43 90 51 153 q 79 26 35 26 q 132 90 124 26 m 226 90 q 190 153 235 153 q 138 90 146 153 q 174 26 129 26 q 226 90 218 26 m 149 224 q 111 286 156 286 q 60 224 67 286 q 96 160 53 160 q 149 224 142 160 m 322 90 q 286 153 331 153 q 233 90 242 153 q 269 26 225 26 q 322 90 314 26 m 243 224 q 206 286 250 286 q 154 224 161 286 q 190 160 147 160 q 243 224 236 160 m 165 357 q 128 419 172 419 q 76 357 83 419 q 113 293 69 293 q 165 357 158 293 m 417 90 q 381 153 425 153 q 328 90 336 153 q 364 26 319 26 q 417 90 408 26 m 339 224 q 301 286 346 286 q 250 224 257 286 q 286 160 243 160 q 339 224 332 160 m 260 357 q 222 419 267 419 q 171 357 178 419 q 207 293 164 293 q 260 357 253 293 m 513 90 q 476 153 521 153 q 424 90 432 153 q 460 26 415 26 q 513 90 504 26 m 181 489 q 144 553 189 553 q 92 489 100 553 q 129 426 85 426 q 181 489 174 426 m 433 224 q 396 286 440 286 q 344 224 351 286 q 381 160 338 160 q 433 224 426 160 m 607 90 q 571 153 615 153 q 518 90 526 153 q 554 26 510 26 q 607 90 599 26 m 275 489 q 239 553 283 553 q 186 489 194 553 q 224 426 179 426 q 275 489 268 426 m 529 224 q 492 286 536 286 q 440 224 447 286 q 476 160 433 160 q 529 224 522 160 m 197 622 q 161 686 206 686 q 108 622 117 686 q 144 560 100 560 q 197 622 189 560 m 371 489 q 335 553 379 553 q 282 489 290 553 q 319 426 275 426 q 371 489 364 426 m 624 224 q 586 286 631 286 q 535 224 542 286 q 571 160 528 160 q 624 224 617 160 m 292 622 q 256 686 300 686 q 203 622 211 686 q 239 560 194 560 q 292 622 283 560 m 214 756 q 176 819 222 819 q 125 756 133 819 q 161 693 117 693 q 214 756 206 693 m 465 489 q 429 553 474 553 q 376 489 385 553 q 414 426 369 426 q 465 489 458 426 m 388 622 q 351 686 396 686 q 299 622 307 686 q 335 560 290 560 q 388 622 379 560 m 308 756 q 271 819 317 819 q 219 756 228 819 q 256 693 211 693 q 308 756 300 693 m 561 489 q 525 553 569 553 q 472 489 481 553 q 510 426 465 426 q 561 489 554 426 m 231 889 q 193 953 238 953 q 142 889 149 953 q 178 825 135 825 q 231 889 224 825 m 482 622 q 446 686 490 686 q 393 622 401 686 q 429 560 385 560 q 482 622 474 560 m 656 489 q 619 553 664 553 q 567 489 575 553 q 604 426 560 426 q 656 489 649 426 m 325 889 q 288 953 332 953 q 236 889 243 953 q 272 825 229 825 q 325 889 318 825 m 578 622 q 542 686 586 686 q 489 622 497 686 q 525 560 481 560 q 578 622 569 560 m 246 1022 q 210 1086 253 1086 q 157 1022 164 1086 q 194 958 150 958 q 246 1022 239 958 m 421 889 q 383 953 428 953 q 332 889 339 953 q 368 825 325 825 q 421 889 414 825 m 672 622 q 636 686 681 686 q 583 622 592 686 q 619 560 575 560 q 672 622 664 560 m 340 1022 q 304 1086 347 1086 q 251 1022 258 1086 q 289 958 244 958 q 340 1022 333 958 m 515 889 q 478 953 522 953 q 426 889 433 953 q 463 825 419 825 q 515 889 508 825 m 436 1022 q 400 1086 443 1086 q 347 1022 354 1086 q 385 958 340 958 q 436 1022 429 958 m 611 889 q 574 953 618 953 q 522 889 529 953 q 558 825 515 825 q 611 889 604 825 m 531 1022 q 494 1086 538 1086 q 442 1022 449 1086 q 479 958 435 958 q 531 1022 524 958 m 706 889 q 668 953 713 953 q 617 889 624 953 q 653 825 610 825 q 706 889 699 825 m 626 1022 q 590 1086 633 1086 q 538 1022 544 1086 q 575 958 531 958 q 626 1022 619 958 m 721 1022 q 685 1086 728 1086 q 632 1022 639 1086 q 669 958 625 958 q 721 1022 714 958 m 704 15 l 704 17 q 624 -71 693 -71 q 576 -54 593 -71 q 529 -71 557 -71 q 482 -54 499 -71 q 433 -71 463 -71 q 386 -54 403 -71 q 339 -71 367 -71 q 292 -54 308 -71 q 243 -71 272 -71 q 196 -54 213 -71 q 149 -71 176 -71 q 83 -1 86 -71 l 79 -1 q 14 72 14 -1 l 14 85 q 15 96 14 90 l 15 94 q 40 158 19 138 q 31 206 31 176 l 31 218 q 32 229 31 224 l 32 226 q 57 292 36 271 q 47 339 47 310 l 47 351 q 49 363 47 357 l 49 360 q 74 425 53 404 q 63 474 63 444 q 64 483 63 478 l 64 493 q 89 558 68 538 q 79 604 79 576 l 79 617 q 81 628 79 622 l 81 626 q 106 692 85 671 q 96 738 96 710 l 96 750 q 97 761 96 756 l 97 760 q 122 825 101 804 q 113 871 113 843 l 113 883 q 114 894 113 889 l 114 892 q 138 957 118 935 q 128 1007 128 975 q 129 1017 128 1011 l 129 1026 q 210 1114 139 1114 q 256 1097 239 1114 q 304 1114 274 1114 q 350 1097 333 1114 q 400 1114 368 1114 q 446 1097 429 1114 q 494 1114 464 1114 q 540 1097 524 1114 q 590 1114 558 1114 q 636 1097 619 1114 q 685 1114 654 1114 q 750 1044 747 1114 l 754 1044 q 819 971 819 1044 l 819 958 q 818 947 819 953 l 818 950 q 793 883 814 906 q 804 835 804 865 l 804 828 q 803 819 803 822 l 803 815 q 722 728 792 728 q 675 743 693 728 q 628 728 656 728 q 581 743 599 728 q 532 728 564 728 q 485 743 503 728 q 438 728 465 728 q 403 735 415 728 q 407 704 407 722 q 446 714 422 714 q 492 697 475 714 q 542 714 510 714 q 588 697 571 714 q 636 714 606 714 q 701 644 699 714 l 706 644 q 771 571 771 644 l 771 558 q 769 547 771 553 l 769 549 q 743 483 764 506 q 754 438 754 465 l 754 425 q 753 414 754 419 l 753 417 q 674 329 744 329 q 626 344 642 329 q 579 329 610 329 q 532 344 547 329 q 483 329 513 329 q 436 344 451 329 q 389 329 419 329 q 354 336 367 329 q 358 304 358 321 q 396 314 374 314 q 443 297 426 314 q 492 314 461 314 q 539 297 522 314 q 586 314 557 314 q 653 244 651 314 l 656 244 q 722 169 722 244 l 722 163 q 721 154 721 157 l 721 150 q 694 85 714 104 q 706 39 706 65 l 706 26 q 704 15 706 21 z "},"F":{"ha":650,"x_min":14,"x_max":819,"o":"m 132 90 q 96 153 140 153 q 43 90 51 153 q 79 26 35 26 q 132 90 124 26 m 226 90 q 190 153 235 153 q 138 90 146 153 q 174 26 129 26 q 226 90 218 26 m 149 224 q 111 286 156 286 q 60 224 67 286 q 96 160 53 160 q 149 224 142 160 m 243 224 q 206 286 250 286 q 154 224 161 286 q 190 160 147 160 q 243 224 236 160 m 165 357 q 128 419 172 419 q 76 357 83 419 q 113 293 69 293 q 165 357 158 293 m 260 357 q 222 419 267 419 q 171 357 178 419 q 207 293 164 293 q 260 357 253 293 m 181 489 q 144 553 189 553 q 92 489 100 553 q 129 426 85 426 q 181 489 174 426 m 275 489 q 239 553 283 553 q 186 489 194 553 q 224 426 179 426 q 275 489 268 426 m 197 622 q 161 686 206 686 q 108 622 117 686 q 144 560 100 560 q 197 622 189 560 m 371 489 q 335 553 379 553 q 282 489 290 553 q 319 426 275 426 q 371 489 364 426 m 292 622 q 256 686 300 686 q 203 622 211 686 q 239 560 194 560 q 292 622 283 560 m 214 756 q 176 819 222 819 q 125 756 133 819 q 161 693 117 693 q 214 756 206 693 m 465 489 q 429 553 474 553 q 376 489 385 553 q 414 426 369 426 q 465 489 458 426 m 388 622 q 351 686 396 686 q 299 622 307 686 q 335 560 290 560 q 388 622 379 560 m 308 756 q 271 819 317 819 q 219 756 228 819 q 256 693 211 693 q 308 756 300 693 m 561 489 q 525 553 569 553 q 472 489 481 553 q 510 426 465 426 q 561 489 554 426 m 231 889 q 193 953 238 953 q 142 889 149 953 q 178 825 135 825 q 231 889 224 825 m 482 622 q 446 686 490 686 q 393 622 401 686 q 429 560 385 560 q 482 622 474 560 m 656 489 q 619 553 664 553 q 567 489 575 553 q 604 426 560 426 q 656 489 649 426 m 325 889 q 288 953 332 953 q 236 889 243 953 q 272 825 229 825 q 325 889 318 825 m 578 622 q 542 686 586 686 q 489 622 497 686 q 525 560 481 560 q 578 622 569 560 m 246 1022 q 210 1086 253 1086 q 157 1022 164 1086 q 194 958 150 958 q 246 1022 239 958 m 421 889 q 383 953 428 953 q 332 889 339 953 q 368 825 325 825 q 421 889 414 825 m 672 622 q 636 686 681 686 q 583 622 592 686 q 619 560 575 560 q 672 622 664 560 m 340 1022 q 304 1086 347 1086 q 251 1022 258 1086 q 289 958 244 958 q 340 1022 333 958 m 515 889 q 478 953 522 953 q 426 889 433 953 q 463 825 419 825 q 515 889 508 825 m 436 1022 q 400 1086 443 1086 q 347 1022 354 1086 q 385 958 340 958 q 436 1022 429 958 m 611 889 q 574 953 618 953 q 522 889 529 953 q 558 825 515 825 q 611 889 604 825 m 531 1022 q 494 1086 538 1086 q 442 1022 449 1086 q 479 958 435 958 q 531 1022 524 958 m 706 889 q 668 953 713 953 q 617 889 624 953 q 653 825 610 825 q 706 889 699 825 m 626 1022 q 590 1086 633 1086 q 538 1022 544 1086 q 575 958 531 958 q 626 1022 619 958 m 721 1022 q 685 1086 728 1086 q 632 1022 639 1086 q 669 958 625 958 q 721 1022 714 958 m 324 15 l 324 17 q 243 -71 313 -71 q 196 -54 213 -71 q 149 -71 176 -71 q 83 -1 86 -71 l 79 -1 q 14 72 14 -1 l 14 85 q 15 96 14 90 l 15 94 q 40 158 19 138 q 31 206 31 176 l 31 218 q 32 229 31 224 l 32 226 q 57 292 36 271 q 47 339 47 310 l 47 351 q 49 363 47 357 l 49 360 q 74 425 53 404 q 63 474 63 444 q 64 483 63 478 l 64 493 q 89 558 68 538 q 79 604 79 576 l 79 617 q 81 628 79 622 l 81 626 q 106 692 85 671 q 96 738 96 710 l 96 750 q 97 761 96 756 l 97 760 q 122 825 101 804 q 113 871 113 843 l 113 883 q 114 894 113 889 l 114 892 q 138 957 118 935 q 128 1007 128 975 q 129 1017 128 1011 l 129 1026 q 210 1114 139 1114 q 256 1097 239 1114 q 304 1114 274 1114 q 350 1097 333 1114 q 400 1114 368 1114 q 446 1097 429 1114 q 494 1114 464 1114 q 540 1097 524 1114 q 590 1114 558 1114 q 636 1097 619 1114 q 685 1114 654 1114 q 750 1044 747 1114 l 754 1044 q 819 971 819 1044 l 819 958 q 818 947 819 953 l 818 950 q 793 883 814 906 q 804 835 804 865 l 804 828 q 803 819 803 822 l 803 815 q 722 728 792 728 q 675 743 693 728 q 628 728 656 728 q 581 743 599 728 q 532 728 564 728 q 485 743 503 728 q 438 728 465 728 q 403 735 415 728 q 407 704 407 722 q 446 714 422 714 q 492 697 475 714 q 542 714 510 714 q 588 697 571 714 q 636 714 606 714 q 701 644 699 714 l 706 644 q 771 571 771 644 l 771 558 q 769 547 771 553 l 769 549 q 743 483 764 506 q 754 438 754 465 l 754 425 q 753 414 754 419 l 753 417 q 674 329 744 329 q 626 344 642 329 q 579 329 610 329 q 532 344 547 329 q 483 329 513 329 q 436 344 451 329 q 389 329 419 329 q 354 336 367 329 q 358 303 358 321 l 358 296 q 357 288 357 290 l 357 283 q 331 217 350 239 q 342 169 342 199 l 342 163 q 340 154 340 157 l 340 150 q 314 85 333 104 q 325 39 325 65 l 325 26 q 324 15 325 21 z "},"G":{"ha":679,"x_min":31,"x_max":819,"o":"m 226 90 q 190 153 235 153 q 138 90 146 153 q 174 26 129 26 q 226 90 218 26 m 149 224 q 111 286 156 286 q 60 224 67 286 q 96 160 53 160 q 149 224 142 160 m 322 90 q 286 153 331 153 q 233 90 242 153 q 269 26 225 26 q 322 90 314 26 m 243 224 q 206 286 250 286 q 154 224 161 286 q 190 160 147 160 q 243 224 236 160 m 165 357 q 128 419 172 419 q 76 357 83 419 q 113 293 69 293 q 165 357 158 293 m 417 90 q 381 153 425 153 q 328 90 336 153 q 364 26 319 26 q 417 90 408 26 m 339 224 q 301 286 346 286 q 250 224 257 286 q 286 160 243 160 q 339 224 332 160 m 260 357 q 222 419 267 419 q 171 357 178 419 q 207 293 164 293 q 260 357 253 293 m 513 90 q 476 153 521 153 q 424 90 432 153 q 460 26 415 26 q 513 90 504 26 m 181 489 q 144 553 189 553 q 92 489 100 553 q 129 426 85 426 q 181 489 174 426 m 433 224 q 396 286 440 286 q 344 224 351 286 q 381 160 338 160 q 433 224 426 160 m 607 90 q 571 153 615 153 q 518 90 526 153 q 554 26 510 26 q 607 90 599 26 m 275 489 q 239 553 283 553 q 186 489 194 553 q 224 426 179 426 q 275 489 268 426 m 529 224 q 492 286 536 286 q 440 224 447 286 q 476 160 433 160 q 529 224 522 160 m 197 622 q 161 686 206 686 q 108 622 117 686 q 144 560 100 560 q 197 622 189 560 m 624 224 q 586 286 631 286 q 535 224 542 286 q 571 160 528 160 q 624 224 617 160 m 292 622 q 256 686 300 686 q 203 622 211 686 q 239 560 194 560 q 292 622 283 560 m 546 357 q 508 419 553 419 q 457 357 464 419 q 493 293 450 293 q 546 357 539 293 m 214 756 q 176 819 222 819 q 125 756 133 819 q 161 693 117 693 q 214 756 206 693 m 465 489 q 429 553 474 553 q 376 489 385 553 q 414 426 369 426 q 465 489 458 426 m 640 357 q 603 419 647 419 q 551 357 558 419 q 588 293 544 293 q 640 357 633 293 m 308 756 q 271 819 317 819 q 219 756 228 819 q 256 693 211 693 q 308 756 300 693 m 561 489 q 525 553 569 553 q 472 489 481 553 q 510 426 465 426 q 561 489 554 426 m 231 889 q 193 953 238 953 q 142 889 149 953 q 178 825 135 825 q 231 889 224 825 m 482 622 q 446 686 490 686 q 393 622 401 686 q 429 560 385 560 q 482 622 474 560 m 656 489 q 619 553 664 553 q 567 489 575 553 q 604 426 560 426 q 656 489 649 426 m 325 889 q 288 953 332 953 q 236 889 243 953 q 272 825 229 825 q 325 889 318 825 m 578 622 q 542 686 586 686 q 489 622 497 686 q 525 560 481 560 q 578 622 569 560 m 421 889 q 383 953 428 953 q 332 889 339 953 q 368 825 325 825 q 421 889 414 825 m 672 622 q 636 686 681 686 q 583 622 592 686 q 619 560 575 560 q 672 622 664 560 m 340 1022 q 304 1086 347 1086 q 251 1022 258 1086 q 289 958 244 958 q 340 1022 333 958 m 515 889 q 478 953 522 953 q 426 889 433 953 q 463 825 419 825 q 515 889 508 825 m 436 1022 q 400 1086 443 1086 q 347 1022 354 1086 q 385 958 340 958 q 436 1022 429 958 m 611 889 q 574 953 618 953 q 522 889 529 953 q 558 825 515 825 q 611 889 604 825 m 531 1022 q 494 1086 538 1086 q 442 1022 449 1086 q 479 958 435 958 q 531 1022 524 958 m 706 889 q 668 953 713 953 q 617 889 624 953 q 653 825 610 825 q 706 889 699 825 m 626 1022 q 590 1086 633 1086 q 538 1022 544 1086 q 575 958 531 958 q 626 1022 619 958 m 721 1022 q 685 1086 728 1086 q 632 1022 639 1086 q 669 958 625 958 q 721 1022 714 958 m 704 15 l 704 17 q 624 -71 693 -71 q 576 -54 593 -71 q 529 -71 557 -71 q 482 -54 499 -71 q 433 -71 463 -71 q 386 -54 403 -71 q 339 -71 367 -71 q 292 -54 308 -71 q 243 -71 272 -71 q 178 -1 181 -71 l 174 -1 q 108 72 108 -1 l 108 92 q 100 132 100 106 l 96 132 q 31 206 31 132 l 31 218 q 32 229 31 224 l 32 226 q 57 292 36 271 q 47 339 47 310 l 47 351 q 49 363 47 357 l 49 360 q 74 425 53 404 q 63 474 63 444 q 64 483 63 478 l 64 493 q 89 558 68 538 q 79 604 79 576 l 79 617 q 81 628 79 622 l 81 626 q 106 692 85 671 q 96 738 96 710 l 96 750 q 97 761 96 756 l 97 760 q 122 825 101 804 q 113 871 113 843 l 113 883 q 114 894 113 889 l 114 892 q 193 981 122 981 q 225 974 211 981 q 222 989 222 981 l 222 1007 q 224 1017 222 1011 l 224 1026 q 304 1114 233 1114 q 350 1097 333 1114 q 400 1114 368 1114 q 446 1097 429 1114 q 494 1114 464 1114 q 540 1097 524 1114 q 590 1114 558 1114 q 636 1097 619 1114 q 685 1114 654 1114 q 750 1044 747 1114 l 754 1044 q 819 971 819 1044 l 819 958 q 818 947 819 953 l 818 950 q 793 883 814 906 q 804 835 804 865 l 804 828 q 803 819 803 822 l 803 815 q 722 728 792 728 q 675 743 693 728 q 628 728 656 728 q 581 743 599 728 q 532 728 564 728 q 485 743 503 728 q 438 728 465 728 q 403 735 415 728 q 407 704 407 722 q 446 714 422 714 q 492 697 475 714 q 542 714 510 714 q 588 697 571 714 q 636 714 606 714 q 701 644 699 714 l 706 644 q 771 571 771 644 l 771 558 q 769 547 771 553 l 769 549 q 743 483 764 506 q 754 438 754 465 l 754 425 q 753 414 754 419 l 753 417 q 728 350 749 372 q 739 303 739 332 l 739 296 q 738 288 738 290 l 738 283 q 711 217 731 239 q 722 169 722 199 l 722 163 q 721 154 721 157 l 721 150 q 694 85 714 104 q 706 39 706 65 l 706 26 q 704 15 706 21 m 414 399 q 371 410 389 399 q 347 350 367 372 q 358 304 358 332 q 396 314 374 314 q 432 306 417 314 l 428 347 q 428 356 426 351 q 417 399 417 374 l 414 399 z "},"H":{"ha":676,"x_min":14,"x_max":819,"o":"m 132 90 q 96 153 140 153 q 43 90 51 153 q 79 26 35 26 q 132 90 124 26 m 226 90 q 190 153 235 153 q 138 90 146 153 q 174 26 129 26 q 226 90 218 26 m 149 224 q 111 286 156 286 q 60 224 67 286 q 96 160 53 160 q 149 224 142 160 m 243 224 q 206 286 250 286 q 154 224 161 286 q 190 160 147 160 q 243 224 236 160 m 165 357 q 128 419 172 419 q 76 357 83 419 q 113 293 69 293 q 165 357 158 293 m 260 357 q 222 419 267 419 q 171 357 178 419 q 207 293 164 293 q 260 357 253 293 m 513 90 q 476 153 521 153 q 424 90 432 153 q 460 26 415 26 q 513 90 504 26 m 181 489 q 144 553 189 553 q 92 489 100 553 q 129 426 85 426 q 181 489 174 426 m 607 90 q 571 153 615 153 q 518 90 526 153 q 554 26 510 26 q 607 90 599 26 m 275 489 q 239 553 283 553 q 186 489 194 553 q 224 426 179 426 q 275 489 268 426 m 529 224 q 492 286 536 286 q 440 224 447 286 q 476 160 433 160 q 529 224 522 160 m 197 622 q 161 686 206 686 q 108 622 117 686 q 144 560 100 560 q 197 622 189 560 m 371 489 q 335 553 379 553 q 282 489 290 553 q 319 426 275 426 q 371 489 364 426 m 624 224 q 586 286 631 286 q 535 224 542 286 q 571 160 528 160 q 624 224 617 160 m 292 622 q 256 686 300 686 q 203 622 211 686 q 239 560 194 560 q 292 622 283 560 m 546 357 q 508 419 553 419 q 457 357 464 419 q 493 293 450 293 q 546 357 539 293 m 214 756 q 176 819 222 819 q 125 756 133 819 q 161 693 117 693 q 214 756 206 693 m 465 489 q 429 553 474 553 q 376 489 385 553 q 414 426 369 426 q 465 489 458 426 m 388 622 q 351 686 396 686 q 299 622 307 686 q 335 560 290 560 q 388 622 379 560 m 640 357 q 603 419 647 419 q 551 357 558 419 q 588 293 544 293 q 640 357 633 293 m 308 756 q 271 819 317 819 q 219 756 228 819 q 256 693 211 693 q 308 756 300 693 m 561 489 q 525 553 569 553 q 472 489 481 553 q 510 426 465 426 q 561 489 554 426 m 231 889 q 193 953 238 953 q 142 889 149 953 q 178 825 135 825 q 231 889 224 825 m 482 622 q 446 686 490 686 q 393 622 401 686 q 429 560 385 560 q 482 622 474 560 m 656 489 q 619 553 664 553 q 567 489 575 553 q 604 426 560 426 q 656 489 649 426 m 325 889 q 288 953 332 953 q 236 889 243 953 q 272 825 229 825 q 325 889 318 825 m 578 622 q 542 686 586 686 q 489 622 497 686 q 525 560 481 560 q 578 622 569 560 m 246 1022 q 210 1086 253 1086 q 157 1022 164 1086 q 194 958 150 958 q 246 1022 239 958 m 672 622 q 636 686 681 686 q 583 622 592 686 q 619 560 575 560 q 672 622 664 560 m 340 1022 q 304 1086 347 1086 q 251 1022 258 1086 q 289 958 244 958 q 340 1022 333 958 m 594 756 q 557 819 603 819 q 506 756 514 819 q 542 693 497 693 q 594 756 586 693 m 689 756 q 651 819 697 819 q 600 756 608 819 q 636 693 592 693 q 689 756 681 693 m 611 889 q 574 953 618 953 q 522 889 529 953 q 558 825 515 825 q 611 889 604 825 m 706 889 q 668 953 713 953 q 617 889 624 953 q 653 825 610 825 q 706 889 699 825 m 626 1022 q 590 1086 633 1086 q 538 1022 544 1086 q 575 958 531 958 q 626 1022 619 958 m 721 1022 q 685 1086 728 1086 q 632 1022 639 1086 q 669 958 625 958 q 721 1022 714 958 m 422 819 l 422 815 q 396 750 415 769 q 407 704 407 732 q 446 714 422 714 q 481 706 465 714 q 476 738 476 719 l 476 750 q 478 761 476 756 l 478 760 q 503 825 482 804 q 493 871 493 843 l 493 883 q 494 894 493 889 l 494 892 q 518 957 499 935 q 508 1007 508 975 q 510 1017 508 1011 l 510 1026 q 590 1114 519 1114 q 636 1097 619 1114 q 685 1114 654 1114 q 750 1044 747 1114 l 754 1044 q 819 971 819 1044 l 819 958 q 818 947 819 953 l 818 950 q 793 883 814 906 q 804 835 804 865 l 804 828 q 803 819 803 822 l 803 815 q 776 750 796 769 q 788 703 788 731 l 788 692 q 785 679 788 688 l 786 682 q 760 617 781 639 q 771 571 771 599 l 771 558 q 769 547 771 553 l 769 549 q 743 483 764 506 q 754 438 754 465 l 754 425 q 753 414 754 419 l 753 417 q 728 350 749 372 q 739 303 739 332 l 739 296 q 738 288 738 290 l 738 283 q 711 217 731 239 q 722 169 722 199 l 722 163 q 721 154 721 157 l 721 150 q 694 85 714 104 q 706 39 706 65 l 706 26 q 704 15 706 21 l 704 17 q 624 -71 693 -71 q 576 -54 593 -71 q 529 -71 557 -71 q 464 -1 467 -71 l 460 -1 q 394 72 394 -1 l 394 85 q 396 96 394 90 l 396 94 q 421 158 400 138 q 411 206 411 176 l 411 218 q 413 229 411 224 l 413 226 q 438 292 417 271 q 428 338 428 310 q 389 329 411 329 q 354 336 367 329 q 358 303 358 321 l 358 296 q 357 288 357 290 l 357 283 q 331 217 350 239 q 342 169 342 199 l 342 163 q 340 154 340 157 l 340 150 q 314 85 333 104 q 325 39 325 65 l 325 26 q 324 15 325 21 l 324 17 q 243 -71 313 -71 q 196 -54 213 -71 q 149 -71 176 -71 q 83 -1 86 -71 l 79 -1 q 14 72 14 -1 l 14 85 q 15 96 14 90 l 15 94 q 40 158 19 138 q 31 206 31 176 l 31 218 q 32 229 31 224 l 32 226 q 57 292 36 271 q 47 339 47 310 l 47 351 q 49 363 47 357 l 49 360 q 74 425 53 404 q 63 474 63 444 q 64 483 63 478 l 64 493 q 89 558 68 538 q 79 604 79 576 l 79 617 q 81 628 79 622 l 81 626 q 106 692 85 671 q 96 738 96 710 l 96 750 q 97 761 96 756 l 97 760 q 122 825 101 804 q 113 871 113 843 l 113 883 q 114 894 113 889 l 114 892 q 138 957 118 935 q 128 1007 128 975 q 129 1017 128 1011 l 129 1026 q 210 1114 139 1114 q 256 1097 239 1114 q 304 1114 274 1114 q 369 1044 367 1114 l 374 1044 q 439 971 439 1044 l 439 958 q 438 947 439 953 l 438 950 q 413 883 433 906 q 424 835 424 865 l 424 828 q 422 819 422 822 z "},"I":{"ha":296,"x_min":14,"x_max":439,"o":"m 132 90 q 96 153 140 153 q 43 90 51 153 q 79 26 35 26 q 132 90 124 26 m 226 90 q 190 153 235 153 q 138 90 146 153 q 174 26 129 26 q 226 90 218 26 m 149 224 q 111 286 156 286 q 60 224 67 286 q 96 160 53 160 q 149 224 142 160 m 243 224 q 206 286 250 286 q 154 224 161 286 q 190 160 147 160 q 243 224 236 160 m 165 357 q 128 419 172 419 q 76 357 83 419 q 113 293 69 293 q 165 357 158 293 m 260 357 q 222 419 267 419 q 171 357 178 419 q 207 293 164 293 q 260 357 253 293 m 181 489 q 144 553 189 553 q 92 489 100 553 q 129 426 85 426 q 181 489 174 426 m 275 489 q 239 553 283 553 q 186 489 194 553 q 224 426 179 426 q 275 489 268 426 m 197 622 q 161 686 206 686 q 108 622 117 686 q 144 560 100 560 q 197 622 189 560 m 292 622 q 256 686 300 686 q 203 622 211 686 q 239 560 194 560 q 292 622 283 560 m 214 756 q 176 819 222 819 q 125 756 133 819 q 161 693 117 693 q 214 756 206 693 m 308 756 q 271 819 317 819 q 219 756 228 819 q 256 693 211 693 q 308 756 300 693 m 231 889 q 193 953 238 953 q 142 889 149 953 q 178 825 135 825 q 231 889 224 825 m 325 889 q 288 953 332 953 q 236 889 243 953 q 272 825 229 825 q 325 889 318 825 m 246 1022 q 210 1086 253 1086 q 157 1022 164 1086 q 194 958 150 958 q 246 1022 239 958 m 340 1022 q 304 1086 347 1086 q 251 1022 258 1086 q 289 958 244 958 q 340 1022 333 958 m 324 15 l 324 17 q 243 -71 313 -71 q 196 -54 213 -71 q 149 -71 176 -71 q 83 -1 86 -71 l 79 -1 q 14 72 14 -1 l 14 85 q 15 96 14 90 l 15 94 q 40 158 19 138 q 31 206 31 176 l 31 218 q 32 229 31 224 l 32 226 q 57 292 36 271 q 47 339 47 310 l 47 351 q 49 363 47 357 l 49 360 q 74 425 53 404 q 63 474 63 444 q 64 483 63 478 l 64 493 q 89 558 68 538 q 79 604 79 576 l 79 617 q 81 628 79 622 l 81 626 q 106 692 85 671 q 96 738 96 710 l 96 750 q 97 761 96 756 l 97 760 q 122 825 101 804 q 113 871 113 843 l 113 883 q 114 894 113 889 l 114 892 q 138 957 118 935 q 128 1007 128 975 q 129 1017 128 1011 l 129 1026 q 210 1114 139 1114 q 256 1097 239 1114 q 304 1114 274 1114 q 369 1044 367 1114 l 374 1044 q 439 971 439 1044 l 439 958 q 438 947 439 953 l 438 950 q 413 883 433 906 q 424 835 424 865 l 424 828 q 422 819 422 822 l 422 815 q 396 750 415 769 q 407 703 407 731 l 407 692 q 404 679 407 688 l 406 682 q 379 617 400 639 q 390 571 390 599 l 390 558 q 389 547 390 553 l 389 549 q 363 483 383 506 q 374 438 374 465 l 374 425 q 372 414 374 419 l 372 417 q 347 350 368 372 q 358 303 358 332 l 358 296 q 357 288 357 290 l 357 283 q 331 217 350 239 q 342 169 342 199 l 342 163 q 340 154 340 157 l 340 150 q 314 85 333 104 q 325 39 325 65 l 325 26 q 324 15 325 21 z "},"J":{"ha":675,"x_min":31,"x_max":819,"o":"m 226 90 q 190 153 235 153 q 138 90 146 153 q 174 26 129 26 q 226 90 218 26 m 149 224 q 111 286 156 286 q 60 224 67 286 q 96 160 53 160 q 149 224 142 160 m 322 90 q 286 153 331 153 q 233 90 242 153 q 269 26 225 26 q 322 90 314 26 m 243 224 q 206 286 250 286 q 154 224 161 286 q 190 160 147 160 q 243 224 236 160 m 165 357 q 128 419 172 419 q 76 357 83 419 q 113 293 69 293 q 165 357 158 293 m 417 90 q 381 153 425 153 q 328 90 336 153 q 364 26 319 26 q 417 90 408 26 m 339 224 q 301 286 346 286 q 250 224 257 286 q 286 160 243 160 q 339 224 332 160 m 260 357 q 222 419 267 419 q 171 357 178 419 q 207 293 164 293 q 260 357 253 293 m 513 90 q 476 153 521 153 q 424 90 432 153 q 460 26 415 26 q 513 90 504 26 m 433 224 q 396 286 440 286 q 344 224 351 286 q 381 160 338 160 q 433 224 426 160 m 529 224 q 492 286 536 286 q 440 224 447 286 q 476 160 433 160 q 529 224 522 160 m 624 224 q 586 286 631 286 q 535 224 542 286 q 571 160 528 160 q 624 224 617 160 m 546 357 q 508 419 553 419 q 457 357 464 419 q 493 293 450 293 q 546 357 539 293 m 640 357 q 603 419 647 419 q 551 357 558 419 q 588 293 544 293 q 640 357 633 293 m 561 489 q 525 553 569 553 q 472 489 481 553 q 510 426 465 426 q 561 489 554 426 m 656 489 q 619 553 664 553 q 567 489 575 553 q 604 426 560 426 q 656 489 649 426 m 578 622 q 542 686 586 686 q 489 622 497 686 q 525 560 481 560 q 578 622 569 560 m 672 622 q 636 686 681 686 q 583 622 592 686 q 619 560 575 560 q 672 622 664 560 m 594 756 q 557 819 603 819 q 506 756 514 819 q 542 693 497 693 q 594 756 586 693 m 689 756 q 651 819 697 819 q 600 756 608 819 q 636 693 592 693 q 689 756 681 693 m 611 889 q 574 953 618 953 q 522 889 529 953 q 558 825 515 825 q 611 889 604 825 m 706 889 q 668 953 713 953 q 617 889 624 953 q 653 825 610 825 q 706 889 699 825 m 626 1022 q 590 1086 633 1086 q 538 1022 544 1086 q 575 958 531 958 q 626 1022 619 958 m 721 1022 q 685 1086 728 1086 q 632 1022 639 1086 q 669 958 625 958 q 721 1022 714 958 m 610 15 l 610 17 q 529 -71 599 -71 q 482 -54 499 -71 q 433 -71 463 -71 q 386 -54 403 -71 q 339 -71 367 -71 q 292 -54 308 -71 q 243 -71 272 -71 q 178 -1 181 -71 l 174 -1 q 108 72 108 -1 l 108 92 q 100 132 100 106 l 96 132 q 31 206 31 132 l 31 218 q 32 229 31 224 l 32 226 q 57 292 36 271 q 47 339 47 310 l 47 351 q 49 363 47 357 l 49 360 q 128 447 57 447 q 175 431 158 447 q 222 447 193 447 q 289 378 288 447 l 292 378 q 358 304 357 378 q 396 314 374 314 q 432 306 417 314 q 428 339 428 319 l 428 351 q 429 363 428 357 l 429 360 q 454 425 433 404 q 443 474 443 444 q 444 483 443 478 l 444 493 q 469 558 449 538 q 460 604 460 576 l 460 617 q 461 628 460 622 l 461 626 q 486 692 465 671 q 476 738 476 710 l 476 750 q 478 761 476 756 l 478 760 q 503 825 482 804 q 493 871 493 843 l 493 883 q 494 894 493 889 l 494 892 q 518 957 499 935 q 508 1007 508 975 q 510 1017 508 1011 l 510 1026 q 590 1114 519 1114 q 636 1097 619 1114 q 685 1114 654 1114 q 750 1044 747 1114 l 754 1044 q 819 971 819 1044 l 819 958 q 818 947 819 953 l 818 950 q 793 883 814 906 q 804 835 804 865 l 804 828 q 803 819 803 822 l 803 815 q 776 750 796 769 q 788 703 788 731 l 788 692 q 785 679 788 688 l 786 682 q 760 617 781 639 q 771 571 771 599 l 771 558 q 769 547 771 553 l 769 549 q 743 483 764 506 q 754 438 754 465 l 754 425 q 753 414 754 419 l 753 417 q 728 350 749 372 q 739 303 739 332 l 739 296 q 738 288 738 290 l 738 283 q 711 217 731 239 q 722 169 722 199 l 722 163 q 721 154 721 157 l 721 150 q 640 63 710 63 q 607 69 617 63 q 611 39 611 54 l 611 26 q 610 15 611 21 z "},"K":{"ha":744,"x_min":14,"x_max":915,"o":"m 132 90 q 96 153 140 153 q 43 90 51 153 q 79 26 35 26 q 132 90 124 26 m 226 90 q 190 153 235 153 q 138 90 146 153 q 174 26 129 26 q 226 90 218 26 m 149 224 q 111 286 156 286 q 60 224 67 286 q 96 160 53 160 q 149 224 142 160 m 243 224 q 206 286 250 286 q 154 224 161 286 q 190 160 147 160 q 243 224 236 160 m 165 357 q 128 419 172 419 q 76 357 83 419 q 113 293 69 293 q 165 357 158 293 m 260 357 q 222 419 267 419 q 171 357 178 419 q 207 293 164 293 q 260 357 253 293 m 181 489 q 144 553 189 553 q 92 489 100 553 q 129 426 85 426 q 181 489 174 426 m 607 90 q 571 153 615 153 q 518 90 526 153 q 554 26 510 26 q 607 90 599 26 m 275 489 q 239 553 283 553 q 186 489 194 553 q 224 426 179 426 q 275 489 268 426 m 529 224 q 492 286 536 286 q 440 224 447 286 q 476 160 433 160 q 529 224 522 160 m 197 622 q 161 686 206 686 q 108 622 117 686 q 144 560 100 560 q 197 622 189 560 m 450 357 q 413 419 457 419 q 361 357 368 419 q 397 293 354 293 q 450 357 443 293 m 703 90 q 667 153 711 153 q 614 90 622 153 q 650 26 606 26 q 703 90 694 26 m 371 489 q 335 553 379 553 q 282 489 290 553 q 319 426 275 426 q 371 489 364 426 m 624 224 q 586 286 631 286 q 535 224 542 286 q 571 160 528 160 q 624 224 617 160 m 292 622 q 256 686 300 686 q 203 622 211 686 q 239 560 194 560 q 292 622 283 560 m 546 357 q 508 419 553 419 q 457 357 464 419 q 493 293 450 293 q 546 357 539 293 m 214 756 q 176 819 222 819 q 125 756 133 819 q 161 693 117 693 q 214 756 206 693 m 465 489 q 429 553 474 553 q 376 489 385 553 q 414 426 369 426 q 465 489 458 426 m 388 622 q 351 686 396 686 q 299 622 307 686 q 335 560 290 560 q 388 622 379 560 m 308 756 q 271 819 317 819 q 219 756 228 819 q 256 693 211 693 q 308 756 300 693 m 231 889 q 193 953 238 953 q 142 889 149 953 q 178 825 135 825 q 231 889 224 825 m 482 622 q 446 686 490 686 q 393 622 401 686 q 429 560 385 560 q 482 622 474 560 m 325 889 q 288 953 332 953 q 236 889 243 953 q 272 825 229 825 q 325 889 318 825 m 246 1022 q 210 1086 253 1086 q 157 1022 164 1086 q 194 958 150 958 q 246 1022 239 958 m 499 756 q 461 819 507 819 q 410 756 418 819 q 446 693 401 693 q 499 756 490 693 m 340 1022 q 304 1086 347 1086 q 251 1022 258 1086 q 289 958 244 958 q 340 1022 333 958 m 594 756 q 557 819 603 819 q 506 756 514 819 q 542 693 497 693 q 594 756 586 693 m 611 889 q 574 953 618 953 q 522 889 529 953 q 558 825 515 825 q 611 889 604 825 m 706 889 q 668 953 713 953 q 617 889 624 953 q 653 825 610 825 q 706 889 699 825 m 721 1022 q 685 1086 728 1086 q 632 1022 639 1086 q 669 958 625 958 q 721 1022 714 958 m 817 1022 q 781 1086 824 1086 q 728 1022 735 1086 q 765 958 721 958 q 817 1022 810 958 m 438 947 l 438 950 q 413 883 433 906 q 424 839 421 869 q 461 847 438 847 q 497 839 482 847 q 493 871 493 853 l 493 883 q 494 894 493 889 l 494 892 q 574 981 503 981 q 606 974 592 981 q 603 989 603 981 l 603 1007 q 604 1017 603 1011 l 604 1026 q 685 1114 614 1114 q 731 1097 714 1114 q 781 1114 749 1114 q 846 1044 843 1114 l 850 1044 q 915 971 915 1044 l 915 958 q 914 947 915 953 l 914 950 q 835 861 906 861 q 800 868 813 861 q 804 835 804 853 l 804 828 q 803 819 803 822 l 803 815 q 722 728 792 728 q 689 733 701 728 q 693 703 693 721 l 693 692 q 690 679 693 688 l 692 682 q 611 596 681 596 q 576 603 593 596 q 581 571 581 590 l 581 558 q 579 547 581 553 l 579 549 q 553 483 574 506 q 564 438 564 465 l 564 421 q 575 378 572 407 l 578 378 q 644 303 644 378 l 644 296 q 643 288 643 290 l 643 285 q 653 244 650 272 l 656 244 q 722 169 722 244 l 722 163 q 721 154 721 157 q 732 111 732 136 l 736 111 q 801 39 801 111 l 801 26 q 800 15 801 21 l 800 17 q 719 -71 789 -71 q 672 -54 689 -71 q 624 -71 653 -71 q 558 -1 561 -71 l 554 -1 q 489 72 489 -1 l 489 92 q 481 132 481 106 l 476 132 q 422 157 436 132 q 411 214 418 164 q 411 222 410 218 q 401 265 401 238 l 397 265 q 356 276 371 265 q 331 217 349 238 q 342 169 342 199 l 342 163 q 340 154 340 157 l 340 150 q 314 85 333 104 q 325 39 325 65 l 325 26 q 324 15 325 21 l 324 17 q 243 -71 313 -71 q 196 -54 213 -71 q 149 -71 176 -71 q 83 -1 86 -71 l 79 -1 q 14 72 14 -1 l 14 85 q 15 96 14 90 l 15 94 q 40 158 19 138 q 31 206 31 176 l 31 218 q 32 229 31 224 l 32 226 q 57 292 36 271 q 47 339 47 310 l 47 351 q 49 363 47 357 l 49 360 q 74 425 53 404 q 63 474 63 444 q 64 483 63 478 l 64 493 q 89 558 68 538 q 79 604 79 576 l 79 617 q 81 628 79 622 l 81 626 q 106 692 85 671 q 96 738 96 710 l 96 750 q 97 761 96 756 l 97 760 q 122 825 101 804 q 113 871 113 843 l 113 883 q 114 894 113 889 l 114 892 q 138 957 118 935 q 128 1007 128 975 q 129 1017 128 1011 l 129 1026 q 210 1114 139 1114 q 256 1097 239 1114 q 304 1114 274 1114 q 369 1044 367 1114 l 374 1044 q 439 971 439 1044 l 439 958 q 438 947 439 953 z "},"L":{"ha":619,"x_min":14,"x_max":722,"o":"m 132 90 q 96 153 140 153 q 43 90 51 153 q 79 26 35 26 q 132 90 124 26 m 226 90 q 190 153 235 153 q 138 90 146 153 q 174 26 129 26 q 226 90 218 26 m 149 224 q 111 286 156 286 q 60 224 67 286 q 96 160 53 160 q 149 224 142 160 m 322 90 q 286 153 331 153 q 233 90 242 153 q 269 26 225 26 q 322 90 314 26 m 243 224 q 206 286 250 286 q 154 224 161 286 q 190 160 147 160 q 243 224 236 160 m 165 357 q 128 419 172 419 q 76 357 83 419 q 113 293 69 293 q 165 357 158 293 m 417 90 q 381 153 425 153 q 328 90 336 153 q 364 26 319 26 q 417 90 408 26 m 339 224 q 301 286 346 286 q 250 224 257 286 q 286 160 243 160 q 339 224 332 160 m 260 357 q 222 419 267 419 q 171 357 178 419 q 207 293 164 293 q 260 357 253 293 m 513 90 q 476 153 521 153 q 424 90 432 153 q 460 26 415 26 q 513 90 504 26 m 181 489 q 144 553 189 553 q 92 489 100 553 q 129 426 85 426 q 181 489 174 426 m 433 224 q 396 286 440 286 q 344 224 351 286 q 381 160 338 160 q 433 224 426 160 m 607 90 q 571 153 615 153 q 518 90 526 153 q 554 26 510 26 q 607 90 599 26 m 275 489 q 239 553 283 553 q 186 489 194 553 q 224 426 179 426 q 275 489 268 426 m 529 224 q 492 286 536 286 q 440 224 447 286 q 476 160 433 160 q 529 224 522 160 m 197 622 q 161 686 206 686 q 108 622 117 686 q 144 560 100 560 q 197 622 189 560 m 624 224 q 586 286 631 286 q 535 224 542 286 q 571 160 528 160 q 624 224 617 160 m 292 622 q 256 686 300 686 q 203 622 211 686 q 239 560 194 560 q 292 622 283 560 m 214 756 q 176 819 222 819 q 125 756 133 819 q 161 693 117 693 q 214 756 206 693 m 308 756 q 271 819 317 819 q 219 756 228 819 q 256 693 211 693 q 308 756 300 693 m 231 889 q 193 953 238 953 q 142 889 149 953 q 178 825 135 825 q 231 889 224 825 m 325 889 q 288 953 332 953 q 236 889 243 953 q 272 825 229 825 q 325 889 318 825 m 246 1022 q 210 1086 253 1086 q 157 1022 164 1086 q 194 958 150 958 q 246 1022 239 958 m 340 1022 q 304 1086 347 1086 q 251 1022 258 1086 q 289 958 244 958 q 340 1022 333 958 m 704 15 l 704 17 q 624 -71 693 -71 q 576 -54 593 -71 q 529 -71 557 -71 q 482 -54 499 -71 q 433 -71 463 -71 q 386 -54 403 -71 q 339 -71 367 -71 q 292 -54 308 -71 q 243 -71 272 -71 q 196 -54 213 -71 q 149 -71 176 -71 q 83 -1 86 -71 l 79 -1 q 14 72 14 -1 l 14 85 q 15 96 14 90 l 15 94 q 40 158 19 138 q 31 206 31 176 l 31 218 q 32 229 31 224 l 32 226 q 57 292 36 271 q 47 339 47 310 l 47 351 q 49 363 47 357 l 49 360 q 74 425 53 404 q 63 474 63 444 q 64 483 63 478 l 64 493 q 89 558 68 538 q 79 604 79 576 l 79 617 q 81 628 79 622 l 81 626 q 106 692 85 671 q 96 738 96 710 l 96 750 q 97 761 96 756 l 97 760 q 122 825 101 804 q 113 871 113 843 l 113 883 q 114 894 113 889 l 114 892 q 138 957 118 935 q 128 1007 128 975 q 129 1017 128 1011 l 129 1026 q 210 1114 139 1114 q 256 1097 239 1114 q 304 1114 274 1114 q 369 1044 367 1114 l 374 1044 q 439 971 439 1044 l 439 958 q 438 947 439 953 l 438 950 q 413 883 433 906 q 424 835 424 865 l 424 828 q 422 819 422 822 l 422 815 q 396 750 415 769 q 407 703 407 731 l 407 692 q 404 679 407 688 l 406 682 q 379 617 400 639 q 390 571 390 599 l 390 558 q 389 547 390 553 l 389 549 q 363 483 383 506 q 374 438 374 465 l 374 425 q 372 414 374 419 l 372 417 q 347 350 368 372 q 358 304 358 332 q 396 314 374 314 q 443 297 426 314 q 492 314 461 314 q 539 297 522 314 q 586 314 557 314 q 653 244 651 314 l 656 244 q 722 169 722 244 l 722 163 q 721 154 721 157 l 721 150 q 694 85 714 104 q 706 39 706 65 l 706 26 q 704 15 706 21 z "},"M":{"ha":865,"x_min":14,"x_max":994,"o":"m 132 90 q 96 153 140 153 q 43 90 51 153 q 79 26 35 26 q 132 90 124 26 m 226 90 q 190 153 235 153 q 138 90 146 153 q 174 26 129 26 q 226 90 218 26 m 149 224 q 111 286 156 286 q 60 224 67 286 q 96 160 53 160 q 149 224 142 160 m 243 224 q 206 286 250 286 q 154 224 161 286 q 190 160 147 160 q 243 224 236 160 m 165 357 q 128 419 172 419 q 76 357 83 419 q 113 293 69 293 q 165 357 158 293 m 417 90 q 381 153 425 153 q 328 90 336 153 q 364 26 319 26 q 417 90 408 26 m 260 357 q 222 419 267 419 q 171 357 178 419 q 207 293 164 293 q 260 357 253 293 m 513 90 q 476 153 521 153 q 424 90 432 153 q 460 26 415 26 q 513 90 504 26 m 181 489 q 144 553 189 553 q 92 489 100 553 q 129 426 85 426 q 181 489 174 426 m 433 224 q 396 286 440 286 q 344 224 351 286 q 381 160 338 160 q 433 224 426 160 m 275 489 q 239 553 283 553 q 186 489 194 553 q 224 426 179 426 q 275 489 268 426 m 529 224 q 492 286 536 286 q 440 224 447 286 q 476 160 433 160 q 529 224 522 160 m 197 622 q 161 686 206 686 q 108 622 117 686 q 144 560 100 560 q 197 622 189 560 m 450 357 q 413 419 457 419 q 361 357 368 419 q 397 293 354 293 q 450 357 443 293 m 703 90 q 667 153 711 153 q 614 90 622 153 q 650 26 606 26 q 703 90 694 26 m 292 622 q 256 686 300 686 q 203 622 211 686 q 239 560 194 560 q 292 622 283 560 m 546 357 q 508 419 553 419 q 457 357 464 419 q 493 293 450 293 q 546 357 539 293 m 797 90 q 761 153 806 153 q 708 90 717 153 q 744 26 700 26 q 797 90 789 26 m 214 756 q 176 819 222 819 q 125 756 133 819 q 161 693 117 693 q 214 756 206 693 m 465 489 q 429 553 474 553 q 376 489 385 553 q 414 426 369 426 q 465 489 458 426 m 719 224 q 682 286 726 286 q 631 224 638 286 q 667 160 624 160 q 719 224 713 160 m 308 756 q 271 819 317 819 q 219 756 228 819 q 256 693 211 693 q 308 756 300 693 m 561 489 q 525 553 569 553 q 472 489 481 553 q 510 426 465 426 q 561 489 554 426 m 814 224 q 776 286 821 286 q 725 224 732 286 q 761 160 718 160 q 814 224 807 160 m 231 889 q 193 953 238 953 q 142 889 149 953 q 178 825 135 825 q 231 889 224 825 m 482 622 q 446 686 490 686 q 393 622 401 686 q 429 560 385 560 q 482 622 474 560 m 736 357 q 699 419 743 419 q 647 357 654 419 q 683 293 640 293 q 736 357 729 293 m 325 889 q 288 953 332 953 q 236 889 243 953 q 272 825 229 825 q 325 889 318 825 m 578 622 q 542 686 586 686 q 489 622 497 686 q 525 560 481 560 q 578 622 569 560 m 831 357 q 793 419 838 419 q 742 357 749 419 q 778 293 735 293 q 831 357 824 293 m 499 756 q 461 819 507 819 q 410 756 418 819 q 446 693 401 693 q 499 756 490 693 m 751 489 q 715 553 760 553 q 663 489 671 553 q 700 426 656 426 q 751 489 744 426 m 421 889 q 383 953 428 953 q 332 889 339 953 q 368 825 325 825 q 421 889 414 825 m 340 1022 q 304 1086 347 1086 q 251 1022 258 1086 q 289 958 244 958 q 340 1022 333 958 m 594 756 q 557 819 603 819 q 506 756 514 819 q 542 693 497 693 q 594 756 586 693 m 846 489 q 810 553 854 553 q 757 489 765 553 q 794 426 750 426 q 846 489 839 426 m 515 889 q 478 953 522 953 q 426 889 433 953 q 463 825 419 825 q 515 889 508 825 m 768 622 q 732 686 776 686 q 679 622 688 686 q 715 560 671 560 q 768 622 760 560 m 436 1022 q 400 1086 443 1086 q 347 1022 354 1086 q 385 958 340 958 q 436 1022 429 958 m 611 889 q 574 953 618 953 q 522 889 529 953 q 558 825 515 825 q 611 889 604 825 m 863 622 q 826 686 871 686 q 774 622 782 686 q 810 560 765 560 q 863 622 854 560 m 531 1022 q 494 1086 538 1086 q 442 1022 449 1086 q 479 958 435 958 q 531 1022 524 958 m 785 756 q 747 819 793 819 q 696 756 704 819 q 732 693 688 693 q 785 756 776 693 m 706 889 q 668 953 713 953 q 617 889 624 953 q 653 825 610 825 q 706 889 699 825 m 626 1022 q 590 1086 633 1086 q 538 1022 544 1086 q 575 958 531 958 q 626 1022 619 958 m 879 756 q 842 819 888 819 q 790 756 799 819 q 826 693 782 693 q 879 756 871 693 m 801 889 q 764 953 808 953 q 713 889 719 953 q 749 825 706 825 q 801 889 794 825 m 721 1022 q 685 1086 728 1086 q 632 1022 639 1086 q 669 958 625 958 q 721 1022 714 958 m 896 889 q 858 953 903 953 q 807 889 814 953 q 843 825 800 825 q 896 889 889 825 m 817 1022 q 781 1086 824 1086 q 728 1022 735 1086 q 765 958 721 958 q 817 1022 810 958 m 894 15 l 894 17 q 814 -71 883 -71 q 767 -54 783 -71 q 719 -71 747 -71 q 654 -1 657 -71 l 650 -1 q 608 10 624 -1 q 529 -71 596 -71 q 482 -54 499 -71 q 433 -71 463 -71 q 368 -1 371 -71 l 364 -1 q 322 10 338 -1 q 243 -71 310 -71 q 196 -54 213 -71 q 149 -71 176 -71 q 83 -1 86 -71 l 79 -1 q 14 72 14 -1 l 14 85 q 15 96 14 90 l 15 94 q 40 158 19 138 q 31 206 31 176 l 31 218 q 32 229 31 224 l 32 226 q 57 292 36 271 q 47 339 47 310 l 47 351 q 49 363 47 357 l 49 360 q 74 425 53 404 q 63 474 63 444 q 64 483 63 478 l 64 493 q 89 558 68 538 q 79 604 79 576 l 79 617 q 81 628 79 622 l 81 626 q 106 692 85 671 q 96 738 96 710 l 96 750 q 97 761 96 756 l 97 760 q 122 825 101 804 q 113 871 113 843 l 113 883 q 114 894 113 889 l 114 892 q 193 981 122 981 q 225 974 211 981 q 222 989 222 981 l 222 1007 q 224 1017 222 1011 l 224 1026 q 304 1114 233 1114 q 350 1097 333 1114 q 400 1114 368 1114 q 446 1097 429 1114 q 494 1114 464 1114 q 540 1097 524 1114 q 590 1114 558 1114 q 636 1097 619 1114 q 685 1114 654 1114 q 731 1097 714 1114 q 781 1114 749 1114 q 846 1044 843 1114 l 850 1044 q 915 971 915 1044 q 914 953 915 958 q 925 911 922 939 l 928 911 q 994 835 994 911 l 994 828 q 993 819 993 822 l 993 815 q 967 750 986 769 q 978 703 978 731 l 978 692 q 975 679 978 688 l 976 682 q 950 617 971 639 q 961 571 961 599 l 961 558 q 960 547 961 553 l 960 549 q 933 483 954 506 q 944 438 944 465 l 944 425 q 943 414 944 419 l 943 417 q 918 350 939 372 q 929 303 929 332 l 929 296 q 928 288 928 290 l 928 283 q 901 217 921 239 q 913 169 913 199 l 913 163 q 911 154 911 157 l 911 150 q 885 85 904 104 q 896 39 896 65 l 896 26 q 894 15 896 21 z "},"N":{"ha":675,"x_min":14,"x_max":804,"o":"m 132 90 q 96 153 140 153 q 43 90 51 153 q 79 26 35 26 q 132 90 124 26 m 226 90 q 190 153 235 153 q 138 90 146 153 q 174 26 129 26 q 226 90 218 26 m 149 224 q 111 286 156 286 q 60 224 67 286 q 96 160 53 160 q 149 224 142 160 m 243 224 q 206 286 250 286 q 154 224 161 286 q 190 160 147 160 q 243 224 236 160 m 165 357 q 128 419 172 419 q 76 357 83 419 q 113 293 69 293 q 165 357 158 293 m 260 357 q 222 419 267 419 q 171 357 178 419 q 207 293 164 293 q 260 357 253 293 m 513 90 q 476 153 521 153 q 424 90 432 153 q 460 26 415 26 q 513 90 504 26 m 181 489 q 144 553 189 553 q 92 489 100 553 q 129 426 85 426 q 181 489 174 426 m 607 90 q 571 153 615 153 q 518 90 526 153 q 554 26 510 26 q 607 90 599 26 m 275 489 q 239 553 283 553 q 186 489 194 553 q 224 426 179 426 q 275 489 268 426 m 529 224 q 492 286 536 286 q 440 224 447 286 q 476 160 433 160 q 529 224 522 160 m 197 622 q 161 686 206 686 q 108 622 117 686 q 144 560 100 560 q 197 622 189 560 m 624 224 q 586 286 631 286 q 535 224 542 286 q 571 160 528 160 q 624 224 617 160 m 292 622 q 256 686 300 686 q 203 622 211 686 q 239 560 194 560 q 292 622 283 560 m 546 357 q 508 419 553 419 q 457 357 464 419 q 493 293 450 293 q 546 357 539 293 m 214 756 q 176 819 222 819 q 125 756 133 819 q 161 693 117 693 q 214 756 206 693 m 640 357 q 603 419 647 419 q 551 357 558 419 q 588 293 544 293 q 640 357 633 293 m 308 756 q 271 819 317 819 q 219 756 228 819 q 256 693 211 693 q 308 756 300 693 m 561 489 q 525 553 569 553 q 472 489 481 553 q 510 426 465 426 q 561 489 554 426 m 231 889 q 193 953 238 953 q 142 889 149 953 q 178 825 135 825 q 231 889 224 825 m 656 489 q 619 553 664 553 q 567 489 575 553 q 604 426 560 426 q 656 489 649 426 m 325 889 q 288 953 332 953 q 236 889 243 953 q 272 825 229 825 q 325 889 318 825 m 578 622 q 542 686 586 686 q 489 622 497 686 q 525 560 481 560 q 578 622 569 560 m 421 889 q 383 953 428 953 q 332 889 339 953 q 368 825 325 825 q 421 889 414 825 m 672 622 q 636 686 681 686 q 583 622 592 686 q 619 560 575 560 q 672 622 664 560 m 340 1022 q 304 1086 347 1086 q 251 1022 258 1086 q 289 958 244 958 q 340 1022 333 958 m 594 756 q 557 819 603 819 q 506 756 514 819 q 542 693 497 693 q 594 756 586 693 m 515 889 q 478 953 522 953 q 426 889 433 953 q 463 825 419 825 q 515 889 508 825 m 436 1022 q 400 1086 443 1086 q 347 1022 354 1086 q 385 958 340 958 q 436 1022 429 958 m 689 756 q 651 819 697 819 q 600 756 608 819 q 636 693 592 693 q 689 756 681 693 m 611 889 q 574 953 618 953 q 522 889 529 953 q 558 825 515 825 q 611 889 604 825 m 531 1022 q 494 1086 538 1086 q 442 1022 449 1086 q 479 958 435 958 q 531 1022 524 958 m 706 889 q 668 953 713 953 q 617 889 624 953 q 653 825 610 825 q 706 889 699 825 m 626 1022 q 590 1086 633 1086 q 538 1022 544 1086 q 575 958 531 958 q 626 1022 619 958 m 324 15 l 324 17 q 243 -71 313 -71 q 196 -54 213 -71 q 149 -71 176 -71 q 83 -1 86 -71 l 79 -1 q 14 72 14 -1 l 14 85 q 15 96 14 90 l 15 94 q 40 158 19 138 q 31 206 31 176 l 31 218 q 32 229 31 224 l 32 226 q 57 292 36 271 q 47 339 47 310 l 47 351 q 49 363 47 357 l 49 360 q 74 425 53 404 q 63 474 63 444 q 64 483 63 478 l 64 493 q 89 558 68 538 q 79 604 79 576 l 79 617 q 81 628 79 622 l 81 626 q 106 692 85 671 q 96 738 96 710 l 96 750 q 97 761 96 756 l 97 760 q 122 825 101 804 q 113 871 113 843 l 113 883 q 114 894 113 889 l 114 892 q 193 981 122 981 q 225 974 211 981 q 222 989 222 981 l 222 1007 q 224 1017 222 1011 l 224 1026 q 304 1114 233 1114 q 350 1097 333 1114 q 400 1114 368 1114 q 446 1097 429 1114 q 494 1114 464 1114 q 540 1097 524 1114 q 590 1114 558 1114 q 656 1044 653 1114 l 660 1044 q 725 971 725 1044 q 724 953 725 958 q 735 911 732 939 l 738 911 q 804 835 804 911 l 804 828 q 803 819 803 822 l 803 815 q 776 750 796 769 q 788 703 788 731 l 788 692 q 785 679 788 688 l 786 682 q 760 617 781 639 q 771 571 771 599 l 771 558 q 769 547 771 553 l 769 549 q 743 483 764 506 q 754 438 754 465 l 754 425 q 753 414 754 419 l 753 417 q 728 350 749 372 q 739 303 739 332 l 739 296 q 738 288 738 290 l 738 283 q 711 217 731 239 q 722 169 722 199 l 722 163 q 721 154 721 157 l 721 150 q 694 85 714 104 q 706 39 706 65 l 706 26 q 704 15 706 21 l 704 17 q 624 -71 693 -71 q 576 -54 593 -71 q 529 -71 557 -71 q 464 -1 467 -71 l 460 -1 q 394 72 394 -1 l 394 85 q 396 96 394 90 l 396 94 q 421 158 400 138 q 411 206 411 176 l 411 218 q 413 229 411 224 l 413 226 q 438 292 417 271 q 428 339 428 310 l 428 351 q 429 363 428 357 l 429 360 q 454 425 433 404 q 443 474 443 444 q 444 483 443 478 l 444 493 q 469 558 449 538 q 460 604 460 576 l 460 617 q 461 628 460 622 l 461 626 q 486 692 465 671 q 476 736 476 707 q 438 728 460 728 q 403 735 415 728 q 407 703 407 719 l 407 692 q 404 679 407 688 l 406 682 q 379 617 400 639 q 390 571 390 599 l 390 558 q 389 547 390 553 l 389 549 q 363 483 383 506 q 374 438 374 465 l 374 425 q 372 414 374 419 l 372 417 q 347 350 368 372 q 358 303 358 332 l 358 296 q 357 288 357 290 l 357 283 q 331 217 350 239 q 342 169 342 199 l 342 163 q 340 154 340 157 l 340 150 q 314 85 333 104 q 325 39 325 65 l 325 26 q 324 15 325 21 z "},"O":{"ha":674,"x_min":31,"x_max":804,"o":"m 226 90 q 190 153 235 153 q 138 90 146 153 q 174 26 129 26 q 226 90 218 26 m 149 224 q 111 286 156 286 q 60 224 67 286 q 96 160 53 160 q 149 224 142 160 m 322 90 q 286 153 331 153 q 233 90 242 153 q 269 26 225 26 q 322 90 314 26 m 243 224 q 206 286 250 286 q 154 224 161 286 q 190 160 147 160 q 243 224 236 160 m 165 357 q 128 419 172 419 q 76 357 83 419 q 113 293 69 293 q 165 357 158 293 m 417 90 q 381 153 425 153 q 328 90 336 153 q 364 26 319 26 q 417 90 408 26 m 339 224 q 301 286 346 286 q 250 224 257 286 q 286 160 243 160 q 339 224 332 160 m 260 357 q 222 419 267 419 q 171 357 178 419 q 207 293 164 293 q 260 357 253 293 m 513 90 q 476 153 521 153 q 424 90 432 153 q 460 26 415 26 q 513 90 504 26 m 181 489 q 144 553 189 553 q 92 489 100 553 q 129 426 85 426 q 181 489 174 426 m 433 224 q 396 286 440 286 q 344 224 351 286 q 381 160 338 160 q 433 224 426 160 m 275 489 q 239 553 283 553 q 186 489 194 553 q 224 426 179 426 q 275 489 268 426 m 529 224 q 492 286 536 286 q 440 224 447 286 q 476 160 433 160 q 529 224 522 160 m 197 622 q 161 686 206 686 q 108 622 117 686 q 144 560 100 560 q 197 622 189 560 m 624 224 q 586 286 631 286 q 535 224 542 286 q 571 160 528 160 q 624 224 617 160 m 292 622 q 256 686 300 686 q 203 622 211 686 q 239 560 194 560 q 292 622 283 560 m 546 357 q 508 419 553 419 q 457 357 464 419 q 493 293 450 293 q 546 357 539 293 m 214 756 q 176 819 222 819 q 125 756 133 819 q 161 693 117 693 q 214 756 206 693 m 640 357 q 603 419 647 419 q 551 357 558 419 q 588 293 544 293 q 640 357 633 293 m 308 756 q 271 819 317 819 q 219 756 228 819 q 256 693 211 693 q 308 756 300 693 m 561 489 q 525 553 569 553 q 472 489 481 553 q 510 426 465 426 q 561 489 554 426 m 231 889 q 193 953 238 953 q 142 889 149 953 q 178 825 135 825 q 231 889 224 825 m 656 489 q 619 553 664 553 q 567 489 575 553 q 604 426 560 426 q 656 489 649 426 m 325 889 q 288 953 332 953 q 236 889 243 953 q 272 825 229 825 q 325 889 318 825 m 578 622 q 542 686 586 686 q 489 622 497 686 q 525 560 481 560 q 578 622 569 560 m 421 889 q 383 953 428 953 q 332 889 339 953 q 368 825 325 825 q 421 889 414 825 m 672 622 q 636 686 681 686 q 583 622 592 686 q 619 560 575 560 q 672 622 664 560 m 340 1022 q 304 1086 347 1086 q 251 1022 258 1086 q 289 958 244 958 q 340 1022 333 958 m 594 756 q 557 819 603 819 q 506 756 514 819 q 542 693 497 693 q 594 756 586 693 m 515 889 q 478 953 522 953 q 426 889 433 953 q 463 825 419 825 q 515 889 508 825 m 436 1022 q 400 1086 443 1086 q 347 1022 354 1086 q 385 958 340 958 q 436 1022 429 958 m 689 756 q 651 819 697 819 q 600 756 608 819 q 636 693 592 693 q 689 756 681 693 m 611 889 q 574 953 618 953 q 522 889 529 953 q 558 825 515 825 q 611 889 604 825 m 531 1022 q 494 1086 538 1086 q 442 1022 449 1086 q 479 958 435 958 q 531 1022 524 958 m 706 889 q 668 953 713 953 q 617 889 624 953 q 653 825 610 825 q 706 889 699 825 m 626 1022 q 590 1086 633 1086 q 538 1022 544 1086 q 575 958 531 958 q 626 1022 619 958 m 610 15 l 610 17 q 529 -71 599 -71 q 482 -54 499 -71 q 433 -71 463 -71 q 386 -54 403 -71 q 339 -71 367 -71 q 292 -54 308 -71 q 243 -71 272 -71 q 178 -1 181 -71 l 174 -1 q 108 72 108 -1 l 108 92 q 100 132 100 106 l 96 132 q 31 206 31 132 l 31 218 q 32 229 31 224 l 32 226 q 57 292 36 271 q 47 339 47 310 l 47 351 q 49 363 47 357 l 49 360 q 74 425 53 404 q 63 474 63 444 q 64 483 63 478 l 64 493 q 89 558 68 538 q 79 604 79 576 l 79 617 q 81 628 79 622 l 81 626 q 106 692 85 671 q 96 738 96 710 l 96 750 q 97 761 96 756 l 97 760 q 122 825 101 804 q 113 871 113 843 l 113 883 q 114 894 113 889 l 114 892 q 193 981 122 981 q 225 974 211 981 q 222 989 222 981 l 222 1007 q 224 1017 222 1011 l 224 1026 q 304 1114 233 1114 q 350 1097 333 1114 q 400 1114 368 1114 q 446 1097 429 1114 q 494 1114 464 1114 q 540 1097 524 1114 q 590 1114 558 1114 q 656 1044 653 1114 l 660 1044 q 725 971 725 1044 q 724 953 725 958 q 735 911 732 939 l 738 911 q 804 835 804 911 l 804 828 q 803 819 803 822 l 803 815 q 776 750 796 769 q 788 703 788 731 l 788 692 q 785 679 788 688 l 786 682 q 760 617 781 639 q 771 571 771 599 l 771 558 q 769 547 771 553 l 769 549 q 743 483 764 506 q 754 438 754 465 l 754 425 q 753 414 754 419 l 753 417 q 728 350 749 372 q 739 303 739 332 l 739 296 q 738 288 738 290 l 738 283 q 711 217 731 239 q 722 169 722 199 l 722 163 q 721 154 721 157 l 721 150 q 640 63 710 63 q 607 69 617 63 q 611 39 611 54 l 611 26 q 610 15 611 21 m 372 414 l 372 417 q 347 350 368 372 q 358 304 358 332 q 396 314 374 314 q 432 306 417 314 q 428 339 428 319 l 428 351 q 429 363 428 357 l 429 360 q 454 425 433 404 q 443 474 443 444 q 444 483 443 478 l 444 493 q 469 558 449 538 q 460 604 460 576 l 460 617 q 461 628 460 622 l 461 626 q 486 692 465 671 q 476 736 476 707 q 438 728 460 728 q 403 735 415 728 q 407 703 407 719 l 407 692 q 404 679 407 688 l 406 682 q 379 617 400 639 q 390 571 390 599 l 390 558 q 389 547 390 553 l 389 549 q 363 483 383 506 q 374 438 374 465 l 374 425 q 372 414 374 419 z "},"P":{"ha":665,"x_min":14,"x_max":804,"o":"m 132 90 q 96 153 140 153 q 43 90 51 153 q 79 26 35 26 q 132 90 124 26 m 226 90 q 190 153 235 153 q 138 90 146 153 q 174 26 129 26 q 226 90 218 26 m 149 224 q 111 286 156 286 q 60 224 67 286 q 96 160 53 160 q 149 224 142 160 m 243 224 q 206 286 250 286 q 154 224 161 286 q 190 160 147 160 q 243 224 236 160 m 165 357 q 128 419 172 419 q 76 357 83 419 q 113 293 69 293 q 165 357 158 293 m 260 357 q 222 419 267 419 q 171 357 178 419 q 207 293 164 293 q 260 357 253 293 m 181 489 q 144 553 189 553 q 92 489 100 553 q 129 426 85 426 q 181 489 174 426 m 356 357 q 318 419 363 419 q 267 357 274 419 q 303 293 260 293 q 356 357 349 293 m 275 489 q 239 553 283 553 q 186 489 194 553 q 224 426 179 426 q 275 489 268 426 m 197 622 q 161 686 206 686 q 108 622 117 686 q 144 560 100 560 q 197 622 189 560 m 450 357 q 413 419 457 419 q 361 357 368 419 q 397 293 354 293 q 450 357 443 293 m 371 489 q 335 553 379 553 q 282 489 290 553 q 319 426 275 426 q 371 489 364 426 m 292 622 q 256 686 300 686 q 203 622 211 686 q 239 560 194 560 q 292 622 283 560 m 546 357 q 508 419 553 419 q 457 357 464 419 q 493 293 450 293 q 546 357 539 293 m 214 756 q 176 819 222 819 q 125 756 133 819 q 161 693 117 693 q 214 756 206 693 m 465 489 q 429 553 474 553 q 376 489 385 553 q 414 426 369 426 q 465 489 458 426 m 308 756 q 271 819 317 819 q 219 756 228 819 q 256 693 211 693 q 308 756 300 693 m 561 489 q 525 553 569 553 q 472 489 481 553 q 510 426 465 426 q 561 489 554 426 m 231 889 q 193 953 238 953 q 142 889 149 953 q 178 825 135 825 q 231 889 224 825 m 656 489 q 619 553 664 553 q 567 489 575 553 q 604 426 560 426 q 656 489 649 426 m 325 889 q 288 953 332 953 q 236 889 243 953 q 272 825 229 825 q 325 889 318 825 m 578 622 q 542 686 586 686 q 489 622 497 686 q 525 560 481 560 q 578 622 569 560 m 246 1022 q 210 1086 253 1086 q 157 1022 164 1086 q 194 958 150 958 q 246 1022 239 958 m 421 889 q 383 953 428 953 q 332 889 339 953 q 368 825 325 825 q 421 889 414 825 m 672 622 q 636 686 681 686 q 583 622 592 686 q 619 560 575 560 q 672 622 664 560 m 340 1022 q 304 1086 347 1086 q 251 1022 258 1086 q 289 958 244 958 q 340 1022 333 958 m 594 756 q 557 819 603 819 q 506 756 514 819 q 542 693 497 693 q 594 756 586 693 m 515 889 q 478 953 522 953 q 426 889 433 953 q 463 825 419 825 q 515 889 508 825 m 436 1022 q 400 1086 443 1086 q 347 1022 354 1086 q 385 958 340 958 q 436 1022 429 958 m 689 756 q 651 819 697 819 q 600 756 608 819 q 636 693 592 693 q 689 756 681 693 m 611 889 q 574 953 618 953 q 522 889 529 953 q 558 825 515 825 q 611 889 604 825 m 531 1022 q 494 1086 538 1086 q 442 1022 449 1086 q 479 958 435 958 q 531 1022 524 958 m 706 889 q 668 953 713 953 q 617 889 624 953 q 653 825 610 825 q 706 889 699 825 m 626 1022 q 590 1086 633 1086 q 538 1022 544 1086 q 575 958 531 958 q 626 1022 619 958 m 324 15 l 324 17 q 243 -71 313 -71 q 196 -54 213 -71 q 149 -71 176 -71 q 83 -1 86 -71 l 79 -1 q 14 72 14 -1 l 14 85 q 15 96 14 90 l 15 94 q 40 158 19 138 q 31 206 31 176 l 31 218 q 32 229 31 224 l 32 226 q 57 292 36 271 q 47 339 47 310 l 47 351 q 49 363 47 357 l 49 360 q 74 425 53 404 q 63 474 63 444 q 64 483 63 478 l 64 493 q 89 558 68 538 q 79 604 79 576 l 79 617 q 81 628 79 622 l 81 626 q 106 692 85 671 q 96 738 96 710 l 96 750 q 97 761 96 756 l 97 760 q 122 825 101 804 q 113 871 113 843 l 113 883 q 114 894 113 889 l 114 892 q 138 957 118 935 q 128 1007 128 975 q 129 1017 128 1011 l 129 1026 q 210 1114 139 1114 q 256 1097 239 1114 q 304 1114 274 1114 q 350 1097 333 1114 q 400 1114 368 1114 q 446 1097 429 1114 q 494 1114 464 1114 q 540 1097 524 1114 q 590 1114 558 1114 q 656 1044 653 1114 l 660 1044 q 725 971 725 1044 q 724 953 725 958 q 735 911 732 939 l 738 911 q 804 835 804 911 l 804 828 q 803 819 803 822 l 803 815 q 776 750 796 769 q 788 703 788 731 l 788 692 q 785 679 788 688 l 786 682 q 760 617 781 639 q 771 571 771 599 l 771 558 q 769 547 771 553 l 769 549 q 743 483 764 506 q 754 438 754 465 l 754 425 q 753 414 754 419 l 753 417 q 674 329 744 329 q 640 335 651 329 q 644 303 644 322 l 644 296 q 643 288 643 290 l 643 283 q 563 196 632 196 q 515 211 533 196 q 467 196 499 196 q 419 211 438 196 q 372 196 400 196 q 338 203 354 196 q 342 169 342 188 l 342 163 q 340 154 340 157 l 340 150 q 314 85 333 104 q 325 39 325 65 l 325 26 q 324 15 325 21 m 404 679 l 406 682 q 379 617 400 639 q 390 571 390 599 q 429 581 406 581 q 464 572 449 581 q 460 604 460 586 l 460 617 q 461 628 460 622 l 461 626 q 486 692 465 671 q 476 736 476 707 q 438 728 460 728 q 403 735 415 728 q 407 703 407 719 l 407 692 q 404 679 407 688 z "},"Q":{"ha":756,"x_min":31,"x_max":818,"o":"m 226 90 q 190 153 235 153 q 138 90 146 153 q 174 26 129 26 q 226 90 218 26 m 149 224 q 111 286 156 286 q 60 224 67 286 q 96 160 53 160 q 149 224 142 160 m 322 90 q 286 153 331 153 q 233 90 242 153 q 269 26 225 26 q 322 90 314 26 m 243 224 q 206 286 250 286 q 154 224 161 286 q 190 160 147 160 q 243 224 236 160 m 165 357 q 128 419 172 419 q 76 357 83 419 q 113 293 69 293 q 165 357 158 293 m 417 90 q 381 153 425 153 q 328 90 336 153 q 364 26 319 26 q 417 90 408 26 m 339 224 q 301 286 346 286 q 250 224 257 286 q 286 160 243 160 q 339 224 332 160 m 260 357 q 222 419 267 419 q 171 357 178 419 q 207 293 164 293 q 260 357 253 293 m 513 90 q 476 153 521 153 q 424 90 432 153 q 460 26 415 26 q 513 90 504 26 m 181 489 q 144 553 189 553 q 92 489 100 553 q 129 426 85 426 q 181 489 174 426 m 433 224 q 396 286 440 286 q 344 224 351 286 q 381 160 338 160 q 433 224 426 160 m 607 90 q 571 153 615 153 q 518 90 526 153 q 554 26 510 26 q 607 90 599 26 m 275 489 q 239 553 283 553 q 186 489 194 553 q 224 426 179 426 q 275 489 268 426 m 529 224 q 492 286 536 286 q 440 224 447 286 q 476 160 433 160 q 529 224 522 160 m 197 622 q 161 686 206 686 q 108 622 117 686 q 144 560 100 560 q 197 622 189 560 m 703 90 q 667 153 711 153 q 614 90 622 153 q 650 26 606 26 q 703 90 694 26 m 624 224 q 586 286 631 286 q 535 224 542 286 q 571 160 528 160 q 624 224 617 160 m 292 622 q 256 686 300 686 q 203 622 211 686 q 239 560 194 560 q 292 622 283 560 m 546 357 q 508 419 553 419 q 457 357 464 419 q 493 293 450 293 q 546 357 539 293 m 214 756 q 176 819 222 819 q 125 756 133 819 q 161 693 117 693 q 214 756 206 693 m 719 224 q 682 286 726 286 q 631 224 638 286 q 667 160 624 160 q 719 224 713 160 m 640 357 q 603 419 647 419 q 551 357 558 419 q 588 293 544 293 q 640 357 633 293 m 308 756 q 271 819 317 819 q 219 756 228 819 q 256 693 211 693 q 308 756 300 693 m 561 489 q 525 553 569 553 q 472 489 481 553 q 510 426 465 426 q 561 489 554 426 m 231 889 q 193 953 238 953 q 142 889 149 953 q 178 825 135 825 q 231 889 224 825 m 656 489 q 619 553 664 553 q 567 489 575 553 q 604 426 560 426 q 656 489 649 426 m 325 889 q 288 953 332 953 q 236 889 243 953 q 272 825 229 825 q 325 889 318 825 m 578 622 q 542 686 586 686 q 489 622 497 686 q 525 560 481 560 q 578 622 569 560 m 421 889 q 383 953 428 953 q 332 889 339 953 q 368 825 325 825 q 421 889 414 825 m 672 622 q 636 686 681 686 q 583 622 592 686 q 619 560 575 560 q 672 622 664 560 m 340 1022 q 304 1086 347 1086 q 251 1022 258 1086 q 289 958 244 958 q 340 1022 333 958 m 594 756 q 557 819 603 819 q 506 756 514 819 q 542 693 497 693 q 594 756 586 693 m 515 889 q 478 953 522 953 q 426 889 433 953 q 463 825 419 825 q 515 889 508 825 m 436 1022 q 400 1086 443 1086 q 347 1022 354 1086 q 385 958 340 958 q 436 1022 429 958 m 689 756 q 651 819 697 819 q 600 756 608 819 q 636 693 592 693 q 689 756 681 693 m 611 889 q 574 953 618 953 q 522 889 529 953 q 558 825 515 825 q 611 889 604 825 m 531 1022 q 494 1086 538 1086 q 442 1022 449 1086 q 479 958 435 958 q 531 1022 524 958 m 706 889 q 668 953 713 953 q 617 889 624 953 q 653 825 610 825 q 706 889 699 825 m 626 1022 q 590 1086 633 1086 q 538 1022 544 1086 q 575 958 531 958 q 626 1022 619 958 m 800 15 l 800 17 q 719 -71 789 -71 q 672 -54 689 -71 q 624 -71 653 -71 q 576 -54 593 -71 q 529 -71 557 -71 q 482 -54 499 -71 q 433 -71 463 -71 q 386 -54 403 -71 q 339 -71 367 -71 q 292 -54 308 -71 q 243 -71 272 -71 q 178 -1 181 -71 l 174 -1 q 108 72 108 -1 l 108 92 q 100 132 100 106 l 96 132 q 31 206 31 132 l 31 218 q 32 229 31 224 l 32 226 q 57 292 36 271 q 47 339 47 310 l 47 351 q 49 363 47 357 l 49 360 q 74 425 53 404 q 63 474 63 444 q 64 483 63 478 l 64 493 q 89 558 68 538 q 79 604 79 576 l 79 617 q 81 628 79 622 l 81 626 q 106 692 85 671 q 96 738 96 710 l 96 750 q 97 761 96 756 l 97 760 q 122 825 101 804 q 113 871 113 843 l 113 883 q 114 894 113 889 l 114 892 q 193 981 122 981 q 225 974 211 981 q 222 989 222 981 l 222 1007 q 224 1017 222 1011 l 224 1026 q 304 1114 233 1114 q 350 1097 333 1114 q 400 1114 368 1114 q 446 1097 429 1114 q 494 1114 464 1114 q 540 1097 524 1114 q 590 1114 558 1114 q 656 1044 653 1114 l 660 1044 q 725 971 725 1044 q 724 953 725 958 q 735 911 732 939 l 738 911 q 804 835 804 911 l 804 828 q 803 819 803 822 l 803 815 q 776 750 796 769 q 788 703 788 731 l 788 692 q 785 679 788 688 l 786 682 q 760 617 781 639 q 771 571 771 599 l 771 558 q 769 547 771 553 l 769 549 q 743 483 764 506 q 754 438 754 465 l 754 425 q 753 414 754 419 l 753 417 q 728 350 749 372 q 739 303 739 332 l 739 296 q 738 288 738 290 q 749 244 746 274 l 751 244 q 818 169 818 244 l 818 163 q 817 154 817 157 l 817 150 q 790 85 810 104 q 801 39 801 65 l 801 26 q 800 15 801 21 m 372 414 l 372 417 q 347 350 368 372 q 358 304 358 332 q 396 314 374 314 q 432 306 417 314 q 428 339 428 319 l 428 351 q 429 363 428 357 l 429 360 q 454 425 433 404 q 443 474 443 444 q 444 483 443 478 l 444 493 q 469 558 449 538 q 460 604 460 576 l 460 617 q 461 628 460 622 l 461 626 q 486 692 465 671 q 476 736 476 707 q 438 728 460 728 q 403 735 415 728 q 407 703 407 719 l 407 692 q 404 679 407 688 l 406 682 q 379 617 400 639 q 390 571 390 599 l 390 558 q 389 547 390 553 l 389 549 q 363 483 383 506 q 374 438 374 465 l 374 425 q 372 414 374 419 z "},"R":{"ha":747,"x_min":14,"x_max":804,"o":"m 132 90 q 96 153 140 153 q 43 90 51 153 q 79 26 35 26 q 132 90 124 26 m 226 90 q 190 153 235 153 q 138 90 146 153 q 174 26 129 26 q 226 90 218 26 m 149 224 q 111 286 156 286 q 60 224 67 286 q 96 160 53 160 q 149 224 142 160 m 243 224 q 206 286 250 286 q 154 224 161 286 q 190 160 147 160 q 243 224 236 160 m 165 357 q 128 419 172 419 q 76 357 83 419 q 113 293 69 293 q 165 357 158 293 m 260 357 q 222 419 267 419 q 171 357 178 419 q 207 293 164 293 q 260 357 253 293 m 181 489 q 144 553 189 553 q 92 489 100 553 q 129 426 85 426 q 181 489 174 426 m 356 357 q 318 419 363 419 q 267 357 274 419 q 303 293 260 293 q 356 357 349 293 m 607 90 q 571 153 615 153 q 518 90 526 153 q 554 26 510 26 q 607 90 599 26 m 275 489 q 239 553 283 553 q 186 489 194 553 q 224 426 179 426 q 275 489 268 426 m 529 224 q 492 286 536 286 q 440 224 447 286 q 476 160 433 160 q 529 224 522 160 m 197 622 q 161 686 206 686 q 108 622 117 686 q 144 560 100 560 q 197 622 189 560 m 450 357 q 413 419 457 419 q 361 357 368 419 q 397 293 354 293 q 450 357 443 293 m 703 90 q 667 153 711 153 q 614 90 622 153 q 650 26 606 26 q 703 90 694 26 m 371 489 q 335 553 379 553 q 282 489 290 553 q 319 426 275 426 q 371 489 364 426 m 624 224 q 586 286 631 286 q 535 224 542 286 q 571 160 528 160 q 624 224 617 160 m 292 622 q 256 686 300 686 q 203 622 211 686 q 239 560 194 560 q 292 622 283 560 m 546 357 q 508 419 553 419 q 457 357 464 419 q 493 293 450 293 q 546 357 539 293 m 214 756 q 176 819 222 819 q 125 756 133 819 q 161 693 117 693 q 214 756 206 693 m 465 489 q 429 553 474 553 q 376 489 385 553 q 414 426 369 426 q 465 489 458 426 m 308 756 q 271 819 317 819 q 219 756 228 819 q 256 693 211 693 q 308 756 300 693 m 561 489 q 525 553 569 553 q 472 489 481 553 q 510 426 465 426 q 561 489 554 426 m 231 889 q 193 953 238 953 q 142 889 149 953 q 178 825 135 825 q 231 889 224 825 m 325 889 q 288 953 332 953 q 236 889 243 953 q 272 825 229 825 q 325 889 318 825 m 578 622 q 542 686 586 686 q 489 622 497 686 q 525 560 481 560 q 578 622 569 560 m 246 1022 q 210 1086 253 1086 q 157 1022 164 1086 q 194 958 150 958 q 246 1022 239 958 m 421 889 q 383 953 428 953 q 332 889 339 953 q 368 825 325 825 q 421 889 414 825 m 672 622 q 636 686 681 686 q 583 622 592 686 q 619 560 575 560 q 672 622 664 560 m 340 1022 q 304 1086 347 1086 q 251 1022 258 1086 q 289 958 244 958 q 340 1022 333 958 m 594 756 q 557 819 603 819 q 506 756 514 819 q 542 693 497 693 q 594 756 586 693 m 515 889 q 478 953 522 953 q 426 889 433 953 q 463 825 419 825 q 515 889 508 825 m 436 1022 q 400 1086 443 1086 q 347 1022 354 1086 q 385 958 340 958 q 436 1022 429 958 m 689 756 q 651 819 697 819 q 600 756 608 819 q 636 693 592 693 q 689 756 681 693 m 611 889 q 574 953 618 953 q 522 889 529 953 q 558 825 515 825 q 611 889 604 825 m 531 1022 q 494 1086 538 1086 q 442 1022 449 1086 q 479 958 435 958 q 531 1022 524 958 m 706 889 q 668 953 713 953 q 617 889 624 953 q 653 825 610 825 q 706 889 699 825 m 626 1022 q 590 1086 633 1086 q 538 1022 544 1086 q 575 958 531 958 q 626 1022 619 958 m 324 15 l 324 17 q 243 -71 313 -71 q 196 -54 213 -71 q 149 -71 176 -71 q 83 -1 86 -71 l 79 -1 q 14 72 14 -1 l 14 85 q 15 96 14 90 l 15 94 q 40 158 19 138 q 31 206 31 176 l 31 218 q 32 229 31 224 l 32 226 q 57 292 36 271 q 47 339 47 310 l 47 351 q 49 363 47 357 l 49 360 q 74 425 53 404 q 63 474 63 444 q 64 483 63 478 l 64 493 q 89 558 68 538 q 79 604 79 576 l 79 617 q 81 628 79 622 l 81 626 q 106 692 85 671 q 96 738 96 710 l 96 750 q 97 761 96 756 l 97 760 q 122 825 101 804 q 113 871 113 843 l 113 883 q 114 894 113 889 l 114 892 q 138 957 118 935 q 128 1007 128 975 q 129 1017 128 1011 l 129 1026 q 210 1114 139 1114 q 256 1097 239 1114 q 304 1114 274 1114 q 350 1097 333 1114 q 400 1114 368 1114 q 446 1097 429 1114 q 494 1114 464 1114 q 540 1097 524 1114 q 590 1114 558 1114 q 656 1044 653 1114 l 660 1044 q 725 971 725 1044 q 724 953 725 958 q 735 911 732 939 l 738 911 q 804 835 804 911 l 804 828 q 803 819 803 822 l 803 815 q 776 750 796 769 q 788 703 788 731 l 788 692 q 785 679 788 688 l 786 682 q 760 617 781 639 q 771 571 771 599 l 771 558 q 769 547 771 553 l 769 549 q 689 463 758 463 q 656 469 665 463 q 660 438 660 454 l 660 425 q 658 414 660 419 l 658 417 q 633 350 654 372 q 644 303 644 332 l 644 296 q 643 288 643 290 l 643 285 q 653 244 650 272 l 656 244 q 722 169 722 244 l 722 163 q 721 154 721 157 q 732 111 732 136 l 736 111 q 801 39 801 111 l 801 26 q 800 15 801 21 l 800 17 q 719 -71 789 -71 q 672 -54 689 -71 q 624 -71 653 -71 q 558 -1 561 -71 l 554 -1 q 489 72 489 -1 l 489 92 q 481 132 481 106 l 476 132 q 411 204 411 132 q 372 196 394 196 q 338 203 354 196 q 342 169 342 188 l 342 163 q 340 154 340 157 l 340 150 q 314 85 333 104 q 325 39 325 65 l 325 26 q 324 15 325 21 m 404 679 l 406 682 q 379 617 400 639 q 390 571 390 599 q 429 581 406 581 q 464 572 449 581 q 460 604 460 586 l 460 617 q 461 628 460 622 l 461 626 q 486 692 465 671 q 476 736 476 707 q 438 728 460 728 q 403 735 415 728 q 407 703 407 719 l 407 692 q 404 679 407 688 z "},"S":{"ha":671,"x_min":31,"x_max":804,"o":"m 226 90 q 190 153 235 153 q 138 90 146 153 q 174 26 129 26 q 226 90 218 26 m 149 224 q 111 286 156 286 q 60 224 67 286 q 96 160 53 160 q 149 224 142 160 m 322 90 q 286 153 331 153 q 233 90 242 153 q 269 26 225 26 q 322 90 314 26 m 243 224 q 206 286 250 286 q 154 224 161 286 q 190 160 147 160 q 243 224 236 160 m 417 90 q 381 153 425 153 q 328 90 336 153 q 364 26 319 26 q 417 90 408 26 m 339 224 q 301 286 346 286 q 250 224 257 286 q 286 160 243 160 q 339 224 332 160 m 513 90 q 476 153 521 153 q 424 90 432 153 q 460 26 415 26 q 513 90 504 26 m 433 224 q 396 286 440 286 q 344 224 351 286 q 381 160 338 160 q 433 224 426 160 m 275 489 q 239 553 283 553 q 186 489 194 553 q 224 426 179 426 q 275 489 268 426 m 529 224 q 492 286 536 286 q 440 224 447 286 q 476 160 433 160 q 529 224 522 160 m 197 622 q 161 686 206 686 q 108 622 117 686 q 144 560 100 560 q 197 622 189 560 m 371 489 q 335 553 379 553 q 282 489 290 553 q 319 426 275 426 q 371 489 364 426 m 624 224 q 586 286 631 286 q 535 224 542 286 q 571 160 528 160 q 624 224 617 160 m 292 622 q 256 686 300 686 q 203 622 211 686 q 239 560 194 560 q 292 622 283 560 m 546 357 q 508 419 553 419 q 457 357 464 419 q 493 293 450 293 q 546 357 539 293 m 214 756 q 176 819 222 819 q 125 756 133 819 q 161 693 117 693 q 214 756 206 693 m 465 489 q 429 553 474 553 q 376 489 385 553 q 414 426 369 426 q 465 489 458 426 m 388 622 q 351 686 396 686 q 299 622 307 686 q 335 560 290 560 q 388 622 379 560 m 640 357 q 603 419 647 419 q 551 357 558 419 q 588 293 544 293 q 640 357 633 293 m 308 756 q 271 819 317 819 q 219 756 228 819 q 256 693 211 693 q 308 756 300 693 m 561 489 q 525 553 569 553 q 472 489 481 553 q 510 426 465 426 q 561 489 554 426 m 231 889 q 193 953 238 953 q 142 889 149 953 q 178 825 135 825 q 231 889 224 825 m 482 622 q 446 686 490 686 q 393 622 401 686 q 429 560 385 560 q 482 622 474 560 m 656 489 q 619 553 664 553 q 567 489 575 553 q 604 426 560 426 q 656 489 649 426 m 325 889 q 288 953 332 953 q 236 889 243 953 q 272 825 229 825 q 325 889 318 825 m 578 622 q 542 686 586 686 q 489 622 497 686 q 525 560 481 560 q 578 622 569 560 m 421 889 q 383 953 428 953 q 332 889 339 953 q 368 825 325 825 q 421 889 414 825 m 340 1022 q 304 1086 347 1086 q 251 1022 258 1086 q 289 958 244 958 q 340 1022 333 958 m 515 889 q 478 953 522 953 q 426 889 433 953 q 463 825 419 825 q 515 889 508 825 m 436 1022 q 400 1086 443 1086 q 347 1022 354 1086 q 385 958 340 958 q 436 1022 429 958 m 611 889 q 574 953 618 953 q 522 889 529 953 q 558 825 515 825 q 611 889 604 825 m 531 1022 q 494 1086 538 1086 q 442 1022 449 1086 q 479 958 435 958 q 531 1022 524 958 m 706 889 q 668 953 713 953 q 617 889 624 953 q 653 825 610 825 q 706 889 699 825 m 626 1022 q 590 1086 633 1086 q 538 1022 544 1086 q 575 958 531 958 q 626 1022 619 958 m 610 15 l 610 17 q 529 -71 599 -71 q 482 -54 499 -71 q 433 -71 463 -71 q 386 -54 403 -71 q 339 -71 367 -71 q 292 -54 308 -71 q 243 -71 272 -71 q 178 -1 181 -71 l 174 -1 q 108 72 108 -1 l 108 92 q 100 132 100 106 l 96 132 q 31 206 31 132 l 31 218 q 32 229 31 224 l 32 226 q 111 314 40 314 q 158 297 142 314 q 206 314 176 314 q 253 297 236 314 q 301 314 271 314 q 349 297 332 314 q 396 314 367 314 q 432 306 417 314 q 428 338 428 319 q 389 329 411 329 q 342 344 357 329 q 293 329 322 329 q 226 399 228 329 l 224 399 q 157 474 157 399 q 158 481 157 476 l 158 489 q 149 532 149 504 l 144 532 q 79 604 79 532 l 79 617 q 81 628 79 622 l 81 626 q 106 692 85 671 q 96 738 96 710 l 96 750 q 97 761 96 756 l 97 760 q 122 825 101 804 q 113 871 113 843 l 113 883 q 114 894 113 889 l 114 892 q 193 981 122 981 q 225 974 211 981 q 222 989 222 981 l 222 1007 q 224 1017 222 1011 l 224 1026 q 304 1114 233 1114 q 350 1097 333 1114 q 400 1114 368 1114 q 446 1097 429 1114 q 494 1114 464 1114 q 540 1097 524 1114 q 590 1114 558 1114 q 656 1044 653 1114 l 660 1044 q 725 971 725 1044 q 724 953 725 958 q 735 911 732 939 l 738 911 q 804 835 804 911 l 804 828 q 803 819 803 822 l 803 815 q 722 728 792 728 q 675 743 693 728 q 628 728 656 728 q 581 743 599 728 q 532 728 564 728 q 485 743 503 728 q 438 728 465 728 q 403 735 415 728 q 407 704 407 722 q 446 714 422 714 q 492 697 475 714 q 542 714 510 714 q 607 644 604 714 l 611 644 q 676 571 676 644 q 675 551 676 557 q 685 511 682 536 l 689 511 q 754 438 754 511 l 754 425 q 753 414 754 419 l 753 417 q 728 350 749 372 q 739 303 739 332 l 739 296 q 738 288 738 290 l 738 283 q 711 217 731 239 q 722 169 722 199 l 722 163 q 721 154 721 157 l 721 150 q 640 63 710 63 q 607 69 617 63 q 611 39 611 54 l 611 26 q 610 15 611 21 z "},"T":{"ha":660,"x_min":113,"x_max":819,"o":"m 322 90 q 286 153 331 153 q 233 90 242 153 q 269 26 225 26 q 322 90 314 26 m 417 90 q 381 153 425 153 q 328 90 336 153 q 364 26 319 26 q 417 90 408 26 m 339 224 q 301 286 346 286 q 250 224 257 286 q 286 160 243 160 q 339 224 332 160 m 433 224 q 396 286 440 286 q 344 224 351 286 q 381 160 338 160 q 433 224 426 160 m 356 357 q 318 419 363 419 q 267 357 274 419 q 303 293 260 293 q 356 357 349 293 m 450 357 q 413 419 457 419 q 361 357 368 419 q 397 293 354 293 q 450 357 443 293 m 371 489 q 335 553 379 553 q 282 489 290 553 q 319 426 275 426 q 371 489 364 426 m 465 489 q 429 553 474 553 q 376 489 385 553 q 414 426 369 426 q 465 489 458 426 m 388 622 q 351 686 396 686 q 299 622 307 686 q 335 560 290 560 q 388 622 379 560 m 231 889 q 193 953 238 953 q 142 889 149 953 q 178 825 135 825 q 231 889 224 825 m 482 622 q 446 686 490 686 q 393 622 401 686 q 429 560 385 560 q 482 622 474 560 m 404 756 q 367 819 413 819 q 315 756 324 819 q 351 693 307 693 q 404 756 396 693 m 325 889 q 288 953 332 953 q 236 889 243 953 q 272 825 229 825 q 325 889 318 825 m 246 1022 q 210 1086 253 1086 q 157 1022 164 1086 q 194 958 150 958 q 246 1022 239 958 m 499 756 q 461 819 507 819 q 410 756 418 819 q 446 693 401 693 q 499 756 490 693 m 421 889 q 383 953 428 953 q 332 889 339 953 q 368 825 325 825 q 421 889 414 825 m 340 1022 q 304 1086 347 1086 q 251 1022 258 1086 q 289 958 244 958 q 340 1022 333 958 m 515 889 q 478 953 522 953 q 426 889 433 953 q 463 825 419 825 q 515 889 508 825 m 436 1022 q 400 1086 443 1086 q 347 1022 354 1086 q 385 958 340 958 q 436 1022 429 958 m 611 889 q 574 953 618 953 q 522 889 529 953 q 558 825 515 825 q 611 889 604 825 m 531 1022 q 494 1086 538 1086 q 442 1022 449 1086 q 479 958 435 958 q 531 1022 524 958 m 706 889 q 668 953 713 953 q 617 889 624 953 q 653 825 610 825 q 706 889 699 825 m 626 1022 q 590 1086 633 1086 q 538 1022 544 1086 q 575 958 531 958 q 626 1022 619 958 m 721 1022 q 685 1086 728 1086 q 632 1022 639 1086 q 669 958 625 958 q 721 1022 714 958 m 514 15 l 514 17 q 433 -71 503 -71 q 386 -54 403 -71 q 339 -71 367 -71 q 274 -1 276 -71 l 269 -1 q 204 72 204 -1 l 204 85 q 206 96 204 90 l 206 94 q 231 158 210 138 q 221 206 221 176 l 221 218 q 222 229 221 224 l 222 226 q 247 292 226 271 q 238 339 238 310 l 238 351 q 239 363 238 357 l 239 360 q 264 425 243 404 q 253 474 253 444 q 254 483 253 478 l 254 493 q 279 558 258 538 q 269 604 269 576 l 269 617 q 271 628 269 622 l 271 626 q 296 692 275 671 q 286 736 286 707 q 247 728 269 728 q 182 797 185 728 l 178 797 q 113 871 113 797 l 113 883 q 114 894 113 889 l 114 892 q 138 957 118 935 q 128 1007 128 975 q 129 1017 128 1011 l 129 1026 q 210 1114 139 1114 q 256 1097 239 1114 q 304 1114 274 1114 q 350 1097 333 1114 q 400 1114 368 1114 q 446 1097 429 1114 q 494 1114 464 1114 q 540 1097 524 1114 q 590 1114 558 1114 q 636 1097 619 1114 q 685 1114 654 1114 q 750 1044 747 1114 l 754 1044 q 819 971 819 1044 l 819 958 q 818 947 819 953 l 818 950 q 793 883 814 906 q 804 835 804 865 l 804 828 q 803 819 803 822 l 803 815 q 722 728 792 728 q 675 743 693 728 q 628 728 656 728 q 593 735 606 728 q 597 703 597 719 l 597 692 q 594 679 597 688 l 596 682 q 569 617 590 639 q 581 571 581 599 l 581 558 q 579 547 581 553 l 579 549 q 553 483 574 506 q 564 438 564 465 l 564 425 q 563 414 564 419 l 563 417 q 538 350 558 372 q 549 303 549 332 l 549 296 q 547 288 547 290 l 547 283 q 521 217 540 239 q 532 169 532 199 l 532 163 q 531 154 531 157 l 531 150 q 504 85 524 104 q 515 39 515 65 l 515 26 q 514 15 515 21 z "},"U":{"ha":675,"x_min":31,"x_max":819,"o":"m 226 90 q 190 153 235 153 q 138 90 146 153 q 174 26 129 26 q 226 90 218 26 m 149 224 q 111 286 156 286 q 60 224 67 286 q 96 160 53 160 q 149 224 142 160 m 322 90 q 286 153 331 153 q 233 90 242 153 q 269 26 225 26 q 322 90 314 26 m 243 224 q 206 286 250 286 q 154 224 161 286 q 190 160 147 160 q 243 224 236 160 m 165 357 q 128 419 172 419 q 76 357 83 419 q 113 293 69 293 q 165 357 158 293 m 417 90 q 381 153 425 153 q 328 90 336 153 q 364 26 319 26 q 417 90 408 26 m 339 224 q 301 286 346 286 q 250 224 257 286 q 286 160 243 160 q 339 224 332 160 m 260 357 q 222 419 267 419 q 171 357 178 419 q 207 293 164 293 q 260 357 253 293 m 513 90 q 476 153 521 153 q 424 90 432 153 q 460 26 415 26 q 513 90 504 26 m 181 489 q 144 553 189 553 q 92 489 100 553 q 129 426 85 426 q 181 489 174 426 m 433 224 q 396 286 440 286 q 344 224 351 286 q 381 160 338 160 q 433 224 426 160 m 275 489 q 239 553 283 553 q 186 489 194 553 q 224 426 179 426 q 275 489 268 426 m 529 224 q 492 286 536 286 q 440 224 447 286 q 476 160 433 160 q 529 224 522 160 m 197 622 q 161 686 206 686 q 108 622 117 686 q 144 560 100 560 q 197 622 189 560 m 624 224 q 586 286 631 286 q 535 224 542 286 q 571 160 528 160 q 624 224 617 160 m 292 622 q 256 686 300 686 q 203 622 211 686 q 239 560 194 560 q 292 622 283 560 m 546 357 q 508 419 553 419 q 457 357 464 419 q 493 293 450 293 q 546 357 539 293 m 214 756 q 176 819 222 819 q 125 756 133 819 q 161 693 117 693 q 214 756 206 693 m 640 357 q 603 419 647 419 q 551 357 558 419 q 588 293 544 293 q 640 357 633 293 m 308 756 q 271 819 317 819 q 219 756 228 819 q 256 693 211 693 q 308 756 300 693 m 561 489 q 525 553 569 553 q 472 489 481 553 q 510 426 465 426 q 561 489 554 426 m 231 889 q 193 953 238 953 q 142 889 149 953 q 178 825 135 825 q 231 889 224 825 m 656 489 q 619 553 664 553 q 567 489 575 553 q 604 426 560 426 q 656 489 649 426 m 325 889 q 288 953 332 953 q 236 889 243 953 q 272 825 229 825 q 325 889 318 825 m 578 622 q 542 686 586 686 q 489 622 497 686 q 525 560 481 560 q 578 622 569 560 m 246 1022 q 210 1086 253 1086 q 157 1022 164 1086 q 194 958 150 958 q 246 1022 239 958 m 672 622 q 636 686 681 686 q 583 622 592 686 q 619 560 575 560 q 672 622 664 560 m 340 1022 q 304 1086 347 1086 q 251 1022 258 1086 q 289 958 244 958 q 340 1022 333 958 m 594 756 q 557 819 603 819 q 506 756 514 819 q 542 693 497 693 q 594 756 586 693 m 689 756 q 651 819 697 819 q 600 756 608 819 q 636 693 592 693 q 689 756 681 693 m 611 889 q 574 953 618 953 q 522 889 529 953 q 558 825 515 825 q 611 889 604 825 m 706 889 q 668 953 713 953 q 617 889 624 953 q 653 825 610 825 q 706 889 699 825 m 626 1022 q 590 1086 633 1086 q 538 1022 544 1086 q 575 958 531 958 q 626 1022 619 958 m 721 1022 q 685 1086 728 1086 q 632 1022 639 1086 q 669 958 625 958 q 721 1022 714 958 m 372 414 l 372 417 q 347 350 368 372 q 358 304 358 332 q 396 314 374 314 q 432 306 417 314 q 428 339 428 319 l 428 351 q 429 363 428 357 l 429 360 q 454 425 433 404 q 443 474 443 444 q 444 483 443 478 l 444 493 q 469 558 449 538 q 460 604 460 576 l 460 617 q 461 628 460 622 l 461 626 q 486 692 465 671 q 476 738 476 710 l 476 750 q 478 761 476 756 l 478 760 q 503 825 482 804 q 493 871 493 843 l 493 883 q 494 894 493 889 l 494 892 q 518 957 499 935 q 508 1007 508 975 q 510 1017 508 1011 l 510 1026 q 590 1114 519 1114 q 636 1097 619 1114 q 685 1114 654 1114 q 750 1044 747 1114 l 754 1044 q 819 971 819 1044 l 819 958 q 818 947 819 953 l 818 950 q 793 883 814 906 q 804 835 804 865 l 804 828 q 803 819 803 822 l 803 815 q 776 750 796 769 q 788 703 788 731 l 788 692 q 785 679 788 688 l 786 682 q 760 617 781 639 q 771 571 771 599 l 771 558 q 769 547 771 553 l 769 549 q 743 483 764 506 q 754 438 754 465 l 754 425 q 753 414 754 419 l 753 417 q 728 350 749 372 q 739 303 739 332 l 739 296 q 738 288 738 290 l 738 283 q 711 217 731 239 q 722 169 722 199 l 722 163 q 721 154 721 157 l 721 150 q 640 63 710 63 q 607 69 617 63 q 611 39 611 54 l 611 26 q 610 15 611 21 l 610 17 q 529 -71 599 -71 q 482 -54 499 -71 q 433 -71 463 -71 q 386 -54 403 -71 q 339 -71 367 -71 q 292 -54 308 -71 q 243 -71 272 -71 q 178 -1 181 -71 l 174 -1 q 108 72 108 -1 l 108 92 q 100 132 100 106 l 96 132 q 31 206 31 132 l 31 218 q 32 229 31 224 l 32 226 q 57 292 36 271 q 47 339 47 310 l 47 351 q 49 363 47 357 l 49 360 q 74 425 53 404 q 63 474 63 444 q 64 483 63 478 l 64 493 q 89 558 68 538 q 79 604 79 576 l 79 617 q 81 628 79 622 l 81 626 q 106 692 85 671 q 96 738 96 710 l 96 750 q 97 761 96 756 l 97 760 q 122 825 101 804 q 113 871 113 843 l 113 883 q 114 894 113 889 l 114 892 q 138 957 118 935 q 128 1007 128 975 q 129 1017 128 1011 l 129 1026 q 210 1114 139 1114 q 256 1097 239 1114 q 304 1114 274 1114 q 369 1044 367 1114 l 374 1044 q 439 971 439 1044 l 439 958 q 438 947 439 953 l 438 950 q 413 883 433 906 q 424 835 424 865 l 424 828 q 422 819 422 822 l 422 815 q 396 750 415 769 q 407 703 407 731 l 407 692 q 404 679 407 688 l 406 682 q 379 617 400 639 q 390 571 390 599 l 390 558 q 389 547 390 553 l 389 549 q 363 483 383 506 q 374 438 374 465 l 374 425 q 372 414 374 419 z "},"V":{"ha":769,"x_min":79,"x_max":915,"o":"m 322 90 q 286 153 331 153 q 233 90 242 153 q 269 26 225 26 q 322 90 314 26 m 417 90 q 381 153 425 153 q 328 90 336 153 q 364 26 319 26 q 417 90 408 26 m 339 224 q 301 286 346 286 q 250 224 257 286 q 286 160 243 160 q 339 224 332 160 m 260 357 q 222 419 267 419 q 171 357 178 419 q 207 293 164 293 q 260 357 253 293 m 513 90 q 476 153 521 153 q 424 90 432 153 q 460 26 415 26 q 513 90 504 26 m 433 224 q 396 286 440 286 q 344 224 351 286 q 381 160 338 160 q 433 224 426 160 m 356 357 q 318 419 363 419 q 267 357 274 419 q 303 293 260 293 q 356 357 349 293 m 275 489 q 239 553 283 553 q 186 489 194 553 q 224 426 179 426 q 275 489 268 426 m 529 224 q 492 286 536 286 q 440 224 447 286 q 476 160 433 160 q 529 224 522 160 m 197 622 q 161 686 206 686 q 108 622 117 686 q 144 560 100 560 q 197 622 189 560 m 371 489 q 335 553 379 553 q 282 489 290 553 q 319 426 275 426 q 371 489 364 426 m 292 622 q 256 686 300 686 q 203 622 211 686 q 239 560 194 560 q 292 622 283 560 m 546 357 q 508 419 553 419 q 457 357 464 419 q 493 293 450 293 q 546 357 539 293 m 214 756 q 176 819 222 819 q 125 756 133 819 q 161 693 117 693 q 214 756 206 693 m 640 357 q 603 419 647 419 q 551 357 558 419 q 588 293 544 293 q 640 357 633 293 m 308 756 q 271 819 317 819 q 219 756 228 819 q 256 693 211 693 q 308 756 300 693 m 561 489 q 525 553 569 553 q 472 489 481 553 q 510 426 465 426 q 561 489 554 426 m 231 889 q 193 953 238 953 q 142 889 149 953 q 178 825 135 825 q 231 889 224 825 m 656 489 q 619 553 664 553 q 567 489 575 553 q 604 426 560 426 q 656 489 649 426 m 325 889 q 288 953 332 953 q 236 889 243 953 q 272 825 229 825 q 325 889 318 825 m 246 1022 q 210 1086 253 1086 q 157 1022 164 1086 q 194 958 150 958 q 246 1022 239 958 m 672 622 q 636 686 681 686 q 583 622 592 686 q 619 560 575 560 q 672 622 664 560 m 340 1022 q 304 1086 347 1086 q 251 1022 258 1086 q 289 958 244 958 q 340 1022 333 958 m 768 622 q 732 686 776 686 q 679 622 688 686 q 715 560 671 560 q 768 622 760 560 m 689 756 q 651 819 697 819 q 600 756 608 819 q 636 693 592 693 q 689 756 681 693 m 785 756 q 747 819 793 819 q 696 756 704 819 q 732 693 688 693 q 785 756 776 693 m 706 889 q 668 953 713 953 q 617 889 624 953 q 653 825 610 825 q 706 889 699 825 m 801 889 q 764 953 808 953 q 713 889 719 953 q 749 825 706 825 q 801 889 794 825 m 721 1022 q 685 1086 728 1086 q 632 1022 639 1086 q 669 958 625 958 q 721 1022 714 958 m 817 1022 q 781 1086 824 1086 q 728 1022 735 1086 q 765 958 721 958 q 817 1022 810 958 m 404 679 l 406 682 q 379 617 400 639 q 390 571 390 599 l 390 553 q 400 511 397 538 l 404 511 q 446 499 429 511 q 525 581 458 581 q 558 574 542 581 q 554 604 554 586 l 554 617 q 556 628 554 622 l 556 626 q 581 692 560 671 q 571 738 571 710 l 571 750 q 572 761 571 756 l 572 760 q 597 825 576 804 q 588 871 588 843 l 588 883 q 589 894 588 889 l 589 892 q 613 957 593 935 q 603 1007 603 975 q 604 1017 603 1011 l 604 1026 q 685 1114 614 1114 q 731 1097 714 1114 q 781 1114 749 1114 q 846 1044 843 1114 l 850 1044 q 915 971 915 1044 l 915 958 q 914 947 915 953 l 914 950 q 889 883 910 906 q 900 835 900 865 l 900 828 q 899 819 899 822 l 899 815 q 872 750 892 769 q 883 703 883 731 l 883 692 q 881 679 883 688 l 882 682 q 856 617 876 639 q 867 571 867 599 l 867 558 q 865 547 867 553 l 865 549 q 785 463 854 463 q 750 469 767 463 q 754 438 754 457 l 754 425 q 753 414 754 419 l 753 417 q 728 350 749 372 q 739 303 739 332 l 739 296 q 738 288 738 290 l 738 283 q 657 196 726 196 q 624 203 633 196 q 628 169 628 188 l 628 163 q 626 154 626 157 l 626 150 q 600 85 619 104 q 611 39 611 65 l 611 26 q 610 15 611 21 l 610 17 q 529 -71 599 -71 q 482 -54 499 -71 q 433 -71 463 -71 q 386 -54 403 -71 q 339 -71 367 -71 q 274 -1 276 -71 l 269 -1 q 204 72 204 -1 l 204 85 q 206 96 204 90 l 206 94 q 231 158 210 138 q 221 214 229 161 q 221 222 219 218 q 211 265 211 238 l 207 265 q 142 339 142 265 l 142 351 q 143 363 142 357 l 143 360 q 168 425 147 404 q 157 474 157 444 q 158 481 157 476 l 158 489 q 149 532 149 504 l 144 532 q 79 604 79 532 l 79 617 q 81 628 79 622 l 81 626 q 106 692 85 671 q 96 738 96 710 l 96 750 q 97 761 96 756 l 97 760 q 122 825 101 804 q 113 871 113 843 l 113 883 q 114 894 113 889 l 114 892 q 138 957 118 935 q 128 1007 128 975 q 129 1017 128 1011 l 129 1026 q 210 1114 139 1114 q 256 1097 239 1114 q 304 1114 274 1114 q 369 1044 367 1114 l 374 1044 q 439 971 439 1044 l 439 958 q 438 947 439 953 l 438 950 q 413 883 433 906 q 424 835 424 865 l 424 828 q 422 819 422 822 l 422 815 q 396 750 415 769 q 407 703 407 731 l 407 692 q 404 679 407 688 z "},"W":{"ha":865,"x_min":31,"x_max":1010,"o":"m 226 90 q 190 153 235 153 q 138 90 146 153 q 174 26 129 26 q 226 90 218 26 m 149 224 q 111 286 156 286 q 60 224 67 286 q 96 160 53 160 q 149 224 142 160 m 322 90 q 286 153 331 153 q 233 90 242 153 q 269 26 225 26 q 322 90 314 26 m 243 224 q 206 286 250 286 q 154 224 161 286 q 190 160 147 160 q 243 224 236 160 m 165 357 q 128 419 172 419 q 76 357 83 419 q 113 293 69 293 q 165 357 158 293 m 339 224 q 301 286 346 286 q 250 224 257 286 q 286 160 243 160 q 339 224 332 160 m 260 357 q 222 419 267 419 q 171 357 178 419 q 207 293 164 293 q 260 357 253 293 m 181 489 q 144 553 189 553 q 92 489 100 553 q 129 426 85 426 q 181 489 174 426 m 433 224 q 396 286 440 286 q 344 224 351 286 q 381 160 338 160 q 433 224 426 160 m 607 90 q 571 153 615 153 q 518 90 526 153 q 554 26 510 26 q 607 90 599 26 m 275 489 q 239 553 283 553 q 186 489 194 553 q 224 426 179 426 q 275 489 268 426 m 529 224 q 492 286 536 286 q 440 224 447 286 q 476 160 433 160 q 529 224 522 160 m 197 622 q 161 686 206 686 q 108 622 117 686 q 144 560 100 560 q 197 622 189 560 m 450 357 q 413 419 457 419 q 361 357 368 419 q 397 293 354 293 q 450 357 443 293 m 703 90 q 667 153 711 153 q 614 90 622 153 q 650 26 606 26 q 703 90 694 26 m 624 224 q 586 286 631 286 q 535 224 542 286 q 571 160 528 160 q 624 224 617 160 m 292 622 q 256 686 300 686 q 203 622 211 686 q 239 560 194 560 q 292 622 283 560 m 546 357 q 508 419 553 419 q 457 357 464 419 q 493 293 450 293 q 546 357 539 293 m 214 756 q 176 819 222 819 q 125 756 133 819 q 161 693 117 693 q 214 756 206 693 m 465 489 q 429 553 474 553 q 376 489 385 553 q 414 426 369 426 q 465 489 458 426 m 719 224 q 682 286 726 286 q 631 224 638 286 q 667 160 624 160 q 719 224 713 160 m 308 756 q 271 819 317 819 q 219 756 228 819 q 256 693 211 693 q 308 756 300 693 m 561 489 q 525 553 569 553 q 472 489 481 553 q 510 426 465 426 q 561 489 554 426 m 814 224 q 776 286 821 286 q 725 224 732 286 q 761 160 718 160 q 814 224 807 160 m 231 889 q 193 953 238 953 q 142 889 149 953 q 178 825 135 825 q 231 889 224 825 m 482 622 q 446 686 490 686 q 393 622 401 686 q 429 560 385 560 q 482 622 474 560 m 736 357 q 699 419 743 419 q 647 357 654 419 q 683 293 640 293 q 736 357 729 293 m 325 889 q 288 953 332 953 q 236 889 243 953 q 272 825 229 825 q 325 889 318 825 m 578 622 q 542 686 586 686 q 489 622 497 686 q 525 560 481 560 q 578 622 569 560 m 831 357 q 793 419 838 419 q 742 357 749 419 q 778 293 735 293 q 831 357 824 293 m 246 1022 q 210 1086 253 1086 q 157 1022 164 1086 q 194 958 150 958 q 246 1022 239 958 m 499 756 q 461 819 507 819 q 410 756 418 819 q 446 693 401 693 q 499 756 490 693 m 751 489 q 715 553 760 553 q 663 489 671 553 q 700 426 656 426 q 751 489 744 426 m 340 1022 q 304 1086 347 1086 q 251 1022 258 1086 q 289 958 244 958 q 340 1022 333 958 m 594 756 q 557 819 603 819 q 506 756 514 819 q 542 693 497 693 q 594 756 586 693 m 846 489 q 810 553 854 553 q 757 489 765 553 q 794 426 750 426 q 846 489 839 426 m 515 889 q 478 953 522 953 q 426 889 433 953 q 463 825 419 825 q 515 889 508 825 m 768 622 q 732 686 776 686 q 679 622 688 686 q 715 560 671 560 q 768 622 760 560 m 611 889 q 574 953 618 953 q 522 889 529 953 q 558 825 515 825 q 611 889 604 825 m 863 622 q 826 686 871 686 q 774 622 782 686 q 810 560 765 560 q 863 622 854 560 m 531 1022 q 494 1086 538 1086 q 442 1022 449 1086 q 479 958 435 958 q 531 1022 524 958 m 785 756 q 747 819 793 819 q 696 756 704 819 q 732 693 688 693 q 785 756 776 693 m 626 1022 q 590 1086 633 1086 q 538 1022 544 1086 q 575 958 531 958 q 626 1022 619 958 m 879 756 q 842 819 888 819 q 790 756 799 819 q 826 693 782 693 q 879 756 871 693 m 801 889 q 764 953 808 953 q 713 889 719 953 q 749 825 706 825 q 801 889 794 825 m 896 889 q 858 953 903 953 q 807 889 814 953 q 843 825 800 825 q 896 889 889 825 m 817 1022 q 781 1086 824 1086 q 728 1022 735 1086 q 765 958 721 958 q 817 1022 810 958 m 911 1022 q 875 1086 918 1086 q 822 1022 829 1086 q 860 958 815 958 q 911 1022 904 958 m 419 15 l 419 17 q 339 -71 408 -71 q 292 -54 308 -71 q 243 -71 272 -71 q 178 -1 181 -71 l 174 -1 q 108 72 108 -1 l 108 92 q 100 132 100 106 l 96 132 q 31 206 31 132 l 31 218 q 32 229 31 224 l 32 226 q 57 292 36 271 q 47 339 47 310 l 47 351 q 49 363 47 357 l 49 360 q 74 425 53 404 q 63 474 63 444 q 64 483 63 478 l 64 493 q 89 558 68 538 q 79 604 79 576 l 79 617 q 81 628 79 622 l 81 626 q 106 692 85 671 q 96 738 96 710 l 96 750 q 97 761 96 756 l 97 760 q 122 825 101 804 q 113 871 113 843 l 113 883 q 114 894 113 889 l 114 892 q 138 957 118 935 q 128 1007 128 975 q 129 1017 128 1011 l 129 1026 q 210 1114 139 1114 q 256 1097 239 1114 q 304 1114 274 1114 q 369 1044 367 1114 l 374 1044 q 415 1032 399 1044 q 494 1114 428 1114 q 540 1097 524 1114 q 590 1114 558 1114 q 656 1044 653 1114 l 660 1044 q 701 1032 685 1044 q 781 1114 714 1114 q 826 1097 810 1114 q 875 1114 844 1114 q 940 1044 938 1114 l 944 1044 q 1010 971 1010 1044 l 1010 958 q 1008 947 1010 953 l 1008 950 q 983 883 1004 906 q 994 835 994 865 l 994 828 q 993 819 993 822 l 993 815 q 967 750 986 769 q 978 703 978 731 l 978 692 q 975 679 978 688 l 976 682 q 950 617 971 639 q 961 571 961 599 l 961 558 q 960 547 961 553 l 960 549 q 933 483 954 506 q 944 438 944 465 l 944 425 q 943 414 944 419 l 943 417 q 918 350 939 372 q 929 303 929 332 l 929 296 q 928 288 928 290 l 928 283 q 901 217 921 239 q 913 169 913 199 l 913 163 q 911 154 911 157 l 911 150 q 831 63 900 63 q 797 69 807 63 q 801 39 801 54 l 801 26 q 800 15 801 21 l 800 17 q 719 -71 789 -71 q 672 -54 689 -71 q 624 -71 653 -71 q 558 -1 561 -71 l 554 -1 q 489 71 489 -1 q 450 63 472 63 q 417 69 426 63 q 421 39 421 54 l 421 26 q 419 15 421 21 z "},"X":{"ha":853,"x_min":14,"x_max":1010,"o":"m 132 90 q 96 153 140 153 q 43 90 51 153 q 79 26 35 26 q 132 90 124 26 m 226 90 q 190 153 235 153 q 138 90 146 153 q 174 26 129 26 q 226 90 218 26 m 149 224 q 111 286 156 286 q 60 224 67 286 q 96 160 53 160 q 149 224 142 160 m 243 224 q 206 286 250 286 q 154 224 161 286 q 190 160 147 160 q 243 224 236 160 m 260 357 q 222 419 267 419 q 171 357 178 419 q 207 293 164 293 q 260 357 253 293 m 356 357 q 318 419 363 419 q 267 357 274 419 q 303 293 260 293 q 356 357 349 293 m 703 90 q 667 153 711 153 q 614 90 622 153 q 650 26 606 26 q 703 90 694 26 m 371 489 q 335 553 379 553 q 282 489 290 553 q 319 426 275 426 q 371 489 364 426 m 797 90 q 761 153 806 153 q 708 90 717 153 q 744 26 700 26 q 797 90 789 26 m 465 489 q 429 553 474 553 q 376 489 385 553 q 414 426 369 426 q 465 489 458 426 m 719 224 q 682 286 726 286 q 631 224 638 286 q 667 160 624 160 q 719 224 713 160 m 388 622 q 351 686 396 686 q 299 622 307 686 q 335 560 290 560 q 388 622 379 560 m 640 357 q 603 419 647 419 q 551 357 558 419 q 588 293 544 293 q 640 357 633 293 m 308 756 q 271 819 317 819 q 219 756 228 819 q 256 693 211 693 q 308 756 300 693 m 561 489 q 525 553 569 553 q 472 489 481 553 q 510 426 465 426 q 561 489 554 426 m 814 224 q 776 286 821 286 q 725 224 732 286 q 761 160 718 160 q 814 224 807 160 m 231 889 q 193 953 238 953 q 142 889 149 953 q 178 825 135 825 q 231 889 224 825 m 482 622 q 446 686 490 686 q 393 622 401 686 q 429 560 385 560 q 482 622 474 560 m 736 357 q 699 419 743 419 q 647 357 654 419 q 683 293 640 293 q 736 357 729 293 m 404 756 q 367 819 413 819 q 315 756 324 819 q 351 693 307 693 q 404 756 396 693 m 656 489 q 619 553 664 553 q 567 489 575 553 q 604 426 560 426 q 656 489 649 426 m 325 889 q 288 953 332 953 q 236 889 243 953 q 272 825 229 825 q 325 889 318 825 m 578 622 q 542 686 586 686 q 489 622 497 686 q 525 560 481 560 q 578 622 569 560 m 246 1022 q 210 1086 253 1086 q 157 1022 164 1086 q 194 958 150 958 q 246 1022 239 958 m 672 622 q 636 686 681 686 q 583 622 592 686 q 619 560 575 560 q 672 622 664 560 m 340 1022 q 304 1086 347 1086 q 251 1022 258 1086 q 289 958 244 958 q 340 1022 333 958 m 689 756 q 651 819 697 819 q 600 756 608 819 q 636 693 592 693 q 689 756 681 693 m 785 756 q 747 819 793 819 q 696 756 704 819 q 732 693 688 693 q 785 756 776 693 m 801 889 q 764 953 808 953 q 713 889 719 953 q 749 825 706 825 q 801 889 794 825 m 896 889 q 858 953 903 953 q 807 889 814 953 q 843 825 800 825 q 896 889 889 825 m 817 1022 q 781 1086 824 1086 q 728 1022 735 1086 q 765 958 721 958 q 817 1022 810 958 m 911 1022 q 875 1086 918 1086 q 822 1022 829 1086 q 860 958 815 958 q 911 1022 904 958 m 438 947 l 438 950 q 413 883 433 906 q 424 835 424 865 l 424 828 q 422 821 422 824 q 433 778 431 807 l 436 778 q 503 704 501 778 q 542 714 518 714 q 575 707 558 714 q 571 738 571 719 l 571 750 q 572 761 571 756 l 572 760 q 651 847 582 847 q 688 839 672 847 q 683 871 683 853 l 683 883 q 685 894 683 889 l 685 892 q 708 957 689 935 q 699 1007 699 975 q 700 1017 699 1011 l 700 1026 q 781 1114 710 1114 q 826 1097 810 1114 q 875 1114 844 1114 q 940 1044 938 1114 l 944 1044 q 1010 971 1010 1044 l 1010 958 q 1008 947 1010 953 l 1008 950 q 983 883 1004 906 q 994 835 994 865 l 994 828 q 993 819 993 822 l 993 815 q 913 728 982 728 q 879 733 892 728 q 883 703 883 721 l 883 692 q 881 679 883 688 l 882 682 q 801 596 871 596 q 767 603 783 596 q 771 571 771 590 l 771 558 q 769 547 771 553 l 769 549 q 743 483 764 506 q 754 438 754 465 l 754 421 q 765 378 763 407 l 768 378 q 835 303 835 378 l 835 296 q 833 288 833 290 l 833 285 q 843 244 840 272 l 846 244 q 913 169 913 244 l 913 163 q 911 154 911 157 l 911 150 q 885 85 904 104 q 896 39 896 65 l 896 26 q 894 15 896 21 l 894 17 q 814 -71 883 -71 q 767 -54 783 -71 q 719 -71 747 -71 q 654 -1 657 -71 l 650 -1 q 585 72 585 -1 l 585 85 q 586 96 585 90 l 586 94 q 611 158 590 138 q 601 214 610 161 q 601 222 600 218 q 592 265 592 238 l 588 265 q 522 338 522 265 q 483 329 506 329 q 450 335 461 329 q 454 303 454 322 l 454 296 q 453 288 453 290 l 453 283 q 372 196 442 196 q 338 203 354 196 q 342 169 342 188 l 342 163 q 340 154 340 157 l 340 150 q 314 85 333 104 q 325 39 325 65 l 325 26 q 324 15 325 21 l 324 17 q 243 -71 313 -71 q 196 -54 213 -71 q 149 -71 176 -71 q 83 -1 86 -71 l 79 -1 q 14 72 14 -1 l 14 85 q 15 96 14 90 l 15 94 q 40 158 19 138 q 31 206 31 176 l 31 218 q 32 229 31 224 l 32 226 q 111 314 40 314 q 146 307 129 314 q 142 339 142 319 l 142 351 q 143 363 142 357 l 143 360 q 222 447 151 447 q 257 440 240 447 q 253 474 253 454 q 254 483 253 478 l 254 493 q 279 558 258 538 q 269 604 269 576 l 269 622 q 260 665 260 642 l 256 665 q 190 738 190 665 l 190 757 q 182 797 182 771 l 178 797 q 113 871 113 797 l 113 883 q 114 894 113 889 l 114 892 q 138 957 118 935 q 128 1007 128 975 q 129 1017 128 1011 l 129 1026 q 210 1114 139 1114 q 256 1097 239 1114 q 304 1114 274 1114 q 369 1044 367 1114 l 374 1044 q 439 971 439 1044 l 439 958 q 438 947 439 953 z "},"Y":{"ha":672,"x_min":79,"x_max":819,"o":"m 322 90 q 286 153 331 153 q 233 90 242 153 q 269 26 225 26 q 322 90 314 26 m 417 90 q 381 153 425 153 q 328 90 336 153 q 364 26 319 26 q 417 90 408 26 m 339 224 q 301 286 346 286 q 250 224 257 286 q 286 160 243 160 q 339 224 332 160 m 433 224 q 396 286 440 286 q 344 224 351 286 q 381 160 338 160 q 433 224 426 160 m 356 357 q 318 419 363 419 q 267 357 274 419 q 303 293 260 293 q 356 357 349 293 m 275 489 q 239 553 283 553 q 186 489 194 553 q 224 426 179 426 q 275 489 268 426 m 197 622 q 161 686 206 686 q 108 622 117 686 q 144 560 100 560 q 197 622 189 560 m 450 357 q 413 419 457 419 q 361 357 368 419 q 397 293 354 293 q 450 357 443 293 m 371 489 q 335 553 379 553 q 282 489 290 553 q 319 426 275 426 q 371 489 364 426 m 292 622 q 256 686 300 686 q 203 622 211 686 q 239 560 194 560 q 292 622 283 560 m 214 756 q 176 819 222 819 q 125 756 133 819 q 161 693 117 693 q 214 756 206 693 m 465 489 q 429 553 474 553 q 376 489 385 553 q 414 426 369 426 q 465 489 458 426 m 388 622 q 351 686 396 686 q 299 622 307 686 q 335 560 290 560 q 388 622 379 560 m 308 756 q 271 819 317 819 q 219 756 228 819 q 256 693 211 693 q 308 756 300 693 m 561 489 q 525 553 569 553 q 472 489 481 553 q 510 426 465 426 q 561 489 554 426 m 231 889 q 193 953 238 953 q 142 889 149 953 q 178 825 135 825 q 231 889 224 825 m 482 622 q 446 686 490 686 q 393 622 401 686 q 429 560 385 560 q 482 622 474 560 m 325 889 q 288 953 332 953 q 236 889 243 953 q 272 825 229 825 q 325 889 318 825 m 578 622 q 542 686 586 686 q 489 622 497 686 q 525 560 481 560 q 578 622 569 560 m 246 1022 q 210 1086 253 1086 q 157 1022 164 1086 q 194 958 150 958 q 246 1022 239 958 m 672 622 q 636 686 681 686 q 583 622 592 686 q 619 560 575 560 q 672 622 664 560 m 340 1022 q 304 1086 347 1086 q 251 1022 258 1086 q 289 958 244 958 q 340 1022 333 958 m 594 756 q 557 819 603 819 q 506 756 514 819 q 542 693 497 693 q 594 756 586 693 m 689 756 q 651 819 697 819 q 600 756 608 819 q 636 693 592 693 q 689 756 681 693 m 611 889 q 574 953 618 953 q 522 889 529 953 q 558 825 515 825 q 611 889 604 825 m 706 889 q 668 953 713 953 q 617 889 624 953 q 653 825 610 825 q 706 889 699 825 m 626 1022 q 590 1086 633 1086 q 538 1022 544 1086 q 575 958 531 958 q 626 1022 619 958 m 721 1022 q 685 1086 728 1086 q 632 1022 639 1086 q 669 958 625 958 q 721 1022 714 958 m 422 819 l 422 815 q 396 750 415 769 q 407 704 407 732 q 446 714 422 714 q 481 706 465 714 q 476 738 476 719 l 476 750 q 478 761 476 756 l 478 760 q 503 825 482 804 q 493 871 493 843 l 493 883 q 494 894 493 889 l 494 892 q 518 957 499 935 q 508 1007 508 975 q 510 1017 508 1011 l 510 1026 q 590 1114 519 1114 q 636 1097 619 1114 q 685 1114 654 1114 q 750 1044 747 1114 l 754 1044 q 819 971 819 1044 l 819 958 q 818 947 819 953 l 818 950 q 793 883 814 906 q 804 835 804 865 l 804 828 q 803 819 803 822 l 803 815 q 776 750 796 769 q 788 703 788 731 l 788 692 q 785 679 788 688 l 786 682 q 760 617 781 639 q 771 571 771 599 l 771 558 q 769 547 771 553 l 769 549 q 689 463 758 463 q 656 469 665 463 q 660 438 660 454 l 660 425 q 658 414 660 419 l 658 417 q 579 329 650 329 q 544 336 557 329 q 549 303 549 321 l 549 296 q 547 288 547 290 l 547 283 q 521 217 540 239 q 532 169 532 199 l 532 163 q 531 154 531 157 l 531 150 q 504 85 524 104 q 515 39 515 65 l 515 26 q 514 15 515 21 l 514 17 q 433 -71 503 -71 q 386 -54 403 -71 q 339 -71 367 -71 q 274 -1 276 -71 l 269 -1 q 204 72 204 -1 l 204 85 q 206 96 204 90 l 206 94 q 231 158 210 138 q 221 206 221 176 l 221 218 q 222 229 221 224 l 222 226 q 247 292 226 271 q 238 347 246 294 q 238 356 236 351 q 226 399 226 374 l 224 399 q 157 474 157 399 q 158 481 157 476 l 158 489 q 149 532 149 504 l 144 532 q 79 604 79 532 l 79 617 q 81 628 79 622 l 81 626 q 106 692 85 671 q 96 738 96 710 l 96 750 q 97 761 96 756 l 97 760 q 122 825 101 804 q 113 871 113 843 l 113 883 q 114 894 113 889 l 114 892 q 138 957 118 935 q 128 1007 128 975 q 129 1017 128 1011 l 129 1026 q 210 1114 139 1114 q 256 1097 239 1114 q 304 1114 274 1114 q 369 1044 367 1114 l 374 1044 q 439 971 439 1044 l 439 958 q 438 947 439 953 l 438 950 q 413 883 433 906 q 424 835 424 865 l 424 828 q 422 819 422 822 z "}}}
